  0
SECTION
  2
HEADER
  9
$ACADVER
  1
AC1015
  9
$ACADMAINTVER
 70
     6
  9
$DWGCODEPAGE
  3
ANSI_1252
  9
$INSBASE
 10
0.0
 20
0.0
 30
0.0
  9
$EXTMIN
 10
-192.7
 20
-86.35
 30
0.0
  9
$EXTMAX
 10
192.7
 20
80.0
 30
0.0
  9
$LIMMIN
 10
0.0
 20
0.0
  9
$LIMMAX
 10
420.0
 20
297.0
  9
$ORTHOMODE
 70
     0
  9
$REGENMODE
 70
     1
  9
$FILLMODE
 70
     1
  9
$QTEXTMODE
 70
     0
  9
$MIRRTEXT
 70
     1
  9
$LTSCALE
 40
1.0
  9
$ATTMODE
 70
     1
  9
$TEXTSIZE
 40
3.5
  9
$TRACEWID
 40
1.0
  9
$TEXTSTYLE
  7
Standard
  9
$CLAYER
  8
0
  9
$CELTYPE
  6
ByLayer
  9
$CECOLOR
 62
   256
  9
$CELTSCALE
 40
1.0
  9
$DISPSILH
 70
     0
  9
$DIMSCALE
 40
1.0
  9
$DIMASZ
 40
3.302
  9
$DIMEXO
 40
1.0
  9
$DIMDLI
 40
3.75
  9
$DIMRND
 40
0.0
  9
$DIMDLE
 40
0.0
  9
$DIMEXE
 40
1.0
  9
$DIMTP
 40
0.0
  9
$DIMTM
 40
0.0
  9
$DIMTXT
 40
3.5
  9
$DIMCEN
 40
2.5
  9
$DIMTSZ
 40
0.0
  9
$DIMTOL
 70
     0
  9
$DIMLIM
 70
     0
  9
$DIMTIH
 70
     1
  9
$DIMTOH
 70
     1
  9
$DIMSE1
 70
     0
  9
$DIMSE2
 70
     0
  9
$DIMTAD
 70
     1
  9
$DIMZIN
 70
     1
  9
$DIMBLK
  1

  9
$DIMASO
 70
     1
  9
$DIMSHO
 70
     1
  9
$DIMPOST
  1

  9
$DIMAPOST
  1

  9
$DIMALT
 70
     0
  9
$DIMALTD
 70
     3
  9
$DIMALTF
 40
0.0393700787
  9
$DIMLFAC
 40
1.0
  9
$DIMTOFL
 70
     1
  9
$DIMTVP
 40
0.0
  9
$DIMTIX
 70
     0
  9
$DIMSOXD
 70
     0
  9
$DIMSAH
 70
     0
  9
$DIMBLK1
  1

  9
$DIMBLK2
  1

  9
$DIMSTYLE
  2
ISO-25
  9
$DIMCLRD
 70
     0
  9
$DIMCLRE
 70
     0
  9
$DIMCLRT
 70
     0
  9
$DIMTFAC
 40
1.0
  9
$DIMGAP
 40
1.524
  9
$DIMJUST
 70
     0
  9
$DIMSD1
 70
     0
  9
$DIMSD2
 70
     0
  9
$DIMTOLJ
 70
     0
  9
$DIMTZIN
 70
     1
  9
$DIMALTZ
 70
     0
  9
$DIMALTTZ
 70
     0
  9
$DIMUPT
 70
     0
  9
$DIMDEC
 70
     2
  9
$DIMTDEC
 70
     2
  9
$DIMALTU
 70
     2
  9
$DIMALTTD
 70
     3
  9
$DIMTXSTY
  7
Standard
  9
$DIMAUNIT
 70
     0
  9
$DIMADEC
 70
     2
  9
$DIMALTRND
 40
0.0
  9
$DIMAZIN
 70
     0
  9
$DIMDSEP
 70
    44
  9
$DIMATFIT
 70
     3
  9
$DIMFRAC
 70
     0
  9
$DIMLDRBLK
  1

  9
$DIMLUNIT
 70
     2
  9
$DIMLWD
 70
    -2
  9
$DIMLWE
 70
    -2
  9
$DIMTMOVE
 70
     0
  9
$LUNITS
 70
     2
  9
$LUPREC
 70
     2
  9
$SKETCHINC
 40
1.0
  9
$FILLETRAD
 40
10.0
  9
$AUNITS
 70
     0
  9
$AUPREC
 70
     2
  9
$MENU
  1
.
  9
$ELEVATION
 40
0.0
  9
$PELEVATION
 40
0.0
  9
$THICKNESS
 40
0.0
  9
$LIMCHECK
 70
     0
  9
$CHAMFERA
 40
0.0
  9
$CHAMFERB
 40
0.0
  9
$CHAMFERC
 40
0.0
  9
$CHAMFERD
 40
0.0
  9
$SKPOLY
 70
     0
  9
$TDCREATE
 40
2459269.863543761
  9
$TDUCREATE
 40
2459270.071877095
  9
$TDUPDATE
 40
2459269.863569236
  9
$TDUUPDATE
 40
2459270.071902569
  9
$TDINDWG
 40
0.0000000116
  9
$TDUSRTIMER
 40
0.0000000116
  9
$USRTIMER
 70
     1
  9
$ANGBASE
 50
0.0
  9
$ANGDIR
 70
     0
  9
$PDMODE
 70
     0
  9
$PDSIZE
 40
-1.0
  9
$PLINEWID
 40
0.0
  9
$SPLFRAME
 70
     0
  9
$SPLINETYPE
 70
     6
  9
$SPLINESEGS
 70
     8
  9
$HANDSEED
  5
16A
  9
$SURFTAB1
 70
     6
  9
$SURFTAB2
 70
     6
  9
$SURFTYPE
 70
     6
  9
$SURFU
 70
     6
  9
$SURFV
 70
     6
  9
$UCSBASE
  2

  9
$UCSNAME
  2

  9
$UCSORG
 10
0.0
 20
0.0
 30
0.0
  9
$UCSXDIR
 10
1.0
 20
0.0
 30
0.0
  9
$UCSYDIR
 10
0.0
 20
1.0
 30
0.0
  9
$UCSORTHOREF
  2

  9
$UCSORTHOVIEW
 70
     0
  9
$UCSORGTOP
 10
0.0
 20
0.0
 30
0.0
  9
$UCSORGBOTTOM
 10
0.0
 20
0.0
 30
0.0
  9
$UCSORGLEFT
 10
0.0
 20
0.0
 30
0.0
  9
$UCSORGRIGHT
 10
0.0
 20
0.0
 30
0.0
  9
$UCSORGFRONT
 10
0.0
 20
0.0
 30
0.0
  9
$UCSORGBACK
 10
0.0
 20
0.0
 30
0.0
  9
$PUCSBASE
  2

  9
$PUCSNAME
  2

  9
$PUCSORG
 10
0.0
 20
0.0
 30
0.0
  9
$PUCSXDIR
 10
1.0
 20
0.0
 30
0.0
  9
$PUCSYDIR
 10
0.0
 20
1.0
 30
0.0
  9
$PUCSORTHOREF
  2

  9
$PUCSORTHOVIEW
 70
     0
  9
$PUCSORGTOP
 10
0.0
 20
0.0
 30
0.0
  9
$PUCSORGBOTTOM
 10
0.0
 20
0.0
 30
0.0
  9
$PUCSORGLEFT
 10
0.0
 20
0.0
 30
0.0
  9
$PUCSORGRIGHT
 10
0.0
 20
0.0
 30
0.0
  9
$PUCSORGFRONT
 10
0.0
 20
0.0
 30
0.0
  9
$PUCSORGBACK
 10
0.0
 20
0.0
 30
0.0
  9
$USERI1
 70
     0
  9
$USERI2
 70
     0
  9
$USERI3
 70
     0
  9
$USERI4
 70
     0
  9
$USERI5
 70
     0
  9
$USERR1
 40
0.0
  9
$USERR2
 40
0.0
  9
$USERR3
 40
0.0
  9
$USERR4
 40
0.0
  9
$USERR5
 40
0.0
  9
$WORLDVIEW
 70
     1
  9
$SHADEDGE
 70
     3
  9
$SHADEDIF
 70
    70
  9
$TILEMODE
 70
     1
  9
$MAXACTVP
 70
    64
  9
$PINSBASE
 10
0.0
 20
0.0
 30
0.0
  9
$PLIMCHECK
 70
     0
  9
$PEXTMIN
 10
1.0000000000E+20
 20
1.0000000000E+20
 30
1.0000000000E+20
  9
$PEXTMAX
 10
-1.0000000000E+20
 20
-1.0000000000E+20
 30
-1.0000000000E+20
  9
$PLIMMIN
 10
0.0
 20
0.0
  9
$PLIMMAX
 10
420.0
 20
297.0
  9
$UNITMODE
 70
     0
  9
$VISRETAIN
 70
     1
  9
$PLINEGEN
 70
     0
  9
$PSLTSCALE
 70
     1
  9
$TREEDEPTH
 70
  3020
  9
$CMLSTYLE
  2
Standard
  9
$CMLJUST
 70
     0
  9
$CMLSCALE
 40
20.0
  9
$PROXYGRAPHICS
 70
     1
  9
$MEASUREMENT
 70
     1
  9
$CELWEIGHT
370
    -1
  9
$ENDCAPS
280
     0
  9
$JOINSTYLE
280
     0
  9
$LWDISPLAY
290
     1
  9
$INSUNITS
 70
     4
  9
$HYPERLINKBASE
  1

  9
$STYLESHEET
  1

  9
$XEDIT
290
     1
  9
$CEPSNTYPE
380
     0
  9
$PSTYLEMODE
290
     1
  9
$FINGERPRINTGUID
  2
{1a3832d8-c7e0-4f9c-9ca4-44f6237a82c4}
  9
$VERSIONGUID
  2
{FAEB1C32-E019-11D5-929B-00C0DF256EC4}
  9
$EXTNAMES
290
     1
  9
$PSVPSCALE
 40
0.0
  9
$OLESTARTUP
290
     0
  0
ENDSEC
  0
SECTION
  2
CLASSES
  0
CLASS
  1
ACDBDICTIONARYWDFLT
  2
AcDbDictionaryWithDefault
  3
ObjectDBX Classes
 90
        0
280
     0
281
     0
  0
CLASS
  1
VISUALSTYLE
  2
AcDbVisualStyle
  3
ObjectDBX Classes
 90
     4095
280
     0
281
     0
  0
CLASS
  1
MATERIAL
  2
AcDbMaterial
  3
ObjectDBX Classes
 90
     1153
280
     0
281
     0
  0
CLASS
  1
SCALE
  2
AcDbScale
  3
ObjectDBX Classes
 90
     1153
280
     0
281
     0
  0
CLASS
  1
TABLESTYLE
  2
AcDbTableStyle
  3
ObjectDBX Classes
 90
     4095
280
     0
281
     0
  0
CLASS
  1
MLEADERSTYLE
  2
AcDbMLeaderStyle
  3
ACDB_MLEADERSTYLE_CLASS
 90
     4095
280
     0
281
     0
  0
CLASS
  1
SUN
  2
AcDbSun
  3
SCENEOE
 90
     1153
280
     0
281
     0
  0
CLASS
  1
ACDBPLACEHOLDER
  2
AcDbPlaceHolder
  3
ObjectDBX Classes
 90
        0
280
     0
281
     0
  0
CLASS
  1
LAYOUT
  2
AcDbLayout
  3
ObjectDBX Classes
 90
        0
280
     0
281
     0
  0
ENDSEC
  0
SECTION
  2
TABLES
  0
TABLE
  2
VPORT
  5
8
330
0
100
AcDbSymbolTable
 70
     1
  0
VPORT
  5
29
330
8
100
AcDbSymbolTableRecord
100
AcDbViewportTableRecord
  2
*Active
 70
     0
 10
0.0
 20
0.0
 11
1.0
 21
1.0
 12
0.0
 22
-3.175
 13
0.0
 23
0.0
 14
10.0
 24
10.0
 15
10.0
 25
10.0
 16
0.0
 26
0.0
 36
1.0
 17
0.0
 27
0.0
 37
0.0
 40
169.677
 41
2.3168019237
 42
50.0
 43
0.0
 44
0.0
 50
0.0
 51
0.0
 71
     0
 72
   100
 73
     1
 74
     3
 75
     0
 76
     0
 77
     0
 78
     0
281
     0
 65
     1
110
0.0
120
0.0
130
0.0
111
1.0
121
0.0
131
0.0
112
0.0
122
1.0
132
0.0
 79
     0
146
0.0
  0
ENDTAB
  0
TABLE
  2
LTYPE
  5
5
330
0
100
AcDbSymbolTable
 70
     6
  0
LTYPE
  5
14
330
5
100
AcDbSymbolTableRecord
100
AcDbLinetypeTableRecord
  2
ByBlock
 70
     0
  3

 72
    65
 73
     0
 40
0.0
  0
LTYPE
  5
15
330
5
100
AcDbSymbolTableRecord
100
AcDbLinetypeTableRecord
  2
ByLayer
 70
     0
  3

 72
    65
 73
     0
 40
0.0
  0
LTYPE
  5
16
330
5
100
AcDbSymbolTableRecord
100
AcDbLinetypeTableRecord
  2
Continuous
 70
     0
  3
Solid line
 72
    65
 73
     0
 40
0.0
  0
LTYPE
  5
6E
330
5
100
AcDbSymbolTableRecord
100
AcDbLinetypeTableRecord
  2
HIDDEN
 70
     0
  3
Hidden __ __ __ __ __ __ __ __ __ __ __ __ __ __
 72
    65
 73
     2
 40
1.905
 49
1.27
 74
     0
 49
-0.635
 74
     0
  0
LTYPE
  5
6F
330
5
100
AcDbSymbolTableRecord
100
AcDbLinetypeTableRecord
  2
PHANTOM
 70
     0
  3
Phantom ______  __  __  ______  __  __  ______
 72
    65
 73
     6
 40
12.7
 49
6.35
 74
     0
 49
-1.27
 74
     0
 49
1.27
 74
     0
 49
-1.27
 74
     0
 49
1.27
 74
     0
 49
-1.27
 74
     0
  0
LTYPE
  5
70
330
5
100
AcDbSymbolTableRecord
100
AcDbLinetypeTableRecord
  2
CENTER
 70
     0
  3
Center ____ _ ____ _ ____ _ ____ _ ____ _ ____
 72
    65
 73
     4
 40
10.16
 49
6.35
 74
     0
 49
-1.27
 74
     0
 49
1.27
 74
     0
 49
-1.27
 74
     0
  0
LTYPE
  5
71
330
5
100
AcDbSymbolTableRecord
100
AcDbLinetypeTableRecord
  2
CENTERX2
 70
     0
  3
Center (2x) ________  __  ________  __  _____
 72
    65
 73
     4
 40
20.32
 49
12.7
 74
     0
 49
-2.54
 74
     0
 49
2.54
 74
     0
 49
-2.54
 74
     0
  0
LTYPE
  5
72
330
5
100
AcDbSymbolTableRecord
100
AcDbLinetypeTableRecord
  2
DOT2
 70
     0
  3
Dot (.5x) ........................................
 72
    65
 73
     2
 40
0.635
 49
0.0
 74
     0
 49
-0.635
 74
     0
  0
ENDTAB
  0
TABLE
  2
LAYER
  5
2
330
0
100
AcDbSymbolTable
 70
     1
  0
LAYER
  5
10
330
2
100
AcDbSymbolTableRecord
100
AcDbLayerTableRecord
  2
0
 70
     0
 62
     7
  6
Continuous
370
    -3
390
F
  0
ENDTAB
  0
TABLE
  2
STYLE
  5
3
330
0
100
AcDbSymbolTable
 70
     2
  0
STYLE
  5
11
330
3
100
AcDbSymbolTableRecord
100
AcDbTextStyleTableRecord
  2
Standard
 70
     0
 40
0.0
 41
1.0
 50
0.0
 71
     0
 42
3.5
  3
txt
  4

  0
STYLE
  5
167
330
3
100
AcDbSymbolTableRecord
100
AcDbTextStyleTableRecord
  2
SLDTEXTSTYLE0
 70
     0
 40
0.0
 41
0.7
 50
0.0
 71
     0
 42
3.5
  3
TXT
  4

  0
ENDTAB
  0
TABLE
  2
VIEW
  5
6
330
0
100
AcDbSymbolTable
 70
     0
  0
ENDTAB
  0
TABLE
  2
UCS
  5
7
330
0
100
AcDbSymbolTable
 70
     0
  0
ENDTAB
  0
TABLE
  2
APPID
  5
9
330
0
100
AcDbSymbolTable
 70
     1
  0
APPID
  5
12
330
9
100
AcDbSymbolTableRecord
100
AcDbRegAppTableRecord
  2
ACAD
 70
     0
  0
ENDTAB
  0
TABLE
  2
DIMSTYLE
  5
A
330
0
100
AcDbSymbolTable
 70
     1
100
AcDbDimStyleTable
  0
DIMSTYLE
105
27
330
A
100
AcDbSymbolTableRecord
100
AcDbDimStyleTableRecord
  2
ISO-25
 70
     0
 41
2.5
 42
0.625
 43
3.75
 44
1.25
 73
     0
 74
     0
 77
     1
 78
     8
140
2.5
141
2.5
143
0.0393700787
147
0.625
171
     3
172
     1
178
     0
271
     2
272
     2
274
     3
278
    44
283
     0
284
     8
340
11
  0
ENDTAB
  0
TABLE
  2
BLOCK_RECORD
  5
1
330
0
100
AcDbSymbolTable
 70
     1
  0
BLOCK_RECORD
  5
1F
330
1
100
AcDbSymbolTableRecord
100
AcDbBlockTableRecord
  2
*Model_Space
340
22
  0
BLOCK_RECORD
  5
1B
330
1
100
AcDbSymbolTableRecord
100
AcDbBlockTableRecord
  2
*Paper_Space
340
1E
  0
BLOCK_RECORD
  5
23
330
1
100
AcDbSymbolTableRecord
100
AcDbBlockTableRecord
  2
*Paper_Space0
340
26
  0
ENDTAB
  0
ENDSEC
  0
SECTION
  2
BLOCKS
  0
BLOCK
  5
20
330
1F
100
AcDbEntity
  8
0
100
AcDbBlockBegin
  2
*Model_Space
 70
     0
 10
0.0
 20
0.0
 30
0.0
  3
*Model_Space
  1

  0
ENDBLK
  5
21
330
1F
100
AcDbEntity
  8
0
100
AcDbBlockEnd
  0
BLOCK
  5
1C
330
1B
100
AcDbEntity
 67
     1
  8
0
100
AcDbBlockBegin
  2
*Paper_Space
 70
     0
 10
0.0
 20
0.0
 30
0.0
  3
*Paper_Space
  1

  0
ENDBLK
  5
1D
330
1B
100
AcDbEntity
 67
     1
  8
0
100
AcDbBlockEnd
  0
BLOCK
  5
24
330
23
100
AcDbEntity
  8
0
100
AcDbBlockBegin
  2
*Paper_Space0
 70
     0
 10
0.0
 20
0.0
 30
0.0
  3
*Paper_Space0
  1

  0
ENDBLK
  5
25
330
23
100
AcDbEntity
  8
0
100
AcDbBlockEnd
  0
ENDSEC
  0
SECTION
  2
ENTITIES
  0
CIRCLE
  5
73
330
1F
100
AcDbEntity
  8
0
  6
Continuous
 62
     7
370
    25
100
AcDbCircle
 10
-142.7
 20
-50.0
 30
0.0
 40
12.5
  0
LINE
  5
74
330
1F
100
AcDbEntity
  8
0
  6
Continuous
 62
     7
370
    25
100
AcDbLine
 10
-8.0844155844
 20
-19.0909090909
 30
0.0
 11
-8.0844155844
 21
-30.0
 31
0.0
  0
LINE
  5
75
330
1F
100
AcDbEntity
  8
0
  6
Continuous
 62
     7
370
    25
100
AcDbLine
 10
-8.0844155844
 20
-30.0
 30
0.0
 11
-9.6428571429
 21
-30.0
 31
0.0
  0
LINE
  5
76
330
1F
100
AcDbEntity
  8
0
  6
Continuous
 62
     7
370
    25
100
AcDbLine
 10
-9.6428571429
 20
-30.0
 30
0.0
 11
-9.6428571429
 21
-28.3806818182
 31
0.0
  0
SPLINE
  5
77
330
1F
100
AcDbEntity
  8
0
  6
Continuous
 62
     7
370
    25
100
AcDbSpline
210
0.0
220
0.0
230
1.0
 70
     8
 71
     3
 72
    15
 73
    11
 74
     0
 42
0.000000001
 43
0.00000001
 40
0.0
 40
0.0
 40
0.0
 40
0.0
 40
0.145351380884056
 40
0.2803577310871519
 40
0.4073437072340032
 40
0.5283818843817099
 40
0.6452422304191037
 40
0.7609010082096154
 40
0.8785422785192727
 40
1.0
 40
1.0
 40
1.0
 40
1.0
 10
-9.64285714285714
 20
-28.38068181818182
 30
0.0
 10
-9.72710128096635
 20
-28.52466537560787
 30
0.0
 10
-9.8895936857446
 20
-28.80238481128371
 30
0.0
 10
-10.1745356208428
 20
-29.17446602807076
 30
0.0
 10
-10.48407657077294
 20
-29.48761373122181
 30
0.0
 10
-10.81401098970585
 20
-29.74729221329674
 30
0.0
 10
-11.16858120822465
 20
-29.94728916606735
 30
0.0
 10
-11.54429628096885
 20
-30.09262790343656
 30
0.0
 10
-11.94401619257254
 20
-30.18034469883291
 30
0.0
 10
-12.21851459794002
 20
-30.18993400858781
 30
0.0
 10
-12.35795454545454
 20
-30.1948051948052
 30
0.0
  0
SPLINE
  5
78
330
1F
100
AcDbEntity
  8
0
  6
Continuous
 62
     7
370
    25
100
AcDbSpline
210
0.0
220
0.0
230
1.0
 70
     8
 71
     3
 72
    19
 73
    15
 74
     0
 42
0.000000001
 43
0.00000001
 40
0.0
 40
0.0
 40
0.0
 40
0.0
 40
0.0813201138483346
 40
0.1588928364060317
 40
0.233827893650062
 40
0.3093196394629323
 40
0.3839180008765224
 40
0.4564226473147704
 40
0.528343917643414
 40
0.6016098255890144
 40
0.6826403938829995
 40
0.7756815107518197
 40
0.881375350422347
 40
1.0
 40
1.0
 40
1.0
 40
1.0
 10
-12.35795454545454
 20
-30.1948051948052
 30
0.0
 10
-12.52088714446587
 20
-30.18790229012276
 30
0.0
 10
-12.83924408686022
 20
-30.17441458022509
 30
0.0
 10
-13.29771296632008
 20
-30.06569990349281
 30
0.0
 10
-13.71940835563593
 20
-29.88614502045812
 30
0.0
 10
-14.09991980557162
 20
-29.64032878966804
 30
0.0
 10
-14.42653777257973
 20
-29.33443936540833
 30
0.0
 10
-14.70195904212683
 20
-28.99123399328419
 30
0.0
 10
-14.91518208877046
 20
-28.60849370764277
 30
0.0
 10
-15.06521196839414
 20
-28.17944445821352
 30
0.0
 10
-15.17011690284818
 20
-27.6946495990245
 30
0.0
 10
-15.23875909254411
 20
-27.13840048951417
 30
0.0
 10
-15.28512514560816
 20
-26.50443050812308
 30
0.0
 10
-15.28975789198864
 20
-26.05529101446987
 30
0.0
 10
-15.29220779220779
 20
-25.81777597402598
 30
0.0
  0
LINE
  5
79
330
1F
100
AcDbEntity
  8
0
  6
Continuous
 62
     7
370
    25
100
AcDbLine
 10
-15.2922077922
 20
-25.817775974
 30
0.0
 11
-15.2922077922
 21
-19.0909090909
 31
0.0
  0
LINE
  5
7A
330
1F
100
AcDbEntity
  8
0
  6
Continuous
 62
     7
370
    25
100
AcDbLine
 10
-15.2922077922
 20
-19.0909090909
 30
0.0
 11
-13.7337662338
 21
-19.0909090909
 31
0.0
  0
LINE
  5
7B
330
1F
100
AcDbEntity
  8
0
  6
Continuous
 62
     7
370
    25
100
AcDbLine
 10
-13.7337662338
 20
-19.0909090909
 30
0.0
 11
-13.7337662338
 21
-25.1298701299
 31
0.0
  0
SPLINE
  5
7C
330
1F
100
AcDbEntity
  8
0
  6
Continuous
 62
     7
370
    25
100
AcDbSpline
210
0.0
220
0.0
230
1.0
 70
     8
 71
     3
 72
    23
 73
    19
 74
     0
 42
0.000000001
 43
0.00000001
 40
0.0
 40
0.0
 40
0.0
 40
0.0
 40
0.0913585692480935
 40
0.175112960065985
 40
0.2512932337354625
 40
0.3192451037847039
 40
0.3789617277451606
 40
0.4319281341102529
 40
0.4767593621986156
 40
0.5136939187102318
 40
0.5789195484136538
 40
0.6411692332462958
 40
0.7020771306056393
 40
0.7632674826946475
 40
0.8235429642456237
 40
0.8823706578601105
 40
0.9402833760395435
 40
1.0
 40
1.0
 40
1.0
 40
1.0
 10
-13.73376623376623
 20
-25.12987012987013
 30
0.0
 10
-13.7329426790071
 20
-25.26380035850174
 30
0.0
 10
-13.73136411759972
 20
-25.52051320953499
 30
0.0
 10
-13.7260769161435
 20
-25.88887893426872
 30
0.0
 10
-13.71461702892649
 20
-26.22281756140957
 30
0.0
 10
-13.6955374436005
 20
-26.521054027223
 30
0.0
 10
-13.67578268617206
 20
-26.78519747756852
 30
0.0
 10
-13.64783126881744
 20
-27.01442364713571
 30
0.0
 10
-13.61973062392994
 20
-27.21009365565178
 30
0.0
 10
-13.57097266399356
 20
-27.42010063154892
 30
0.0
 10
-13.49395262920856
 20
-27.64982530665069
 30
0.0
 10
-13.35836407478115
 20
-27.89147830811304
 30
0.0
 10
-13.20159354058009
 20
-28.11287080741348
 30
0.0
 10
-13.00553179007361
 20
-28.29711103224047
 30
0.0
 10
-12.78629130105924
 20
-28.44635276485819
 30
0.0
 10
-12.5508205819772
 20
-28.55810524893071
 30
0.0
 10
-12.29864433068764
 20
-28.62458454446233
 30
0.0
 10
-12.12599882757655
 20
-28.63239733469277
 30
0.0
 10
-12.03835227272727
 20
-28.63636363636364
 30
0.0
  0
SPLINE
  5
7D
330
1F
100
AcDbEntity
  8
0
  6
Continuous
 62
     7
370
    25
100
AcDbSpline
210
0.0
220
0.0
230
1.0
 70
     8
 71
     3
 72
    15
 73
    11
 74
     0
 42
0.000000001
 43
0.00000001
 40
0.0
 40
0.0
 40
0.0
 40
0.0
 40
0.1264673331906482
 40
0.2481591030786026
 40
0.3674321135876553
 40
0.4873751454281896
 40
0.6084567271003255
 40
0.7335629632302425
 40
0.8624930348047642
 40
1.0
 40
1.0
 40
1.0
 40
1.0
 10
-12.03835227272727
 20
-28.63636363636364
 30
0.0
 10
-11.95604082145489
 20
-28.63298171852285
 30
0.0
 10
-11.79452610136459
 20
-28.62634558825205
 30
0.0
 10
-11.55757171349979
 20
-28.58759648935463
 30
0.0
 10
-11.33313491690334
 20
-28.51566995100831
 30
0.0
 10
-11.11922980487895
 20
-28.41819548732814
 30
0.0
 10
-10.91568367866233
 20
-28.29252388282429
 30
0.0
 10
-10.7282123911356
 20
-28.13517953456307
 30
0.0
 10
-10.54794501665024
 20
-27.95409221855085
 30
0.0
 10
-10.4428400059911
 20
-27.8158614080684
 30
0.0
 10
-10.38859577922078
 20
-27.74452110389611
 30
0.0
  0
SPLINE
  5
7E
330
1F
100
AcDbEntity
  8
0
  6
Continuous
 62
     7
370
    25
100
AcDbSpline
210
0.0
220
0.0
230
1.0
 70
     8
 71
     3
 72
    15
 73
    11
 74
     0
 42
0.000000001
 43
0.00000001
 40
0.0
 40
0.0
 40
0.0
 40
0.0
 40
0.0853872039401819
 40
0.1804395274817139
 40
0.2859596254112219
 40
0.4031705914761869
 40
0.5324840755035903
 40
0.6754897216166643
 40
0.8305214390956649
 40
1.0
 40
1.0
 40
1.0
 40
1.0
 10
-10.38859577922078
 20
-27.74452110389611
 30
0.0
 10
-10.34417842188262
 20
-27.67449192863529
 30
0.0
 10
-10.25031603266916
 20
-27.52650685931685
 30
0.0
 10
-10.139858348899
 20
-27.27088670908924
 30
0.0
 10
-10.04695908938668
 20
-26.97673844000222
 30
0.0
 10
-9.967970715430532
 20
-26.64416838048338
 30
0.0
 10
-9.908171451296193
 20
-26.27079124340928
 30
0.0
 10
-9.866817644059944
 20
-25.85814492405411
 30
0.0
 10
-9.843128458981855
 20
-25.40510697480342
 30
0.0
 10
-9.839537664190555
 20
-25.09032914117568
 30
0.0
 10
-9.837662337662335
 20
-24.92593344155844
 30
0.0
  0
LINE
  5
7F
330
1F
100
AcDbEntity
  8
0
  6
Continuous
 62
     7
370
    25
100
AcDbLine
 10
-9.8376623377
 20
-24.9259334416
 30
0.0
 11
-9.8376623377
 21
-19.0909090909
 31
0.0
  0
LINE
  5
80
330
1F
100
AcDbEntity
  8
0
  6
Continuous
 62
     7
370
    25
100
AcDbLine
 10
-9.8376623377
 20
-19.0909090909
 30
0.0
 11
-8.0844155844
 21
-19.0909090909
 31
0.0
  0
LINE
  5
81
330
1F
100
AcDbEntity
  8
0
  6
Continuous
 62
     7
370
    25
100
AcDbLine
 10
-4.1883116883
 20
-15.0
 30
0.0
 11
-4.1883116883
 21
-17.1428571429
 31
0.0
  0
LINE
  5
82
330
1F
100
AcDbEntity
  8
0
  6
Continuous
 62
     7
370
    25
100
AcDbLine
 10
-4.1883116883
 20
-17.1428571429
 30
0.0
 11
-5.7467532468
 21
-17.1428571429
 31
0.0
  0
LINE
  5
83
330
1F
100
AcDbEntity
  8
0
  6
Continuous
 62
     7
370
    25
100
AcDbLine
 10
-5.7467532468
 20
-17.1428571429
 30
0.0
 11
-5.7467532468
 21
-15.0
 31
0.0
  0
LINE
  5
84
330
1F
100
AcDbEntity
  8
0
  6
Continuous
 62
     7
370
    25
100
AcDbLine
 10
-5.7467532468
 20
-15.0
 30
0.0
 11
-4.1883116883
 21
-15.0
 31
0.0
  0
LINE
  5
85
330
1F
100
AcDbEntity
  8
0
  6
Continuous
 62
     7
370
    25
100
AcDbLine
 10
-4.1883116883
 20
-19.0909090909
 30
0.0
 11
-4.1883116883
 21
-30.0
 31
0.0
  0
LINE
  5
86
330
1F
100
AcDbEntity
  8
0
  6
Continuous
 62
     7
370
    25
100
AcDbLine
 10
-4.1883116883
 20
-30.0
 30
0.0
 11
-5.7467532468
 21
-30.0
 31
0.0
  0
LINE
  5
87
330
1F
100
AcDbEntity
  8
0
  6
Continuous
 62
     7
370
    25
100
AcDbLine
 10
-5.7467532468
 20
-30.0
 30
0.0
 11
-5.7467532468
 21
-19.0909090909
 31
0.0
  0
LINE
  5
88
330
1F
100
AcDbEntity
  8
0
  6
Continuous
 62
     7
370
    25
100
AcDbLine
 10
-5.7467532468
 20
-19.0909090909
 30
0.0
 11
-4.1883116883
 21
-19.0909090909
 31
0.0
  0
LINE
  5
89
330
1F
100
AcDbEntity
  8
0
  6
Continuous
 62
     7
370
    25
100
AcDbLine
 10
-0.2922077922
 20
-28.7824675325
 30
0.0
 11
-0.2922077922
 21
-34.0909090909
 31
0.0
  0
LINE
  5
8A
330
1F
100
AcDbEntity
  8
0
  6
Continuous
 62
     7
370
    25
100
AcDbLine
 10
-0.2922077922
 20
-34.0909090909
 30
0.0
 11
-1.8506493506
 21
-34.0909090909
 31
0.0
  0
LINE
  5
8B
330
1F
100
AcDbEntity
  8
0
  6
Continuous
 62
     7
370
    25
100
AcDbLine
 10
-1.8506493506
 20
-34.0909090909
 30
0.0
 11
-1.8506493506
 21
-19.0909090909
 31
0.0
  0
LINE
  5
8C
330
1F
100
AcDbEntity
  8
0
  6
Continuous
 62
     7
370
    25
100
AcDbLine
 10
-1.8506493506
 20
-19.0909090909
 30
0.0
 11
-0.487012987
 21
-19.0909090909
 31
0.0
  0
LINE
  5
8D
330
1F
100
AcDbEntity
  8
0
  6
Continuous
 62
     7
370
    25
100
AcDbLine
 10
-0.487012987
 20
-19.0909090909
 30
0.0
 11
-0.487012987
 21
-20.6645698052
 31
0.0
  0
SPLINE
  5
8E
330
1F
100
AcDbEntity
  8
0
  6
Continuous
 62
     7
370
    25
100
AcDbSpline
210
0.0
220
0.0
230
1.0
 70
     8
 71
     3
 72
    15
 73
    11
 74
     0
 42
0.000000001
 43
0.00000001
 40
0.0
 40
0.0
 40
0.0
 40
0.0
 40
0.1534415689184373
 40
0.2935129166335638
 40
0.4212232518932855
 40
0.5387676095156868
 40
0.6520229379005827
 40
0.7645711811233188
 40
0.8796299931194249
 40
1.0
 40
1.0
 40
1.0
 40
1.0
 10
-0.4870129870129872
 20
-20.66456980519481
 30
0.0
 10
-0.4016697599935082
 20
-20.5176227272568
 30
0.0
 10
-0.2384197381514947
 20
-20.23653289129915
 30
0.0
 10
0.0419860249841105
 20
-19.86240469796259
 30
0.0
 10
0.3385595920647639
 20
-19.55449592383444
 30
0.0
 10
0.6506152345762375
 20
-19.30682501577304
 30
0.0
 10
0.9848200687299893
 20
-19.12266273821651
 30
0.0
 10
1.339028510795096
 20
-18.98901083194816
 30
0.0
 10
1.718550518753578
 20
-18.91258730303175
 30
0.0
 10
1.97916956769934
 20
-18.90168038388768
 30
0.0
 10
2.112418831168833
 20
-18.8961038961039
 30
0.0
  0
SPLINE
  5
8F
330
1F
100
AcDbEntity
  8
0
  6
Continuous
 62
     7
370
    25
100
AcDbSpline
210
0.0
220
0.0
230
1.0
 70
     8
 71
     3
 72
    23
 73
    19
 74
     0
 42
0.000000001
 43
0.00000001
 40
0.0
 40
0.0
 40
0.0
 40
0.0
 40
0.0692665916997197
 40
0.1364747662070462
 40
0.20383326763906
 40
0.2725512793474287
 40
0.3079405878330276
 40
0.3442401467318308
 40
0.3814079360652081
 40
0.419383343207304
 40
0.4589286563185815
 40
0.5002137132843413
 40
0.5428440636144839
 40
0.5873411917353946
 40
0.6808391174692272
 40
0.7798050673952841
 40
0.886012936795583
 40
0.9999999999999999
 40
0.9999999999999999
 40
0.9999999999999999
 40
0.9999999999999999
 10
2.112418831168833
 20
-18.8961038961039
 30
0.0
 10
2.286575563833951
 20
-18.90366606835071
 30
0.0
 10
2.629713558509545
 20
-18.91856568538217
 30
0.0
 10
3.130759295029151
 20
-19.03870882119904
 30
0.0
 10
3.603959827444975
 20
-19.23555745245712
 30
0.0
 10
3.972080870096232
 20
-19.46280856616987
 30
0.0
 10
4.250260756516379
 20
-19.68005166760277
 30
0.0
 10
4.451520513634552
 20
-19.86573312602091
 30
0.0
 10
4.639679161079938
 20
-20.07343447603425
 30
0.0
 10
4.817343009485617
 20
-20.30051839115459
 30
0.0
 10
4.984691131573228
 20
-20.54788914033753
 30
0.0
 10
5.142433677047523
 20
-20.81512178744199
 30
0.0
 10
5.289257411690581
 20
-21.10260429435962
 30
0.0
 10
5.469523601681666
 20
-21.51921044790101
 30
0.0
 10
5.663061806833842
 20
-22.08346959008354
 30
0.0
 10
5.826194220209666
 20
-22.81713011232412
 30
0.0
 10
5.923194978085266
 20
-23.61448083351072
 30
0.0
 10
5.935294796904275
 20
-24.16773807089763
 30
0.0
 10
5.941558441558442
 20
-24.45413961038961
 30
0.0
  0
SPLINE
  5
90
330
1F
100
AcDbEntity
  8
0
  6
Continuous
 62
     7
370
    25
100
AcDbSpline
210
0.0
220
0.0
230
1.0
 70
     8
 71
     3
 72
    23
 73
    19
 74
     0
 42
0.000000001
 43
0.00000001
 40
0.0
 40
0.0
 40
0.0
 40
0.0
 40
0.0868905816742604
 40
0.1689247318140341
 40
0.2464283336375733
 40
0.3196994402081059
 40
0.3893697711357311
 40
0.4558821400684419
 40
0.5196571560945602
 40
0.5817579559525596
 40
0.6411556007691225
 40
0.6972756439696863
 40
0.7509190296583895
 40
0.8016410254424898
 40
0.8518005935079992
 40
0.9007443439472134
 40
0.9497596996320498
 40
1.0
 40
1.0
 40
1.0
 40
1.0
 10
5.941558441558442
 20
-24.45413961038961
 30
0.0
 10
5.938235109494957
 20
-24.67746619943985
 30
0.0
 10
5.931774190869072
 20
-25.11163735395786
 30
0.0
 10
5.876624394483065
 20
-25.74315103620431
 30
0.0
 10
5.785314529833268
 20
-26.3347632700565
 30
0.0
 10
5.663092384232917
 20
-26.88853750961461
 30
0.0
 10
5.498438018345369
 20
-27.40192621425523
 30
0.0
 10
5.296772947450647
 20
-27.87514857773894
 30
0.0
 10
5.063774289576501
 20
-28.31245506247728
 30
0.0
 10
4.787861517227187
 20
-28.70155429374775
 30
0.0
 10
4.49525205906285
 20
-29.0527345040392
 30
0.0
 10
4.181741109542141
 20
-29.35481172588512
 30
0.0
 10
3.861609038784572
 20
-29.61607855748839
 30
0.0
 10
3.523467177861678
 20
-29.82616388474564
 30
0.0
 10
3.174649867469916
 20
-29.9915869738
 30
0.0
 10
2.811188549295506
 20
-30.10758464665603
 30
0.0
 10
2.43596546240477
 20
-30.18072538094087
 30
0.0
 10
2.180733259126098
 20
-30.19007346764277
 30
0.0
 10
2.051542207792211
 20
-30.1948051948052
 30
0.0
  0
SPLINE
  5
91
330
1F
100
AcDbEntity
  8
0
  6
Continuous
 62
     7
370
    25
100
AcDbSpline
210
0.0
220
0.0
230
1.0
 70
     8
 71
     3
 72
    15
 73
    11
 74
     0
 42
0.000000001
 43
0.00000001
 40
0.0
 40
0.0
 40
0.0
 40
0.0
 40
0.1207503094016919
 40
0.2382337202471558
 40
0.3572592073767391
 40
0.4788393933544907
 40
0.6036247644911508
 40
0.7304735899037186
 40
0.8618370107218347
 40
1.0
 40
1.0
 40
1.0
 40
1.0
 10
2.051542207792211
 20
-30.1948051948052
 30
0.0
 10
1.936578863123507
 20
-30.18976429461243
 30
0.0
 10
1.709762506062499
 20
-30.17981887573718
 30
0.0
 10
1.375095144500235
 20
-30.11103848666372
 30
0.0
 10
1.053860225490647
 20
-29.99396071250981
 30
0.0
 10
0.7453199720992516
 20
-29.83123444790716
 30
0.0
 10
0.453809781832031
 20
-29.6267053558475
 30
0.0
 10
0.1806344232516358
 20
-29.3841898285659
 30
0.0
 10
-0.0711498257778266
 20
-29.10174175523745
 30
0.0
 10
-0.2172928459458076
 20
-28.89066725776095
 30
0.0
 10
-0.2922077922077881
 20
-28.78246753246754
 30
0.0
  0
SPLINE
  5
92
330
1F
100
AcDbEntity
  8
0
  6
Continuous
 62
     7
370
    25
100
AcDbSpline
210
0.0
220
0.0
230
1.0
 70
     8
 71
     3
 72
    23
 73
    19
 74
     0
 42
0.000000001
 43
0.00000001
 40
0.0
 40
0.0
 40
0.0
 40
0.0
 40
0.0946171791080915
 40
0.183687998371977
 40
0.2673423192650708
 40
0.3451199086331384
 40
0.4179131261566893
 40
0.4859235696282104
 40
0.5491582703543155
 40
0.6081407685528283
 40
0.6632543324827667
 40
0.714592946793615
 40
0.7632116109258693
 40
0.8100106062874749
 40
0.8561688043370042
 40
0.902455012177248
 40
0.9500755117454136
 40
1.0
 40
1.0
 40
1.0
 40
1.0
 10
29.7077922077922
 20
-22.50608766233767
 30
0.0
 10
29.70534745416668
 20
-22.8105444166611
 30
0.0
 10
29.70060125581012
 20
-23.40161098955702
 30
0.0
 10
29.65044174353839
 20
-24.26064651722291
 30
0.0
 10
29.57315292534111
 20
-25.06309835402433
 30
0.0
 10
29.46518450222429
 20
-25.80932856086826
 30
0.0
 10
29.32235703473399
 20
-26.49840109485683
 30
0.0
 10
29.15033324853373
 20
-27.13236052786899
 30
0.0
 10
28.94833150615704
 20
-27.71092614419711
 30
0.0
 10
28.71039311836645
 20
-28.23027473937469
 30
0.0
 10
28.4452198061486
 20
-28.69316788178823
 30
0.0
 10
28.14347627708986
 20
-29.09179153582951
 30
0.0
 10
27.81841700926637
 20
-29.43650952411111
 30
0.0
 10
27.45346174009108
 20
-29.712022881893
 30
0.0
 10
27.06151646384853
 20
-29.93263528016929
 30
0.0
 10
26.63528279348007
 20
-30.08422200266025
 30
0.0
 10
26.18008271562648
 20
-30.17856783020865
 30
0.0
 10
25.8659370667855
 20
-30.1893081784758
 30
0.0
 10
25.70515422077921
 20
-30.1948051948052
 30
0.0
  0
SPLINE
  5
93
330
1F
100
AcDbEntity
  8
0
  6
Continuous
 62
     7
370
    25
100
AcDbSpline
210
0.0
220
0.0
230
1.0
 70
     8
 71
     3
 72
    23
 73
    19
 74
     0
 42
0.000000001
 43
0.00000001
 40
0.0
 40
0.0
 40
0.0
 40
0.0
 40
0.0446114007021409
 40
0.0877110336440138
 40
0.1305519678448837
 40
0.1734812435493588
 40
0.2172750310008207
 40
0.2633226479506827
 40
0.311858929912719
 40
0.3634664861580826
 40
0.4194362964783538
 40
0.4808868625215608
 40
0.5492072408141093
 40
0.6242104105436924
 40
0.706384399913741
 40
0.7964922683424533
 40
0.894206670097612
 40
1.0
 40
1.0
 40
1.0
 40
1.0
 10
25.70515422077921
 20
-30.1948051948052
 30
0.0
 10
25.5617483598443
 20
-30.18942263810163
 30
0.0
 10
25.27979630061188
 20
-30.17883992595436
 30
0.0
 10
24.86609844648559
 20
-30.09837768931531
 30
0.0
 10
24.47455600080992
 20
-29.95964589710299
 30
0.0
 10
24.10310068712816
 20
-29.7690500346342
 30
0.0
 10
23.75123869409205
 20
-29.52537489136301
 30
0.0
 10
23.42326913842805
 20
-29.22348771868211
 30
0.0
 10
23.11126817018871
 20
-28.87133522004549
 30
0.0
 10
22.81898824067657
 20
-28.46242508348281
 30
0.0
 10
22.55486884796684
 20
-27.9862462428168
 30
0.0
 10
22.33160315261608
 20
-27.43146483476935
 30
0.0
 10
22.14138762285554
 20
-26.80073085821014
 30
0.0
 10
21.9904423970339
 20
-26.09149789310242
 30
0.0
 10
21.86339187589126
 20
-25.306664779463
 30
0.0
 10
21.78354550555925
 20
-24.44229504028366
 30
0.0
 10
21.73062237967833
 20
-23.50005665111945
 30
0.0
 10
21.7241459746838
 20
-22.84606479857054
 30
0.0
 10
21.72077922077923
 20
-22.50608766233767
 30
0.0
  0
SPLINE
  5
94
330
1F
100
AcDbEntity
  8
0
  6
Continuous
 62
     7
370
    25
100
AcDbSpline
210
0.0
220
0.0
230
1.0
 70
     8
 71
     3
 72
    23
 73
    19
 74
     0
 42
0.000000001
 43
0.00000001
 40
0.0
 40
0.0
 40
0.0
 40
0.0
 40
0.095143488071645
 40
0.1847457720530777
 40
0.2683084903083871
 40
0.3466242220093582
 40
0.4193377299534536
 40
0.4872737010492222
 40
0.5502487944465249
 40
0.6091667059941577
 40
0.6639479924279682
 40
0.7154822751577653
 40
0.7640415713753501
 40
0.810981021819155
 40
0.8569367060899883
 40
0.9028761937633789
 40
0.9504445482262296
 40
1.0
 40
1.0
 40
1.0
 40
1.0
 10
21.72077922077922
 20
-22.50608766233767
 30
0.0
 10
21.7232539736469
 20
-22.19960558245708
 30
0.0
 10
21.72805934854376
 20
-21.60449109153852
 30
0.0
 10
21.77772186549854
 20
-20.74134490348478
 30
0.0
 10
21.85605435582122
 20
-19.93497460147912
 30
0.0
 10
21.96257596935223
 20
-19.18646143969276
 30
0.0
 10
22.1067404276741
 20
-18.49569304164667
 30
0.0
 10
22.27650847983787
 20
-17.86156117024432
 30
0.0
 10
22.48501750359959
 20
-17.28608243259148
 30
0.0
 10
22.7197072856397
 20
-16.76678920564481
 30
0.0
 10
22.98884249518289
 20
-16.30658107693706
 30
0.0
 10
23.2855526760033
 20
-15.90387662113553
 30
0.0
 10
23.61863934263049
 20
-15.56521172040379
 30
0.0
 10
23.97891801945378
 20
-15.28359866819248
 30
0.0
 10
24.373555989356
 20
-15.06905881667389
 30
0.0
 10
24.79693629945628
 20
-14.91487339052382
 30
0.0
 10
25.2506240524164
 20
-14.82183161880941
 30
0.0
 10
25.56368447715258
 20
-14.81081553730057
 30
0.0
 10
25.72341720779221
 20
-14.80519480519481
 30
0.0
  0
SPLINE
  5
95
330
1F
100
AcDbEntity
  8
0
  6
Continuous
 62
     7
370
    25
100
AcDbSpline
210
0.0
220
0.0
230
1.0
 70
     8
 71
     3
 72
    15
 73
    11
 74
     0
 42
0.000000001
 43
0.00000001
 40
0.0
 40
0.0
 40
0.0
 40
0.0
 40
0.1280448550143807
 40
0.2514507875593882
 40
0.3715733394035899
 40
0.4904118675290065
 40
0.6102007835889295
 40
0.7338092424176939
 40
0.8631756517415544
 40
1.0
 40
1.0
 40
1.0
 40
1.0
 10
25.72341720779221
 20
-14.80519480519481
 30
0.0
 10
25.86576458430342
 20
-14.80976121736493
 30
0.0
 10
26.14530225043407
 20
-14.81872860567872
 30
0.0
 10
26.55321841590198
 20
-14.89267873117541
 30
0.0
 10
26.93688992510342
 20
-15.01848520353872
 30
0.0
 10
27.29660657758419
 20
-15.19331872238157
 30
0.0
 10
27.63127569249476
 20
-15.41904452991268
 30
0.0
 10
27.9441899897941
 20
-15.6919751987947
 30
0.0
 10
28.23192043713041
 20
-16.01761358526127
 30
0.0
 10
28.39853219532652
 20
-16.26224457274994
 30
0.0
 10
28.48417207792208
 20
-16.38798701298701
 30
0.0
  0
SPLINE
  5
96
330
1F
100
AcDbEntity
  8
0
  6
Continuous
 62
     7
370
    25
100
AcDbSpline
210
0.0
220
0.0
230
1.0
 70
     8
 71
     3
 72
    15
 73
    11
 74
     0
 42
0.000000001
 43
0.00000001
 40
0.0
 40
0.0
 40
0.0
 40
0.0
 40
0.0932183940606959
 40
0.1938574851185509
 40
0.3031616225397823
 40
0.4216003745329103
 40
0.550535984333694
 40
0.6892597431086406
 40
0.8389726057502739
 40
1.0
 40
1.0
 40
1.0
 40
1.0
 10
28.48417207792208
 20
-16.38798701298701
 30
0.0
 10
28.58330268629418
 20
-16.55751629967127
 30
0.0
 10
28.78945524482006
 20
-16.91007033690511
 30
0.0
 10
29.03561140203597
 20
-17.50076688334575
 30
0.0
 10
29.24309833391204
 20
-18.16052533297238
 30
0.0
 10
29.41804288147518
 20
-18.89144544613018
 30
0.0
 10
29.54283482827529
 20
-19.6950343285803
 30
0.0
 10
29.64160000375509
 20
-20.56816611537821
 30
0.0
 10
29.69876044352224
 20
-21.5130354970651
 30
0.0
 10
29.70470941595103
 20
-22.16713139405367
 30
0.0
 10
29.70779220779221
 20
-22.50608766233767
 30
0.0
  0
LINE
  5
97
330
1F
100
AcDbEntity
  8
0
  6
Continuous
 62
     7
370
    25
100
AcDbLine
 10
3.6432962291
 20
22.4811688312
 30
0.0
 11
3.6432962291
 21
13.65
 31
0.0
  0
LINE
  5
98
330
1F
100
AcDbEntity
  8
0
  6
Continuous
 62
     7
370
    25
100
AcDbLine
 10
3.6432962291
 20
13.65
 30
0.0
 11
1.5653741512
 21
13.65
 31
0.0
  0
LINE
  5
99
330
1F
100
AcDbEntity
  8
0
  6
Continuous
 62
     7
370
    25
100
AcDbLine
 10
1.5653741512
 20
13.65
 30
0.0
 11
1.5653741512
 21
33.65
 31
0.0
  0
LINE
  5
9A
330
1F
100
AcDbEntity
  8
0
  6
Continuous
 62
     7
370
    25
100
AcDbLine
 10
1.5653741512
 20
33.65
 30
0.0
 11
8.911153372
 21
33.65
 31
0.0
  0
SPLINE
  5
9B
330
1F
100
AcDbEntity
  8
0
  6
Continuous
 62
     7
370
    25
100
AcDbSpline
210
0.0
220
0.0
230
1.0
 70
     8
 71
     3
 72
    23
 73
    19
 74
     0
 42
0.000000001
 43
0.00000001
 40
0.0
 40
0.0
 40
0.0
 40
0.0
 40
0.0598609936379482
 40
0.1158671165279423
 40
0.1680792687792391
 40
0.2165824858909787
 40
0.261137209204797
 40
0.3018318156731616
 40
0.3396882070890447
 40
0.3742912845662856
 40
0.440840017736901
 40
0.5092318808461295
 40
0.5812864512800455
 40
0.6587660577612424
 40
0.739723775322845
 40
0.8226648145287253
 40
0.9089988496539146
 40
1.0
 40
1.0
 40
1.0
 40
1.0
 10
8.911153372000838
 20
33.65000000000001
 30
0.0
 10
9.096532359324074
 20
33.64893293638261
 30
0.0
 10
9.455352476075305
 20
33.64686752488529
 30
0.0
 10
9.975155386501852
 20
33.61715541050665
 30
0.0
 10
10.45849084174182
 20
33.57317209781723
 30
0.0
 10
10.90471490476683
 20
33.51469143299932
 30
0.0
 10
11.31122264594694
 20
33.433614102719
 30
0.0
 10
11.67962614740001
 20
33.33526148749181
 30
0.0
 10
12.01292253136232
 20
33.22547939697622
 30
0.0
 10
12.40419988254284
 20
33.04439284449515
 30
0.0
 10
12.85059776255769
 20
32.76350965837016
 30
0.0
 10
13.33203755464209
 20
32.33556993520873
 30
0.0
 10
13.7537395609503
 20
31.80562181529754
 30
0.0
 10
14.12899180456225
 20
31.19673235685259
 30
0.0
 10
14.43716054996603
 20
30.51309364667022
 30
0.0
 10
14.65545024480162
 20
29.76754411278354
 30
0.0
 10
14.78722743790652
 20
28.96987934067317
 30
0.0
 10
14.8036830514316
 20
28.42053656510197
 30
0.0
 10
14.81212739797486
 20
28.13863636363638
 30
0.0
  0
SPLINE
  5
9C
330
1F
100
AcDbEntity
  8
0
  6
Continuous
 62
     7
370
    25
100
AcDbSpline
210
0.0
220
0.0
230
1.0
 70
     8
 71
     3
 72
    23
 73
    19
 74
     0
 42
0.000000001
 43
0.00000001
 40
0.0
 40
0.0
 40
0.0
 40
0.0
 40
0.0701236234499125
 40
0.1369733555217983
 40
0.2015150597657513
 40
0.2632467574599994
 40
0.3238124276344255
 40
0.3826328446964374
 40
0.4409844955602715
 40
0.4989770832114422
 40
0.5571871466033759
 40
0.6151330261203011
 40
0.6744598101027548
 40
0.734991409157025
 40
0.7972368618760837
 40
0.8619680694532716
 40
0.9294894821277845
 40
1.0
 40
1.0
 40
1.0
 40
1.0
 10
14.81212739797486
 20
28.13863636363637
 30
0.0
 10
14.80771223962416
 20
27.95182831959261
 30
0.0
 10
14.79908805529509
 20
27.58693381796413
 30
0.0
 10
14.74684504429029
 20
27.05211766781018
 30
0.0
 10
14.65605875285809
 20
26.54481644737348
 30
0.0
 10
14.51721670350098
 20
26.06634283742763
 30
0.0
 10
14.35619396760175
 20
25.6107510011902
 30
0.0
 10
14.14475038852514
 20
25.18602719167428
 30
0.0
 10
13.90215917187482
 20
24.78668611587769
 30
0.0
 10
13.62019933189564
 20
24.4159018682504
 30
0.0
 10
13.30481689760567
 20
24.07450127069659
 30
0.0
 10
12.95086583761093
 20
23.76785071768476
 30
0.0
 10
12.56522839250004
 20
23.49159588786024
 30
0.0
 10
12.14489765174414
 20
23.24816244626938
 30
0.0
 10
11.69247500462363
 20
23.0344343969133
 30
0.0
 10
11.20260891991396
 20
22.8638884761878
 30
0.0
 10
10.68293406629496
 20
22.71453695197462
 30
0.0
 10
10.32145579524327
 20
22.64603278121771
 30
0.0
 10
10.13680272265019
 20
22.61103896103897
 30
0.0
  0
SPLINE
  5
9D
330
1F
100
AcDbEntity
  8
0
  6
Continuous
 62
     7
370
    25
100
AcDbSpline
210
0.0
220
0.0
230
1.0
 70
     8
 71
     3
 72
    11
 73
     7
 74
     0
 42
0.000000001
 43
0.00000001
 40
0.0
 40
0.0
 40
0.0
 40
0.0
 40
0.2897107715616236
 40
0.551496870395147
 40
0.7881429015460665
 40
1.0
 40
1.0
 40
1.0
 40
1.0
 10
10.13680272265019
 20
22.61103896103898
 30
0.0
 10
10.27309546750362
 20
22.53563148907621
 30
0.0
 10
10.53254395759278
 20
22.39208492859554
 30
0.0
 10
10.88760868408749
 20
22.16048629519155
 30
0.0
 10
11.19105224871446
 20
21.92737085653908
 30
0.0
 10
11.36259170208026
 20
21.75772984694291
 30
0.0
 10
11.44362090446837
 20
21.67759740259742
 30
0.0
  0
SPLINE
  5
9E
330
1F
100
AcDbEntity
  8
0
  6
Continuous
 62
     7
370
    25
100
AcDbSpline
210
0.0
220
0.0
230
1.0
 70
     8
 71
     3
 72
    11
 73
     7
 74
     0
 42
0.000000001
 43
0.00000001
 40
0.0
 40
0.0
 40
0.0
 40
0.0
 40
0.2455632980715668
 40
0.4938879426857754
 40
0.7446127763470712
 40
1.0
 40
1.0
 40
1.0
 40
1.0
 10
11.44362090446837
 20
21.67759740259741
 30
0.0
 10
11.6056904410091
 20
21.48197296387754
 30
0.0
 10
11.93165197761794
 20
21.08852429977686
 30
0.0
 10
12.37849338050333
 20
20.46082628749387
 30
0.0
 10
12.80650857804026
 20
19.80784477855893
 30
0.0
 10
13.05785925304358
 20
19.34850594803501
 30
0.0
 10
13.18469233303979
 20
19.11672077922079
 30
0.0
  0
LINE
  5
9F
330
1F
100
AcDbEntity
  8
0
  6
Continuous
 62
     7
370
    25
100
AcDbLine
 10
13.184692333
 20
19.1167207792
 30
0.0
 11
16.1108286967
 21
13.65
 31
0.0
  0
LINE
  5
A0
330
1F
100
AcDbEntity
  8
0
  6
Continuous
 62
     7
370
    25
100
AcDbLine
 10
16.1108286967
 20
13.65
 30
0.0
 11
13.7488157097
 21
13.65
 31
0.0
  0
LINE
  5
A1
330
1F
100
AcDbEntity
  8
0
  6
Continuous
 62
     7
370
    25
100
AcDbLine
 10
13.7488157097
 20
13.65
 30
0.0
 11
11.4395624629
 21
17.9275974026
 31
0.0
  0
SPLINE
  5
A2
330
1F
100
AcDbEntity
  8
0
  6
Continuous
 62
     7
370
    25
100
AcDbSpline
210
0.0
220
0.0
230
1.0
 70
     8
 71
     3
 72
    23
 73
    19
 74
     0
 42
0.000000001
 43
0.00000001
 40
0.0
 40
0.0
 40
0.0
 40
0.0
 40
0.0927277103481993
 40
0.1773659725042954
 40
0.2544135557629456
 40
0.3238894125009971
 40
0.3853541434803699
 40
0.438552763695876
 40
0.4846307136451056
 40
0.5229519005197008
 40
0.5888276775318514
 40
0.648611212932054
 40
0.7025752386725427
 40
0.7518733886750961
 40
0.8022474387033116
 40
0.8601858746829152
 40
0.9255593853999947
 40
0.9999999999999999
 40
0.9999999999999999
 40
0.9999999999999999
 40
0.9999999999999999
 10
11.43956246290993
 20
17.92759740259741
 30
0.0
 10
11.33198697614862
 20
18.12816831516597
 30
0.0
 10
11.12622075205667
 20
18.51181258752223
 30
0.0
 10
10.82084232160516
 20
19.05653088445703
 30
0.0
 10
10.53697169270082
 20
19.54778608662965
 30
0.0
 10
10.2750882606887
 20
19.98605731153262
 30
0.0
 10
10.03131101027758
 20
20.36669495620497
 30
0.0
 10
9.812363540914065
 20
20.6949295261203
 30
0.0
 10
9.61184834949257
 20
20.96702309606153
 30
0.0
 10
9.371863406517678
 20
21.24736164659725
 30
0.0
 10
9.092919900388575
 20
21.53796122875259
 30
0.0
 10
8.761323901678846
 20
21.82981429463063
 30
0.0
 10
8.430113032820007
 20
22.05606472095112
 30
0.0
 10
8.09289497726793
 20
22.22836173884406
 30
0.0
 10
7.721690323072044
 20
22.34186591441799
 30
0.0
 10
7.303415733354969
 20
22.42682524918348
 30
0.0
 10
6.819361517848208
 20
22.47303670292505
 30
0.0
 10
6.476178159897346
 20
22.47834340651449
 30
0.0
 10
6.293458566806034
 20
22.48116883116884
 30
0.0
  0
LINE
  5
A3
330
1F
100
AcDbEntity
  8
0
  6
Continuous
 62
     7
370
    25
100
AcDbLine
 10
6.2934585668
 20
22.4811688312
 30
0.0
 11
3.6432962291
 21
22.4811688312
 31
0.0
  0
LINE
  5
A4
330
1F
100
AcDbEntity
  8
0
  6
Continuous
 62
     7
370
    25
100
AcDbLine
 10
-155.0
 20
68.0784271247
 30
0.0
 11
-155.0
 21
75.0
 31
0.0
  0
ARC
  5
A5
330
1F
100
AcDbEntity
  8
0
  6
Continuous
 62
     7
370
    25
100
AcDbCircle
 10
-160.0
 20
75.0
 30
0.0
 40
5.0
100
AcDbArc
 50
0.0
 51
90.0
  0
LINE
  5
A6
330
1F
100
AcDbEntity
  8
0
  6
Continuous
 62
     7
370
    25
100
AcDbLine
 10
-160.0
 20
80.0
 30
0.0
 11
-187.7
 21
80.0
 31
0.0
  0
ARC
  5
A7
330
1F
100
AcDbEntity
  8
0
  6
Continuous
 62
     7
370
    25
100
AcDbCircle
 10
-187.7
 20
75.0
 30
0.0
 40
5.0
100
AcDbArc
 50
90.0
 51
180.0
  0
LINE
  5
A8
330
1F
100
AcDbEntity
  8
0
  6
Continuous
 62
     7
370
    25
100
AcDbLine
 10
-192.7
 20
-75.0
 30
0.0
 11
-192.7
 21
75.0
 31
0.0
  0
ARC
  5
A9
330
1F
100
AcDbEntity
  8
0
  6
Continuous
 62
     7
370
    25
100
AcDbCircle
 10
-187.7
 20
-75.0
 30
0.0
 40
5.0
100
AcDbArc
 50
180.0
 51
270.0
  0
LINE
  5
AA
330
1F
100
AcDbEntity
  8
0
  6
Continuous
 62
     7
370
    25
100
AcDbLine
 10
-187.7
 20
-80.0
 30
0.0
 11
-155.0
 21
-80.0
 31
0.0
  0
LINE
  5
AB
330
1F
100
AcDbEntity
  8
0
  6
Continuous
 62
     7
370
    25
100
AcDbLine
 10
-155.0
 20
-80.0
 30
0.0
 11
-155.0
 21
-81.35
 31
0.0
  0
ARC
  5
AC
330
1F
100
AcDbEntity
  8
0
  6
Continuous
 62
     7
370
    25
100
AcDbCircle
 10
-150.0
 20
-81.35
 30
0.0
 40
5.0
100
AcDbArc
 50
180.0
 51
270.0
  0
LINE
  5
AD
330
1F
100
AcDbEntity
  8
0
  6
Continuous
 62
     7
370
    25
100
AcDbLine
 10
-150.0
 20
-86.35
 30
0.0
 11
-95.0
 21
-86.35
 31
0.0
  0
ARC
  5
AE
330
1F
100
AcDbEntity
  8
0
  6
Continuous
 62
     7
370
    25
100
AcDbCircle
 10
-95.0
 20
-81.35
 30
0.0
 40
5.0
100
AcDbArc
 50
270.0
 51
0.0
  0
LINE
  5
AF
330
1F
100
AcDbEntity
  8
0
  6
Continuous
 62
     7
370
    25
100
AcDbLine
 10
-90.0
 20
-81.35
 30
0.0
 11
-90.0
 21
-80.0
 31
0.0
  0
LINE
  5
B0
330
1F
100
AcDbEntity
  8
0
  6
Continuous
 62
     7
370
    25
100
AcDbLine
 10
-90.0
 20
-80.0
 30
0.0
 11
-32.5
 21
-80.0
 31
0.0
  0
LINE
  5
B1
330
1F
100
AcDbEntity
  8
0
  6
Continuous
 62
     7
370
    25
100
AcDbLine
 10
-32.5
 20
-80.0
 30
0.0
 11
-32.5
 21
-81.35
 31
0.0
  0
ARC
  5
B2
330
1F
100
AcDbEntity
  8
0
  6
Continuous
 62
     7
370
    25
100
AcDbCircle
 10
-27.5
 20
-81.35
 30
0.0
 40
5.0
100
AcDbArc
 50
180.0
 51
270.0
  0
LINE
  5
B3
330
1F
100
AcDbEntity
  8
0
  6
Continuous
 62
     7
370
    25
100
AcDbLine
 10
-27.5
 20
-86.35
 30
0.0
 11
27.5
 21
-86.35
 31
0.0
  0
ARC
  5
B4
330
1F
100
AcDbEntity
  8
0
  6
Continuous
 62
     7
370
    25
100
AcDbCircle
 10
27.5
 20
-81.35
 30
0.0
 40
5.000000000000004
100
AcDbArc
 50
270.0
 51
0.0
  0
LINE
  5
B5
330
1F
100
AcDbEntity
  8
0
  6
Continuous
 62
     7
370
    25
100
AcDbLine
 10
32.5
 20
-81.35
 30
0.0
 11
32.5
 21
-80.0
 31
0.0
  0
LINE
  5
B6
330
1F
100
AcDbEntity
  8
0
  6
Continuous
 62
     7
370
    25
100
AcDbLine
 10
32.5
 20
-80.0
 30
0.0
 11
90.0
 21
-80.0
 31
0.0
  0
LINE
  5
B7
330
1F
100
AcDbEntity
  8
0
  6
Continuous
 62
     7
370
    25
100
AcDbLine
 10
90.0
 20
-80.0
 30
0.0
 11
90.0
 21
-81.35
 31
0.0
  0
ARC
  5
B8
330
1F
100
AcDbEntity
  8
0
  6
Continuous
 62
     7
370
    25
100
AcDbCircle
 10
95.0
 20
-81.35
 30
0.0
 40
5.0
100
AcDbArc
 50
180.0
 51
270.0
  0
LINE
  5
B9
330
1F
100
AcDbEntity
  8
0
  6
Continuous
 62
     7
370
    25
100
AcDbLine
 10
95.0
 20
-86.35
 30
0.0
 11
150.0
 21
-86.35
 31
0.0
  0
ARC
  5
BA
330
1F
100
AcDbEntity
  8
0
  6
Continuous
 62
     7
370
    25
100
AcDbCircle
 10
150.0
 20
-81.35
 30
0.0
 40
5.0
100
AcDbArc
 50
270.0
 51
0.0
  0
LINE
  5
BB
330
1F
100
AcDbEntity
  8
0
  6
Continuous
 62
     7
370
    25
100
AcDbLine
 10
155.0
 20
-81.35
 30
0.0
 11
155.0
 21
-80.0
 31
0.0
  0
LINE
  5
BC
330
1F
100
AcDbEntity
  8
0
  6
Continuous
 62
     7
370
    25
100
AcDbLine
 10
155.0
 20
-80.0
 30
0.0
 11
187.7
 21
-80.0
 31
0.0
  0
ARC
  5
BD
330
1F
100
AcDbEntity
  8
0
  6
Continuous
 62
     7
370
    25
100
AcDbCircle
 10
187.7
 20
-75.0
 30
0.0
 40
5.0
100
AcDbArc
 50
270.0
 51
0.0
  0
LINE
  5
BE
330
1F
100
AcDbEntity
  8
0
  6
Continuous
 62
     7
370
    25
100
AcDbLine
 10
192.7
 20
-75.0
 30
0.0
 11
192.7
 21
75.0
 31
0.0
  0
ARC
  5
BF
330
1F
100
AcDbEntity
  8
0
  6
Continuous
 62
     7
370
    25
100
AcDbCircle
 10
187.7
 20
75.0
 30
0.0
 40
5.0
100
AcDbArc
 50
0.0
 51
90.0
  0
LINE
  5
C0
330
1F
100
AcDbEntity
  8
0
  6
Continuous
 62
     7
370
    25
100
AcDbLine
 10
187.7
 20
80.0
 30
0.0
 11
160.0
 21
80.0
 31
0.0
  0
ARC
  5
C1
330
1F
100
AcDbEntity
  8
0
  6
Continuous
 62
     7
370
    25
100
AcDbCircle
 10
160.0
 20
75.0
 30
0.0
 40
5.0
100
AcDbArc
 50
90.0
 51
180.0
  0
LINE
  5
C2
330
1F
100
AcDbEntity
  8
0
  6
Continuous
 62
     7
370
    25
100
AcDbLine
 10
155.0
 20
75.0
 30
0.0
 11
155.0
 21
68.0784271247
 31
0.0
  0
ARC
  5
C3
330
1F
100
AcDbEntity
  8
0
  6
Continuous
 62
     7
370
    25
100
AcDbCircle
 10
156.0
 20
68.0784271247
 30
0.0
 40
1.0
100
AcDbArc
 50
180.0
 51
250.5287793655
  0
ARC
  5
C4
330
1F
100
AcDbEntity
  8
0
  6
Continuous
 62
     7
370
    25
100
AcDbCircle
 10
155.0
 20
65.25
 30
0.0
 40
2.000000000000002
100
AcDbArc
 50
199.4712206345
 51
70.5287793655
  0
ARC
  5
C5
330
1F
100
AcDbEntity
  8
0
  6
Continuous
 62
     7
370
    25
100
AcDbCircle
 10
152.1715728753
 20
64.25
 30
0.0
 40
1.0
100
AcDbArc
 50
19.4712206345
 51
90.0
  0
LINE
  5
C6
330
1F
100
AcDbEntity
  8
0
  6
Continuous
 62
     7
370
    25
100
AcDbLine
 10
152.1715728753
 20
65.25
 30
0.0
 11
92.8284271247
 21
65.25
 31
0.0
  0
ARC
  5
C7
330
1F
100
AcDbEntity
  8
0
  6
Continuous
 62
     7
370
    25
100
AcDbCircle
 10
92.8284271247
 20
64.25
 30
0.0
 40
1.000000000000006
100
AcDbArc
 50
90.0
 51
160.5287793655
  0
ARC
  5
C8
330
1F
100
AcDbEntity
  8
0
  6
Continuous
 62
     7
370
    25
100
AcDbCircle
 10
90.0
 20
65.25
 30
0.0
 40
1.999999999999994
100
AcDbArc
 50
109.4712206345
 51
340.5287793655
  0
ARC
  5
C9
330
1F
100
AcDbEntity
  8
0
  6
Continuous
 62
     7
370
    25
100
AcDbCircle
 10
89.0
 20
68.0784271247
 30
0.0
 40
1.000000000000001
100
AcDbArc
 50
289.4712206345
 51
0.0
  0
LINE
  5
CA
330
1F
100
AcDbEntity
  8
0
  6
Continuous
 62
     7
370
    25
100
AcDbLine
 10
90.0
 20
68.0784271247
 30
0.0
 11
90.0
 21
75.0
 31
0.0
  0
ARC
  5
CB
330
1F
100
AcDbEntity
  8
0
  6
Continuous
 62
     7
370
    25
100
AcDbCircle
 10
85.0
 20
75.0
 30
0.0
 40
5.000000000000028
100
AcDbArc
 50
0.0
 51
90.0
  0
LINE
  5
CC
330
1F
100
AcDbEntity
  8
0
  6
Continuous
 62
     7
370
    25
100
AcDbLine
 10
85.0
 20
80.0
 30
0.0
 11
37.5
 21
80.0
 31
0.0
  0
ARC
  5
CD
330
1F
100
AcDbEntity
  8
0
  6
Continuous
 62
     7
370
    25
100
AcDbCircle
 10
37.5
 20
75.0
 30
0.0
 40
5.0
100
AcDbArc
 50
90.0
 51
180.0
  0
LINE
  5
CE
330
1F
100
AcDbEntity
  8
0
  6
Continuous
 62
     7
370
    25
100
AcDbLine
 10
32.5
 20
75.0
 30
0.0
 11
32.5
 21
68.0784271247
 31
0.0
  0
ARC
  5
CF
330
1F
100
AcDbEntity
  8
0
  6
Continuous
 62
     7
370
    25
100
AcDbCircle
 10
33.5
 20
68.0784271247
 30
0.0
 40
1.000000000000001
100
AcDbArc
 50
180.0
 51
250.5287793655
  0
ARC
  5
D0
330
1F
100
AcDbEntity
  8
0
  6
Continuous
 62
     7
370
    25
100
AcDbCircle
 10
32.5
 20
65.25
 30
0.0
 40
1.999999999999994
100
AcDbArc
 50
199.4712206345
 51
70.5287793655
  0
ARC
  5
D1
330
1F
100
AcDbEntity
  8
0
  6
Continuous
 62
     7
370
    25
100
AcDbCircle
 10
29.6715728753
 20
64.25
 30
0.0
 40
1.000000000000002
100
AcDbArc
 50
19.4712206345
 51
90.0
  0
LINE
  5
D2
330
1F
100
AcDbEntity
  8
0
  6
Continuous
 62
     7
370
    25
100
AcDbLine
 10
29.6715728753
 20
65.25
 30
0.0
 11
-29.6715728753
 21
65.25
 31
0.0
  0
ARC
  5
D3
330
1F
100
AcDbEntity
  8
0
  6
Continuous
 62
     7
370
    25
100
AcDbCircle
 10
-29.6715728753
 20
64.25
 30
0.0
 40
1.000000000000006
100
AcDbArc
 50
90.0
 51
160.5287793655
  0
ARC
  5
D4
330
1F
100
AcDbEntity
  8
0
  6
Continuous
 62
     7
370
    25
100
AcDbCircle
 10
-32.5
 20
65.25
 30
0.0
 40
1.999999999999994
100
AcDbArc
 50
109.4712206345
 51
340.5287793655
  0
ARC
  5
D5
330
1F
100
AcDbEntity
  8
0
  6
Continuous
 62
     7
370
    25
100
AcDbCircle
 10
-33.5
 20
68.0784271247
 30
0.0
 40
1.000000000000001
100
AcDbArc
 50
289.4712206345
 51
0.0
  0
LINE
  5
D6
330
1F
100
AcDbEntity
  8
0
  6
Continuous
 62
     7
370
    25
100
AcDbLine
 10
-32.5
 20
68.0784271247
 30
0.0
 11
-32.5
 21
75.0
 31
0.0
  0
ARC
  5
D7
330
1F
100
AcDbEntity
  8
0
  6
Continuous
 62
     7
370
    25
100
AcDbCircle
 10
-37.5
 20
75.0
 30
0.0
 40
5.000000000000007
100
AcDbArc
 50
0.0
 51
90.0
  0
LINE
  5
D8
330
1F
100
AcDbEntity
  8
0
  6
Continuous
 62
     7
370
    25
100
AcDbLine
 10
-37.5
 20
80.0
 30
0.0
 11
-85.0
 21
80.0
 31
0.0
  0
ARC
  5
D9
330
1F
100
AcDbEntity
  8
0
  6
Continuous
 62
     7
370
    25
100
AcDbCircle
 10
-85.0
 20
75.0
 30
0.0
 40
5.000000000000014
100
AcDbArc
 50
90.0
 51
180.0
  0
LINE
  5
DA
330
1F
100
AcDbEntity
  8
0
  6
Continuous
 62
     7
370
    25
100
AcDbLine
 10
-90.0
 20
75.0
 30
0.0
 11
-90.0
 21
68.0784271247
 31
0.0
  0
ARC
  5
DB
330
1F
100
AcDbEntity
  8
0
  6
Continuous
 62
     7
370
    25
100
AcDbCircle
 10
-89.0
 20
68.0784271247
 30
0.0
 40
1.000000000000001
100
AcDbArc
 50
180.0
 51
250.5287793655
  0
ARC
  5
DC
330
1F
100
AcDbEntity
  8
0
  6
Continuous
 62
     7
370
    25
100
AcDbCircle
 10
-90.0
 20
65.25
 30
0.0
 40
1.999999999999994
100
AcDbArc
 50
199.4712206345
 51
70.5287793655
  0
ARC
  5
DD
330
1F
100
AcDbEntity
  8
0
  6
Continuous
 62
     7
370
    25
100
AcDbCircle
 10
-92.8284271247
 20
64.25
 30
0.0
 40
1.0
100
AcDbArc
 50
19.4712206345
 51
90.0
  0
LINE
  5
DE
330
1F
100
AcDbEntity
  8
0
  6
Continuous
 62
     7
370
    25
100
AcDbLine
 10
-92.8284271247
 20
65.25
 30
0.0
 11
-152.1715728753
 21
65.25
 31
0.0
  0
ARC
  5
DF
330
1F
100
AcDbEntity
  8
0
  6
Continuous
 62
     7
370
    25
100
AcDbCircle
 10
-152.1715728753
 20
64.25
 30
0.0
 40
1.0
100
AcDbArc
 50
90.0
 51
160.5287793655
  0
ARC
  5
E0
330
1F
100
AcDbEntity
  8
0
  6
Continuous
 62
     7
370
    25
100
AcDbCircle
 10
-155.0
 20
65.25
 30
0.0
 40
2.000000000000002
100
AcDbArc
 50
109.4712206345
 51
340.5287793655
  0
ARC
  5
E1
330
1F
100
AcDbEntity
  8
0
  6
Continuous
 62
     7
370
    25
100
AcDbCircle
 10
-156.0
 20
68.0784271247
 30
0.0
 40
1.0
100
AcDbArc
 50
289.4712206345
 51
0.0
  0
ARC
  5
E2
330
1F
100
AcDbEntity
  8
0
  6
Continuous
 62
     7
370
    25
100
AcDbCircle
 10
-186.35
 20
-15.0
 30
0.0
 40
2.000000000000006
100
AcDbArc
 50
109.4712206345
 51
340.5287793655
  0
ARC
  5
E3
330
1F
100
AcDbEntity
  8
0
  6
Continuous
 62
     7
370
    25
100
AcDbCircle
 10
-187.35
 20
-12.1715728753
 30
0.0
 40
1.000000000000006
100
AcDbArc
 50
289.4712206345
 51
0.0
  0
LINE
  5
E4
330
1F
100
AcDbEntity
  8
0
  6
Continuous
 62
     7
370
    25
100
AcDbLine
 10
-186.35
 20
12.1715728753
 30
0.0
 11
-186.35
 21
-12.1715728753
 31
0.0
  0
ARC
  5
E5
330
1F
100
AcDbEntity
  8
0
  6
Continuous
 62
     7
370
    25
100
AcDbCircle
 10
-187.35
 20
12.1715728753
 30
0.0
 40
1.000000000000006
100
AcDbArc
 50
0.0
 51
70.5287793655
  0
ARC
  5
E6
330
1F
100
AcDbEntity
  8
0
  6
Continuous
 62
     7
370
    25
100
AcDbCircle
 10
-186.35
 20
15.0
 30
0.0
 40
2.000000000000006
100
AcDbArc
 50
19.4712206345
 51
250.5287793655
  0
ARC
  5
E7
330
1F
100
AcDbEntity
  8
0
  6
Continuous
 62
     7
370
    25
100
AcDbCircle
 10
-183.5215728753
 20
16.0
 30
0.0
 40
1.0
100
AcDbArc
 50
199.4712206345
 51
270.0
  0
LINE
  5
E8
330
1F
100
AcDbEntity
  8
0
  6
Continuous
 62
     7
370
    25
100
AcDbLine
 10
-182.8284271247
 20
15.0
 30
0.0
 11
-183.5215728753
 21
15.0
 31
0.0
  0
ARC
  5
E9
330
1F
100
AcDbEntity
  8
0
  6
Continuous
 62
     7
370
    25
100
AcDbCircle
 10
-182.8284271247
 20
16.0
 30
0.0
 40
1.000000000000015
100
AcDbArc
 50
270.0
 51
340.5287793655
  0
ARC
  5
EA
330
1F
100
AcDbEntity
  8
0
  6
Continuous
 62
     7
370
    25
100
AcDbCircle
 10
-180.0
 20
15.0
 30
0.0
 40
2.0
100
AcDbArc
 50
289.4712206345
 51
160.5287793655
  0
ARC
  5
EB
330
1F
100
AcDbEntity
  8
0
  6
Continuous
 62
     7
370
    25
100
AcDbCircle
 10
-179.0
 20
12.1715728753
 30
0.0
 40
1.0
100
AcDbArc
 50
109.4712206345
 51
180.0
  0
LINE
  5
EC
330
1F
100
AcDbEntity
  8
0
  6
Continuous
 62
     7
370
    25
100
AcDbLine
 10
-180.0
 20
-12.1715728753
 30
0.0
 11
-180.0
 21
12.1715728753
 31
0.0
  0
ARC
  5
ED
330
1F
100
AcDbEntity
  8
0
  6
Continuous
 62
     7
370
    25
100
AcDbCircle
 10
-179.0
 20
-12.1715728753
 30
0.0
 40
1.0
100
AcDbArc
 50
180.0
 51
250.5287793655
  0
ARC
  5
EE
330
1F
100
AcDbEntity
  8
0
  6
Continuous
 62
     7
370
    25
100
AcDbCircle
 10
-180.0
 20
-15.0
 30
0.0
 40
2.0
100
AcDbArc
 50
199.4712206345
 51
70.5287793655
  0
ARC
  5
EF
330
1F
100
AcDbEntity
  8
0
  6
Continuous
 62
     7
370
    25
100
AcDbCircle
 10
-182.8284271247
 20
-16.0
 30
0.0
 40
1.000000000000015
100
AcDbArc
 50
19.4712206345
 51
90.0
  0
LINE
  5
F0
330
1F
100
AcDbEntity
  8
0
  6
Continuous
 62
     7
370
    25
100
AcDbLine
 10
-183.5215728753
 20
-15.0
 30
0.0
 11
-182.8284271247
 21
-15.0
 31
0.0
  0
ARC
  5
F1
330
1F
100
AcDbEntity
  8
0
  6
Continuous
 62
     7
370
    25
100
AcDbCircle
 10
-183.5215728753
 20
-16.0
 30
0.0
 40
1.0
100
AcDbArc
 50
90.0
 51
160.5287793655
  0
LINE
  5
F2
330
1F
100
AcDbEntity
  8
0
  6
Continuous
 62
     7
370
    25
100
AcDbLine
 10
182.8284271247
 20
-15.0
 30
0.0
 11
183.5215728753
 21
-15.0
 31
0.0
  0
ARC
  5
F3
330
1F
100
AcDbEntity
  8
0
  6
Continuous
 62
     7
370
    25
100
AcDbCircle
 10
182.8284271247
 20
-16.0
 30
0.0
 40
1.000000000000015
100
AcDbArc
 50
90.0
 51
160.5287793655
  0
ARC
  5
F4
330
1F
100
AcDbEntity
  8
0
  6
Continuous
 62
     7
370
    25
100
AcDbCircle
 10
180.0
 20
-15.0
 30
0.0
 40
2.0
100
AcDbArc
 50
109.4712206345
 51
340.5287793655
  0
ARC
  5
F5
330
1F
100
AcDbEntity
  8
0
  6
Continuous
 62
     7
370
    25
100
AcDbCircle
 10
179.0
 20
-12.1715728753
 30
0.0
 40
1.0
100
AcDbArc
 50
289.4712206345
 51
0.0
  0
LINE
  5
F6
330
1F
100
AcDbEntity
  8
0
  6
Continuous
 62
     7
370
    25
100
AcDbLine
 10
180.0
 20
12.1715728753
 30
0.0
 11
180.0
 21
-12.1715728753
 31
0.0
  0
ARC
  5
F7
330
1F
100
AcDbEntity
  8
0
  6
Continuous
 62
     7
370
    25
100
AcDbCircle
 10
179.0
 20
12.1715728753
 30
0.0
 40
1.0
100
AcDbArc
 50
0.0
 51
70.5287793655
  0
ARC
  5
F8
330
1F
100
AcDbEntity
  8
0
  6
Continuous
 62
     7
370
    25
100
AcDbCircle
 10
180.0
 20
15.0
 30
0.0
 40
2.0
100
AcDbArc
 50
19.4712206345
 51
250.5287793655
  0
ARC
  5
F9
330
1F
100
AcDbEntity
  8
0
  6
Continuous
 62
     7
370
    25
100
AcDbCircle
 10
182.8284271247
 20
16.0
 30
0.0
 40
1.000000000000015
100
AcDbArc
 50
199.4712206345
 51
270.0
  0
LINE
  5
FA
330
1F
100
AcDbEntity
  8
0
  6
Continuous
 62
     7
370
    25
100
AcDbLine
 10
183.5215728753
 20
15.0
 30
0.0
 11
182.8284271247
 21
15.0
 31
0.0
  0
ARC
  5
FB
330
1F
100
AcDbEntity
  8
0
  6
Continuous
 62
     7
370
    25
100
AcDbCircle
 10
183.5215728753
 20
16.0
 30
0.0
 40
1.0
100
AcDbArc
 50
270.0
 51
340.5287793655
  0
ARC
  5
FC
330
1F
100
AcDbEntity
  8
0
  6
Continuous
 62
     7
370
    25
100
AcDbCircle
 10
186.35
 20
15.0
 30
0.0
 40
2.000000000000006
100
AcDbArc
 50
289.4712206345
 51
160.5287793655
  0
ARC
  5
FD
330
1F
100
AcDbEntity
  8
0
  6
Continuous
 62
     7
370
    25
100
AcDbCircle
 10
187.35
 20
12.1715728753
 30
0.0
 40
1.000000000000006
100
AcDbArc
 50
109.4712206345
 51
180.0
  0
LINE
  5
FE
330
1F
100
AcDbEntity
  8
0
  6
Continuous
 62
     7
370
    25
100
AcDbLine
 10
186.35
 20
12.1715728753
 30
0.0
 11
186.35
 21
-12.1715728753
 31
0.0
  0
ARC
  5
FF
330
1F
100
AcDbEntity
  8
0
  6
Continuous
 62
     7
370
    25
100
AcDbCircle
 10
187.35
 20
-12.1715728753
 30
0.0
 40
1.000000000000006
100
AcDbArc
 50
180.0
 51
250.5287793655
  0
ARC
  5
100
330
1F
100
AcDbEntity
  8
0
  6
Continuous
 62
     7
370
    25
100
AcDbCircle
 10
186.35
 20
-15.0
 30
0.0
 40
2.000000000000006
100
AcDbArc
 50
199.4712206345
 51
70.5287793655
  0
ARC
  5
101
330
1F
100
AcDbEntity
  8
0
  6
Continuous
 62
     7
370
    25
100
AcDbCircle
 10
183.5215728753
 20
-16.0
 30
0.0
 40
1.0
100
AcDbArc
 50
19.4712206345
 51
90.0
  0
SPLINE
  5
102
330
1F
100
AcDbEntity
  8
0
  6
Continuous
 62
     7
370
    25
100
AcDbSpline
210
0.0
220
0.0
230
1.0
 70
     8
 71
     3
 72
    19
 73
    15
 74
     0
 42
0.000000001
 43
0.00000001
 40
0.0
 40
0.0
 40
0.0
 40
0.0
 40
0.0842734715608936
 40
0.1665166244253441
 40
0.2473877598069606
 40
0.3288365457123067
 40
0.409098326849618
 40
0.4877267016055333
 40
0.5657077880693255
 40
0.6449848608508594
 40
0.7265584459444182
 40
0.8120697979385854
 40
0.9027287756276003
 40
1.0
 40
1.0
 40
1.0
 40
1.0
 10
47.27965986550733
 20
19.21412337662338
 30
0.0
 10
47.27083299709885
 20
18.94285375936337
 30
0.0
 10
47.25339191742803
 20
18.40684995960707
 30
0.0
 10
47.09859258166681
 20
17.62282826285428
 30
0.0
 10
46.84566633533044
 20
16.87567963682146
 30
0.0
 10
46.491891110164
 20
16.17753267610604
 30
0.0
 10
46.05894704707094
 20
15.53476569712376
 30
0.0
 10
45.54946594705672
 20
14.96458392628822
 30
0.0
 10
44.96117455446591
 20
14.48093259760814
 30
0.0
 10
44.30233091646402
 20
14.08156720609413
 30
0.0
 10
43.5728881124796
 20
13.76469084785676
 30
0.0
 10
42.76970967013566
 20
13.55116470584077
 30
0.0
 10
41.89887819995648
 20
13.41292521739525
 30
0.0
 10
41.29402560755847
 20
13.39799006173648
 30
0.0
 10
40.98095856680603
 20
13.39025974025975
 30
0.0
  0
SPLINE
  5
103
330
1F
100
AcDbEntity
  8
0
  6
Continuous
 62
     7
370
    25
100
AcDbSpline
210
0.0
220
0.0
230
1.0
 70
     8
 71
     3
 72
    23
 73
    19
 74
     0
 42
0.000000001
 43
0.00000001
 40
0.0
 40
0.0
 40
0.0
 40
0.0
 40
0.0690622114285179
 40
0.1347658792836464
 40
0.1976107057024328
 40
0.258528210842582
 40
0.3181274252810148
 40
0.3770582660618972
 40
0.4356857915191236
 40
0.4947336263914083
 40
0.5540911070636514
 40
0.6133334186580055
 40
0.6729241889746489
 40
0.7340655047106263
 40
0.7962987887860591
 40
0.8612408916846036
 40
0.9289703310657814
 40
0.9999999999999999
 40
0.9999999999999999
 40
0.9999999999999999
 40
0.9999999999999999
 10
40.98095856680603
 20
13.39025974025975
 30
0.0
 10
40.73448891867297
 20
13.39542795600765
 30
0.0
 10
40.25353561352485
 20
13.40551305356225
 30
0.0
 10
39.55261503625244
 20
13.49235354217513
 30
0.0
 10
38.89071321745261
 20
13.63364789541605
 30
0.0
 10
38.26635589481194
 20
13.83276936737638
 30
0.0
 10
37.67860271126936
 20
14.08943920742228
 30
0.0
 10
37.12809747028019
 20
14.4024926382322
 30
0.0
 10
36.61757258062253
 20
14.77410549153999
 30
0.0
 10
36.15104789750493
 20
15.20167387070169
 30
0.0
 10
35.72915158257114
 20
15.67606722717911
 30
0.0
 10
35.35739406942515
 20
16.19332437596455
 30
0.0
 10
35.04293059666674
 20
16.75468920306496
 30
0.0
 10
34.78541043763192
 20
17.3555840961203
 30
0.0
 10
34.5759599521736
 20
17.99493200709102
 30
0.0
 10
34.42280023685581
 20
18.67417435823277
 30
0.0
 10
34.32489647837679
 20
19.39543502877768
 30
0.0
 10
34.30356585344115
 20
19.89022665091701
 30
0.0
 10
34.29264687849435
 20
20.1435064935065
 30
0.0
  0
LINE
  5
104
330
1F
100
AcDbEntity
  8
0
  6
Continuous
 62
     7
370
    25
100
AcDbLine
 10
34.2926468785
 20
20.1435064935
 30
0.0
 11
36.3705689564
 21
20.4032467532
 31
0.0
  0
SPLINE
  5
105
330
1F
100
AcDbEntity
  8
0
  6
Continuous
 62
     7
370
    25
100
AcDbSpline
210
0.0
220
0.0
230
1.0
 70
     8
 71
     3
 72
    19
 73
    15
 74
     0
 42
0.000000001
 43
0.00000001
 40
0.0
 40
0.0
 40
0.0
 40
0.0
 40
0.1067133849812
 40
0.2023827530813248
 40
0.2879881362754658
 40
0.3651321209974009
 40
0.4381553218526815
 40
0.5114419818683956
 40
0.5870934926508693
 40
0.6659855935524687
 40
0.7468394073744421
 40
0.8288800136248056
 40
0.9125295864996453
 40
1.0
 40
1.0
 40
1.0
 40
1.0
 10
36.37056895641643
 20
20.40324675324676
 30
0.0
 10
36.40082471447872
 20
20.13871046712645
 30
0.0
 10
36.45820499169781
 20
19.63701537157336
 30
0.0
 10
36.61535994584614
 20
18.93443463962445
 30
0.0
 10
36.82555519183268
 20
18.32403639457107
 30
0.0
 10
37.08523768861244
 20
17.79352367831926
 30
0.0
 10
37.41801788046737
 20
17.34382846566308
 30
0.0
 10
37.79813864029702
 20
16.93940277150619
 30
0.0
 10
38.24586634988667
 20
16.58657592455104
 30
0.0
 10
38.7470548514471
 20
16.2785559346246
 30
0.0
 10
39.29869362026821
 20
16.02995874193625
 30
0.0
 10
39.8905380688422
 20
15.8581851163498
 30
0.0
 10
40.51423365365039
 20
15.74824460129012
 30
0.0
 10
40.94125299101729
 20
15.73479634519275
 30
0.0
 10
41.15952999537746
 20
15.72792207792209
 30
0.0
  0
SPLINE
  5
106
330
1F
100
AcDbEntity
  8
0
  6
Continuous
 62
     7
370
    25
100
AcDbSpline
210
0.0
220
0.0
230
1.0
 70
     8
 71
     3
 72
    23
 73
    19
 74
     0
 42
0.000000001
 43
0.00000001
 40
0.0
 40
0.0
 40
0.0
 40
0.0
 40
0.0781252968918925
 40
0.1518301493922373
 40
0.2221520613979011
 40
0.2890233266244055
 40
0.3525976224640646
 40
0.4148420026739734
 40
0.4749348900295489
 40
0.5348433958080147
 40
0.5934135167521022
 40
0.6507869454438939
 40
0.707285999527178
 40
0.7634577572775831
 40
0.8197238077213156
 40
0.8778515259498437
 40
0.937478525171104
 40
1.0
 40
1.0
 40
1.0
 40
1.0
 10
41.15952999537746
 20
15.72792207792209
 30
0.0
 10
41.3152321932965
 20
15.73108622211246
 30
0.0
 10
41.61782672939742
 20
15.73723547855353
 30
0.0
 10
42.05843938857054
 20
15.78348665656149
 30
0.0
 10
42.47345109259369
 20
15.85315862912372
 30
0.0
 10
42.85895921103268
 20
15.96154787901138
 30
0.0
 10
43.222130384483
 20
16.08829782302578
 30
0.0
 10
43.5527408633907
 20
16.25728012282359
 30
0.0
 10
43.86212133817442
 20
16.44825455463373
 30
0.0
 10
44.14128653644764
 20
16.67059950177662
 30
0.0
 10
44.38744898061896
 20
16.9205079423659
 30
0.0
 10
44.61057821230361
 20
17.18278628523237
 30
0.0
 10
44.79199919497961
 20
17.46991654416073
 30
0.0
 10
44.94497872977213
 20
17.77057742562121
 30
0.0
 10
45.05716444063525
 20
18.09217066845826
 30
0.0
 10
45.1441787827742
 20
18.42829251994736
 30
0.0
 10
45.19268902104673
 20
18.78522388632833
 30
0.0
 10
45.19867425595597
 20
19.02864969481812
 30
0.0
 10
45.20173778758525
 20
19.15324675324676
 30
0.0
  0
SPLINE
  5
107
330
1F
100
AcDbEntity
  8
0
  6
Continuous
 62
     7
370
    25
100
AcDbSpline
210
0.0
220
0.0
230
1.0
 70
     8
 71
     3
 72
    23
 73
    19
 74
     0
 42
0.000000001
 43
0.00000001
 40
0.0
 40
0.0
 40
0.0
 40
0.0
 40
0.0628274913813593
 40
0.1223726895779752
 40
0.180383765861959
 40
0.2364891989894681
 40
0.2926289502320329
 40
0.3503980605968398
 40
0.410192679219795
 40
0.4734229773823769
 40
0.5102124852509644
 40
0.555279960198778
 40
0.6084730122619774
 40
0.6698570376582474
 40
0.7400379641843824
 40
0.8179174674906484
 40
0.9048122599055257
 40
1.0
 40
1.0
 40
1.0
 40
1.0
 10
45.20173778758525
 20
19.15324675324676
 30
0.0
 10
45.197270753094
 20
19.29695063256522
 30
0.0
 10
45.18857005514929
 20
19.57685087732027
 30
0.0
 10
45.11451274459171
 20
19.98431141561386
 30
0.0
 10
44.98824139752851
 20
20.36190830365427
 30
0.0
 10
44.81634080796919
 20
20.71253206749125
 30
0.0
 10
44.59432733625713
 20
21.03336699000042
 30
0.0
 10
44.32014771750104
 20
21.32284314433279
 30
0.0
 10
43.99435051825984
 20
21.57872536156687
 30
0.0
 10
43.68347741295838
 20
21.77278235473462
 30
0.0
 10
43.38316889176933
 20
21.91412561645684
 30
0.0
 10
43.09944356027935
 20
22.03596175359952
 30
0.0
 10
42.75774803444249
 20
22.16447866352236
 30
0.0
 10
42.35863594252945
 20
22.3028035550779
 30
0.0
 10
41.90198090996429
 20
22.44690827369113
 30
0.0
 10
41.38753128844952
 20
22.60131172261699
 30
0.0
 10
40.8170852485695
 20
22.76803814373029
 30
0.0
 10
40.41565363562756
 20
22.8781505488112
 30
0.0
 10
40.2057962291437
 20
22.9357142857143
 30
0.0
  0
SPLINE
  5
108
330
1F
100
AcDbEntity
  8
0
  6
Continuous
 62
     7
370
    25
100
AcDbSpline
210
0.0
220
0.0
230
1.0
 70
     8
 71
     3
 72
    23
 73
    19
 74
     0
 42
0.000000001
 43
0.00000001
 40
0.0
 40
0.0
 40
0.0
 40
0.0
 40
0.0696134502891498
 40
0.1341558467413841
 40
0.1941216639751308
 40
0.2492702399547629
 40
0.3003975238168693
 40
0.3464602541181234
 40
0.3882517207597307
 40
0.425902819190637
 40
0.4961060560373052
 40
0.5655345875935793
 40
0.6348462500707496
 40
0.7047585289073903
 40
0.7756659742820926
 40
0.8477253815784792
 40
0.9224175839219318
 40
1.0
 40
1.0
 40
1.0
 40
1.0
 10
40.20579622914369
 20
22.93571428571429
 30
0.0
 10
40.01746335327901
 20
22.9888524386309
 30
0.0
 10
39.6545168777643
 20
23.09125784834971
 30
0.0
 10
39.13404191728119
 20
23.25514634956699
 30
0.0
 10
38.65461076705646
 20
23.41423006077414
 30
0.0
 10
38.2191786180723
 20
23.58395482180844
 30
0.0
 10
37.82227693940738
 20
23.745143849516
 30
0.0
 10
37.47171932340405
 20
23.91812384685684
 30
0.0
 10
37.16213727066876
 20
24.08749966600138
 30
0.0
 10
36.80610371977767
 20
24.3121976459435
 30
0.0
 10
36.4172286770854
 20
24.6264589335434
 30
0.0
 10
36.00507503193893
 20
25.04638579443998
 30
0.0
 10
35.64503219364922
 20
25.51137040650639
 30
0.0
 10
35.3446410096198
 20
26.02137214279049
 30
0.0
 10
35.10100973548416
 20
26.57012884085317
 30
0.0
 10
34.93968455967432
 20
27.161648876021
 30
0.0
 10
34.82716641531063
 20
27.7839869987525
 30
0.0
 10
34.81720343710018
 20
28.21251391759927
 30
0.0
 10
34.81212739797486
 20
28.43084415584417
 30
0.0
  0
SPLINE
  5
109
330
1F
100
AcDbEntity
  8
0
  6
Continuous
 62
     7
370
    25
100
AcDbSpline
210
0.0
220
0.0
230
1.0
 70
     8
 71
     3
 72
    23
 73
    19
 74
     0
 42
0.000000001
 43
0.00000001
 40
0.0
 40
0.0
 40
0.0
 40
0.0
 40
0.065534212443047
 40
0.1288270559297158
 40
0.189954851202473
 40
0.2496480368191131
 40
0.3082483091336515
 40
0.3667963607881974
 40
0.4255009350642032
 40
0.4858920521208359
 40
0.5466819835686082
 40
0.6066869295489972
 40
0.6675221296550212
 40
0.7294256136805826
 40
0.7931375186351565
 40
0.8590270504025674
 40
0.9276974320877981
 40
1.0
 40
1.0
 40
1.0
 40
1.0
 10
34.81212739797486
 20
28.43084415584417
 30
0.0
 10
34.81660651374537
 20
28.62724758954338
 30
0.0
 10
34.82541155276807
 20
29.01333716313742
 30
0.0
 10
34.90057837025569
 20
29.57842902844359
 30
0.0
 10
35.01972317270623
 20
30.11797754784094
 30
0.0
 10
35.197510863216
 20
30.6262200027512
 30
0.0
 10
35.41502598549513
 20
31.11039478863603
 30
0.0
 10
35.69048741075333
 20
31.56078377348726
 30
0.0
 10
36.00901294174447
 20
31.98818015528628
 30
0.0
 10
36.37779209716663
 20
32.38242533792118
 30
0.0
 10
36.78397254733037
 20
32.74398949659671
 30
0.0
 10
37.23220084494584
 20
33.05475566117335
 30
0.0
 10
37.71301510441896
 20
33.31809924966371
 30
0.0
 10
38.22651583098078
 20
33.54060081578728
 30
0.0
 10
38.77742396207123
 20
33.70512788272178
 30
0.0
 10
39.36050271364917
 20
33.8209376415273
 30
0.0
 10
39.97653064573322
 20
33.8970399870901
 30
0.0
 10
40.39901431751225
 20
33.90543473824152
 30
0.0
 10
40.61569882654629
 20
33.90974025974027
 30
0.0
  0
SPLINE
  5
10A
330
1F
100
AcDbEntity
  8
0
  6
Continuous
 62
     7
370
    25
100
AcDbSpline
210
0.0
220
0.0
230
1.0
 70
     8
 71
     3
 72
    19
 73
    15
 74
     0
 42
0.000000001
 43
0.00000001
 40
0.0
 40
0.0
 40
0.0
 40
0.0
 40
0.0919148450095055
 40
0.1793500136985492
 40
0.2627602509497597
 40
0.3438245629315443
 40
0.4230536694981502
 40
0.5001537638566709
 40
0.5774020559630036
 40
0.6564709802344414
 40
0.7376500484536381
 40
0.8208783262149126
 40
0.9079232481193407
 40
1.0
 40
1.0
 40
1.0
 40
1.0
 10
40.61569882654629
 20
33.90974025974027
 30
0.0
 10
40.91111180704389
 20
33.90149302611817
 30
0.0
 10
41.4875401532321
 20
33.88540050631962
 30
0.0
 10
42.32368793032906
 20
33.75081231864692
 30
0.0
 10
43.10235938624403
 20
33.52280328339587
 30
0.0
 10
43.8205943464508
 20
33.20552470687697
 30
0.0
 10
44.47278517508742
 20
32.80498234306289
 30
0.0
 10
45.04774562643336
 20
32.3187471142067
 30
0.0
 10
45.5493456901756
 20
31.75769359938028
 30
0.0
 10
45.9666289627522
 20
31.11578508338683
 30
0.0
 10
46.30436253829067
 20
30.40769790140187
 30
0.0
 10
46.55167007257831
 20
29.6365654225749
 30
0.0
 10
46.71289951647037
 20
28.80652809181472
 30
0.0
 10
46.74412699201945
 20
28.2313712629321
 30
0.0
 10
46.76017934602682
 20
27.9357142857143
 30
0.0
  0
LINE
  5
10B
330
1F
100
AcDbEntity
  8
0
  6
Continuous
 62
     7
370
    25
100
AcDbLine
 10
46.760179346
 20
27.9357142857
 30
0.0
 11
44.6822572681
 21
27.675974026
 31
0.0
  0
SPLINE
  5
10C
330
1F
100
AcDbEntity
  8
0
  6
Continuous
 62
     7
370
    25
100
AcDbSpline
210
0.0
220
0.0
230
1.0
 70
     8
 71
     3
 72
    23
 73
    19
 74
     0
 42
0.000000001
 43
0.00000001
 40
0.0
 40
0.0
 40
0.0
 40
0.0
 40
0.0765728135290761
 40
0.1493228985313986
 40
0.2172186749416073
 40
0.2820872493082843
 40
0.3432655771108289
 40
0.4022310899227243
 40
0.4584773865507858
 40
0.5141512058041748
 40
0.5690726415643312
 40
0.6243527363272774
 40
0.681191367292802
 40
0.7394041584491243
 40
0.7998297883091676
 40
0.8628307336450742
 40
0.929645543955484
 40
0.9999999999999999
 40
0.9999999999999999
 40
0.9999999999999999
 40
0.9999999999999999
 10
44.68225726810473
 20
27.67597402597404
 30
0.0
 10
44.66701408936568
 20
27.83590938824888
 30
0.0
 10
44.63728871390607
 20
28.14779569321638
 30
0.0
 10
44.55515708863602
 20
28.59645995559711
 30
0.0
 10
44.45018251280302
 20
29.0147812615266
 30
0.0
 10
44.31857122072443
 20
29.4004724092531
 30
0.0
 10
44.15319358818277
 20
29.75210500107375
 30
0.0
 10
43.96906609381299
 20
30.07367866856064
 30
0.0
 10
43.75459800864714
 20
30.36187057707865
 30
0.0
 10
43.51531700368636
 20
30.61826275336707
 30
0.0
 10
43.24859657586453
 20
30.84278861850688
 30
0.0
 10
42.95800691138721
 20
31.03957881856231
 30
0.0
 10
42.64107735314637
 20
31.20626560212592
 30
0.0
 10
42.2972443916431
 20
31.33912056117482
 30
0.0
 10
41.93098295451853
 20
31.44601965878645
 30
0.0
 10
41.53783572637602
 20
31.51711502175178
 30
0.0
 10
41.12000998372815
 20
31.56253574388098
 30
0.0
 10
40.83227322724623
 20
31.56884294369201
 30
0.0
 10
40.68469233303981
 20
31.57207792207794
 30
0.0
  0
SPLINE
  5
10D
330
1F
100
AcDbEntity
  8
0
  6
Continuous
 62
     7
370
    25
100
AcDbSpline
210
0.0
220
0.0
230
1.0
 70
     8
 71
     3
 72
    23
 73
    19
 74
     0
 42
0.000000001
 43
0.00000001
 40
0.0
 40
0.0
 40
0.0
 40
0.0
 40
0.0804235931284727
 40
0.1554478660209137
 40
0.2274865779056504
 40
0.2949489652405904
 40
0.3597986509905197
 40
0.4210200219417493
 40
0.4819019994984986
 40
0.5406082872412762
 40
0.5984821386513653
 40
0.6551515363375454
 40
0.7102010032718241
 40
0.7655971895723558
 40
0.8217224591483823
 40
0.8791641554936602
 40
0.9383687171181124
 40
1.0
 40
1.0
 40
1.0
 40
1.0
 10
40.6846923330398
 20
31.57207792207793
 30
0.0
 10
40.53437060916846
 20
31.5707903940172
 30
0.0
 10
40.24381916420806
 20
31.56830177740985
 30
0.0
 10
39.82123262479104
 20
31.51921155055438
 30
0.0
 10
39.42552179095571
 20
31.45437936675914
 30
0.0
 10
39.05614958351392
 20
31.35565250165025
 30
0.0
 10
38.71629907258902
 20
31.23105676089815
 30
0.0
 10
38.40124216022599
 20
31.07892630993943
 30
0.0
 10
38.11525765804453
 20
30.89786331658152
 30
0.0
 10
37.85679692109509
 20
30.68909238807287
 30
0.0
 10
37.63044756181549
 20
30.45694883448729
 30
0.0
 10
37.43132289780296
 20
30.21006195823538
 30
0.0
 10
37.26103461175002
 20
29.94747731645173
 30
0.0
 10
37.12831181361872
 20
29.66523309021
 30
0.0
 10
37.02231658133648
 20
29.36752613361358
 30
0.0
 10
36.94441668189506
 20
29.05375651278276
 30
0.0
 10
36.90005029243525
 20
28.72296715894702
 30
0.0
 10
36.89342741669069
 20
28.49726188848938
 30
0.0
 10
36.89004947589694
 20
28.38214285714287
 30
0.0
  0
SPLINE
  5
10E
330
1F
100
AcDbEntity
  8
0
  6
Continuous
 62
     7
370
    25
100
AcDbSpline
210
0.0
220
0.0
230
1.0
 70
     8
 71
     3
 72
    11
 73
     7
 74
     0
 42
0.000000001
 43
0.00000001
 40
0.0
 40
0.0
 40
0.0
 40
0.0
 40
0.2837744943495256
 40
0.5395840214497851
 40
0.7756449623277236
 40
0.9999999999999999
 40
0.9999999999999999
 40
0.9999999999999999
 40
0.9999999999999999
 10
36.89004947589694
 20
28.38214285714287
 30
0.0
 10
36.89693464982808
 20
28.17579108496164
 30
0.0
 10
36.9100264882847
 20
27.78342277391216
 30
0.0
 10
37.0324216908466
 20
27.23068797647607
 30
0.0
 10
37.23614857715027
 20
26.74621094576777
 30
0.0
 10
37.44277301985251
 20
26.48177732540082
 30
0.0
 10
37.54345856680604
 20
26.35292207792209
 30
0.0
  0
SPLINE
  5
10F
330
1F
100
AcDbEntity
  8
0
  6
Continuous
 62
     7
370
    25
100
AcDbSpline
210
0.0
220
0.0
230
1.0
 70
     8
 71
     3
 72
    15
 73
    11
 74
     0
 42
0.000000001
 43
0.00000001
 40
0.0
 40
0.0
 40
0.0
 40
0.0
 40
0.0750156946076063
 40
0.1629301842777483
 40
0.2646744147797564
 40
0.3809699752964728
 40
0.5123091530377105
 40
0.6582210125869694
 40
0.8208323791787946
 40
0.9999999999999999
 40
0.9999999999999999
 40
0.9999999999999999
 40
0.9999999999999999
 10
37.54345856680604
 20
26.35292207792209
 30
0.0
 10
37.60527987499305
 20
26.29127495823254
 30
0.0
 10
37.73955253870547
 20
26.15738062287046
 30
0.0
 10
37.99815709556553
 20
25.9886878822565
 30
0.0
 10
38.30598533661022
 20
25.81121755180296
 30
0.0
 10
38.67903178393055
 20
25.65025809496208
 30
0.0
 10
39.10370073786105
 20
25.48148758452936
 30
0.0
 10
39.59071440824268
 20
25.32675727260549
 30
0.0
 10
40.13389598705712
 20
25.16666257525624
 30
0.0
 10
40.51922228469446
 20
25.07159148202017
 30
0.0
 10
40.72121830706577
 20
25.02175324675326
 30
0.0
  0
SPLINE
  5
110
330
1F
100
AcDbEntity
  8
0
  6
Continuous
 62
     7
370
    25
100
AcDbSpline
210
0.0
220
0.0
230
1.0
 70
     8
 71
     3
 72
    15
 73
    11
 74
     0
 42
0.000000001
 43
0.00000001
 40
0.0
 40
0.0
 40
0.0
 40
0.0
 40
0.1693237986142601
 40
0.3253554330119043
 40
0.4689155231524401
 40
0.6003115468851116
 40
0.7188463901177647
 40
0.8249851745593394
 40
0.9187577878191788
 40
1.0
 40
1.0
 40
1.0
 40
1.0
 10
40.72121830706577
 20
25.02175324675326
 30
0.0
 10
40.92025351828713
 20
24.97373619918737
 30
0.0
 10
41.30269938745323
 20
24.88147151205768
 30
0.0
 10
41.85115697915175
 20
24.73757259133846
 30
0.0
 10
42.35501316322635
 20
24.60456245621898
 30
0.0
 10
42.81351955899193
 20
24.4771761148752
 30
0.0
 10
43.22349243231173
 20
24.34537203547212
 30
0.0
 10
43.58855258343483
 20
24.22317465469553
 30
0.0
 10
43.91077596436847
 20
24.11405241625004
 30
0.0
 10
44.10505813221378
 20
24.02994972081281
 30
0.0
 10
44.19524428109174
 20
23.9909090909091
 30
0.0
  0
SPLINE
  5
111
330
1F
100
AcDbEntity
  8
0
  6
Continuous
 62
     7
370
    25
100
AcDbSpline
210
0.0
220
0.0
230
1.0
 70
     8
 71
     3
 72
    15
 73
    11
 74
     0
 42
0.000000001
 43
0.00000001
 40
0.0
 40
0.0
 40
0.0
 40
0.0
 40
0.1337850715093835
 40
0.2593853989987148
 40
0.3808217004101788
 40
0.4995309368699207
 40
0.6183575741441208
 40
0.7398956903217193
 40
0.8662956414442513
 40
1.0
 40
1.0
 40
1.0
 40
1.0
 10
44.19524428109174
 20
23.9909090909091
 30
0.0
 10
44.43854205098437
 20
23.87323013366445
 30
0.0
 10
44.9102530453958
 20
23.64507161841101
 30
0.0
 10
45.53906614970128
 20
23.19784337787191
 30
0.0
 10
46.07762583454386
 20
22.68966823544039
 30
0.0
 10
46.51586218073181
 20
22.10927721330091
 30
0.0
 10
46.861740024561
 20
21.46945601445761
 30
0.0
 10
47.10401574982563
 20
20.76767432456247
 30
0.0
 10
47.25394986235934
 20
20.00916119004246
 30
0.0
 10
47.27093090711548
 20
19.48405146466535
 30
0.0
 10
47.27965986550734
 20
19.21412337662339
 30
0.0
  0
SPLINE
  5
112
330
1F
100
AcDbEntity
  8
0
  6
Continuous
 62
     7
370
    25
100
AcDbSpline
210
0.0
220
0.0
230
1.0
 70
     8
 71
     3
 72
    23
 73
    19
 74
     0
 42
0.000000001
 43
0.00000001
 40
0.0
 40
0.0
 40
0.0
 40
0.0
 40
0.0621280992061751
 40
0.1205573281616573
 40
0.1748249361640535
 40
0.2264704235499123
 40
0.2753967991094181
 40
0.3224676261748322
 40
0.368781976299127
 40
0.4146329187039052
 40
0.4632979534939492
 40
0.517827891658037
 40
0.5787236217903386
 40
0.64735935731044
 40
0.7230991357350884
 40
0.8072644813691101
 40
0.8992044502266342
 40
0.9999999999999999
 40
0.9999999999999999
 40
0.9999999999999999
 40
0.9999999999999999
 10
24.42251700836447
 20
15.72792207792209
 30
0.0
 10
24.60938468304302
 20
15.73157324538188
 30
0.0
 10
24.97199464322008
 20
15.73865820370584
 30
0.0
 10
25.49489149058597
 20
15.79992502569545
 30
0.0
 10
25.97982806761394
 20
15.89933131133696
 30
0.0
 10
26.422533101416
 20
16.04664121881555
 30
0.0
 10
26.82840460277773
 20
16.22845476928548
 30
0.0
 10
27.19489389665346
 20
16.45247556038447
 30
0.0
 10
27.51550653112587
 20
16.72349516000098
 30
0.0
 10
27.80600956514316
 20
17.03368207125949
 30
0.0
 10
28.05193800131491
 20
17.41058813805177
 30
0.0
 10
28.26741500991613
 20
17.85587681773435
 30
0.0
 10
28.44175244772835
 20
18.38228136315052
 30
0.0
 10
28.59156265441182
 20
18.98157161628995
 30
0.0
 10
28.70220401739357
 20
19.66048523713555
 30
0.0
 10
28.78111134661536
 20
20.41386046360509
 30
0.0
 10
28.8299455938819
 20
21.24541078475071
 30
0.0
 10
28.83530079579076
 20
21.82498336950434
 30
0.0
 10
28.8381014239489
 20
22.12808441558443
 30
0.0
  0
LINE
  5
113
330
1F
100
AcDbEntity
  8
0
  6
Continuous
 62
     7
370
    25
100
AcDbLine
 10
28.8381014239
 20
22.1280844156
 30
0.0
 11
28.8381014239
 21
33.65
 31
0.0
  0
LINE
  5
114
330
1F
100
AcDbEntity
  8
0
  6
Continuous
 62
     7
370
    25
100
AcDbLine
 10
28.8381014239
 20
33.65
 30
0.0
 11
30.9160235019
 21
33.65
 31
0.0
  0
LINE
  5
115
330
1F
100
AcDbEntity
  8
0
  6
Continuous
 62
     7
370
    25
100
AcDbLine
 10
30.9160235019
 20
33.65
 30
0.0
 11
30.9160235019
 21
22.1402597403
 31
0.0
  0
SPLINE
  5
116
330
1F
100
AcDbEntity
  8
0
  6
Continuous
 62
     7
370
    25
100
AcDbSpline
210
0.0
220
0.0
230
1.0
 70
     8
 71
     3
 72
    31
 73
    27
 74
     0
 42
0.000000001
 43
0.00000001
 40
0.0
 40
0.0
 40
0.0
 40
0.0
 40
0.0570108317415161
 40
0.1114452163346844
 40
0.1636408057498247
 40
0.2130299370628592
 40
0.2600121251563481
 40
0.3046127134699305
 40
0.3472205777838493
 40
0.3872768920978371
 40
0.4257154910332098
 40
0.4631424634810378
 40
0.5000699445508644
 40
0.535979099102275
 40
0.5719554475896065
 40
0.6076802938861515
 40
0.6438322466897465
 40
0.680212103045327
 40
0.7171046865035757
 40
0.7541844584539763
 40
0.7920420170718333
 40
0.8306867076394793
 40
0.8708153089144155
 40
0.9119660717542751
 40
0.955095998746173
 40
1.0
 40
1.0
 40
1.0
 40
1.0
 10
30.91602350187096
 20
22.14025974025975
 30
0.0
 10
30.91506605479533
 20
21.90482653404306
 30
0.0
 10
30.91319442982138
 20
21.44459987539425
 30
0.0
 10
30.88101923530652
 20
20.76955898817549
 30
0.0
 10
30.84427047651107
 20
20.12632900373307
 30
0.0
 10
30.78326094790069
 20
19.51569930412892
 30
0.0
 10
30.70177763696123
 20
18.93920850697593
 30
0.0
 10
30.60454141029543
 20
18.39358516180007
 30
0.0
 10
30.49205725146102
 20
17.88013205942053
 30
0.0
 10
30.36310913990705
 20
17.39673116806047
 30
0.0
 10
30.20889465532587
 20
16.94313716700649
 30
0.0
 10
30.02518767359984
 20
16.51462792487822
 30
0.0
 10
29.81477779234776
 20
16.11053263151861
 30
0.0
 10
29.57943791161548
 20
15.72695175469456
 30
0.0
 10
29.30528204620093
 20
15.3763573276178
 30
0.0
 10
29.00733999767225
 20
15.04503633705515
 30
0.0
 10
28.68375981249441
 20
14.735728678022
 30
0.0
 10
28.32864074445908
 20
14.45551833289891
 30
0.0
 10
27.94871873356642
 20
14.2026055215477
 30
0.0
 10
27.53867520786523
 20
13.98903567263262
 30
0.0
 10
27.1090400282428
 20
13.79964603100174
 30
0.0
 10
26.65036521572303
 20
13.65074860302357
 30
0.0
 10
26.16899051311537
 20
13.53227250319962
 30
0.0
 10
25.66089522729377
 20
13.45419941118454
 30
0.0
 10
25.12995551644333
 20
13.39763789771384
 30
0.0
 10
24.76629219269816
 20
13.39275194690699
 30
0.0
 10
24.5807962291437
 20
13.39025974025975
 30
0.0
  0
SPLINE
  5
117
330
1F
100
AcDbEntity
  8
0
  6
Continuous
 62
     7
370
    25
100
AcDbSpline
210
0.0
220
0.0
230
1.0
 70
     8
 71
     3
 72
    23
 73
    19
 74
     0
 42
0.000000001
 43
0.00000001
 40
0.0
 40
0.0
 40
0.0
 40
0.0
 40
0.0621711170373821
 40
0.1208757954959768
 40
0.1761981325346403
 40
0.2290706806383215
 40
0.2801445454042346
 40
0.3296925929414621
 40
0.3791294693655453
 40
0.4286080642287591
 40
0.4804131869237498
 40
0.5368629961558605
 40
0.598121137623344
 40
0.6650539789239532
 40
0.7386093636286338
 40
0.818576526965318
 40
0.9056472060686149
 40
1.0
 40
1.0
 40
1.0
 40
1.0
 10
24.58079622914369
 20
13.39025974025975
 30
0.0
 10
24.32207858821836
 20
13.39460096188162
 30
0.0
 10
23.81906847442407
 20
13.40304135417266
 30
0.0
 10
23.09129936668952
 20
13.50012072107485
 30
0.0
 10
22.41211968219038
 20
13.64745809843256
 30
0.0
 10
21.78269132171408
 20
13.85874586043691
 30
0.0
 10
21.20398435711886
 20
14.13133228106058
 30
0.0
 10
20.67262022292392
 20
14.46199849525748
 30
0.0
 10
20.19723116366513
 20
14.85870756707551
 30
0.0
 10
19.76604743131047
 20
15.31596027998266
 30
0.0
 10
19.38668260218352
 20
15.85398612651784
 30
0.0
 10
19.06437610402576
 20
16.48329406399152
 30
0.0
 10
18.79615922322201
 20
17.20404796639897
 30
0.0
 10
18.56752075097372
 20
18.01229175322361
 30
0.0
 10
18.396849855922
 20
18.91424915803765
 30
0.0
 10
18.27989164583962
 20
19.90837101644085
 30
0.0
 10
18.19970972857225
 20
20.99312604293421
 30
0.0
 10
18.19250021952832
 20
21.74778481648822
 30
0.0
 10
18.18875077459824
 20
22.14025974025975
 30
0.0
  0
LINE
  5
118
330
1F
100
AcDbEntity
  8
0
  6
Continuous
 62
     7
370
    25
100
AcDbLine
 10
18.1887507746
 20
22.1402597403
 30
0.0
 11
18.1887507746
 21
33.65
 31
0.0
  0
LINE
  5
119
330
1F
100
AcDbEntity
  8
0
  6
Continuous
 62
     7
370
    25
100
AcDbLine
 10
18.1887507746
 20
33.65
 30
0.0
 11
20.2666728525
 21
33.65
 31
0.0
  0
LINE
  5
11A
330
1F
100
AcDbEntity
  8
0
  6
Continuous
 62
     7
370
    25
100
AcDbLine
 10
20.2666728525
 20
33.65
 30
0.0
 11
20.2666728525
 21
22.1280844156
 31
0.0
  0
SPLINE
  5
11B
330
1F
100
AcDbEntity
  8
0
  6
Continuous
 62
     7
370
    25
100
AcDbSpline
210
0.0
220
0.0
230
1.0
 70
     8
 71
     3
 72
    23
 73
    19
 74
     0
 42
0.000000001
 43
0.00000001
 40
0.0
 40
0.0
 40
0.0
 40
0.0
 40
0.0745046841365066
 40
0.1439521807323097
 40
0.2079156206233397
 40
0.2669018829607227
 40
0.3205661667393804
 40
0.3689492866102907
 40
0.4126150600627897
 40
0.4517065338170448
 40
0.5223704626109944
 40
0.5891266518994787
 40
0.6543382361415442
 40
0.7192338486014374
 40
0.7850793312676739
 40
0.8532777177938543
 40
0.9239719406510972
 40
1.0
 40
1.0
 40
1.0
 40
1.0
 10
20.26667285252032
 20
22.12808441558443
 30
0.0
 10
20.26844105001709
 20
21.91026622839645
 30
0.0
 10
20.2718574242837
 20
21.48941479586881
 30
0.0
 10
20.29195528736069
 20
20.88180820447861
 30
0.0
 10
20.32437197856996
 20
20.32022987994858
 30
0.0
 10
20.3665430676817
 20
19.80547352234574
 30
0.0
 10
20.42782229731813
 20
19.33852517118011
 30
0.0
 10
20.4999851333159
 20
18.91853099731927
 30
0.0
 10
20.58452391618069
 20
18.544396645266
 30
0.0
 10
20.70923262306971
 20
18.11308073501555
 30
0.0
 10
20.91840397328743
 20
17.638788043597
 30
0.0
 10
21.23258971491394
 20
17.13391293043437
 30
0.0
 10
21.61846303141433
 20
16.70284631169988
 30
0.0
 10
22.06985835280341
 20
16.3455299253877
 30
0.0
 10
22.58413461266745
 20
16.06785273028168
 30
0.0
 10
23.15132190565314
 20
15.87024442980928
 30
0.0
 10
23.77084182301221
 20
15.74976076070772
 30
0.0
 10
24.20009041488638
 20
15.73537595053722
 30
0.0
 10
24.42251700836447
 20
15.72792207792209
 30
0.0
  0
LINE
  5
11C
330
1F
100
AcDbEntity
  8
0
  6
Continuous
 62
     7
370
    25
100
AcDbLine
 10
-11.6692037709
 20
19.624025974
 30
0.0
 11
-13.414333641
 21
13.65
 31
0.0
  0
LINE
  5
11D
330
1F
100
AcDbEntity
  8
0
  6
Continuous
 62
     7
370
    25
100
AcDbLine
 10
-13.414333641
 20
13.65
 30
0.0
 11
-15.5774829916
 21
13.65
 31
0.0
  0
LINE
  5
11E
330
1F
100
AcDbEntity
  8
0
  6
Continuous
 62
     7
370
    25
100
AcDbLine
 10
-15.5774829916
 20
13.65
 30
0.0
 11
-9.1894959786
 21
33.65
 31
0.0
  0
LINE
  5
11F
330
1F
100
AcDbEntity
  8
0
  6
Continuous
 62
     7
370
    25
100
AcDbLine
 10
-9.1894959786
 20
33.65
 30
0.0
 11
-7.164333641
 21
33.65
 31
0.0
  0
LINE
  5
120
330
1F
100
AcDbEntity
  8
0
  6
Continuous
 62
     7
370
    25
100
AcDbLine
 10
-7.164333641
 20
33.65
 30
0.0
 11
-0.7722881864
 21
13.65
 31
0.0
  0
LINE
  5
121
330
1F
100
AcDbEntity
  8
0
  6
Continuous
 62
     7
370
    25
100
AcDbLine
 10
-0.7722881864
 20
13.65
 30
0.0
 11
-2.9313790955
 21
13.65
 31
0.0
  0
LINE
  5
122
330
1F
100
AcDbEntity
  8
0
  6
Continuous
 62
     7
370
    25
100
AcDbLine
 10
-2.9313790955
 20
13.65
 30
0.0
 11
-4.6805674072
 21
19.624025974
 31
0.0
  0
LINE
  5
123
330
1F
100
AcDbEntity
  8
0
  6
Continuous
 62
     7
370
    25
100
AcDbLine
 10
-4.6805674072
 20
19.624025974
 30
0.0
 11
-11.6692037709
 21
19.624025974
 31
0.0
  0
SPLINE
  5
124
330
1F
100
AcDbEntity
  8
0
  6
Continuous
 62
     7
370
    25
100
AcDbSpline
210
0.0
220
0.0
230
1.0
 70
     8
 71
     3
 72
    23
 73
    19
 74
     0
 42
0.000000001
 43
0.00000001
 40
0.0
 40
0.0
 40
0.0
 40
0.0
 40
0.0898190607451677
 40
0.1742106978919521
 40
0.2534731255384619
 40
0.327580931520554
 40
0.3967533615640624
 40
0.4618668899420058
 40
0.5232719650905088
 40
0.581808538952809
 40
0.6374331327495762
 40
0.6908720886860563
 40
0.7422913787595811
 40
0.7926600623519687
 40
0.842917464541153
 40
0.8936957688779578
 40
0.945668763843047
 40
1.0
 40
1.0
 40
1.0
 40
1.0
 10
-28.82423623838877
 20
23.78392857142858
 30
0.0
 10
-28.81910321279589
 20
23.45915143223454
 30
0.0
 10
-28.80914733078805
 20
22.82922219885198
 30
0.0
 10
-28.74566476764373
 20
21.91435946562101
 30
0.0
 10
-28.63459841681778
 20
21.06115714297569
 30
0.0
 10
-28.4715529032737
 20
20.2724594300302
 30
0.0
 10
-28.27015708501209
 20
19.54572838322044
 30
0.0
 10
-28.02512789508907
 20
18.88068601043399
 30
0.0
 10
-27.72717731290327
 20
18.28012441248038
 30
0.0
 10
-27.38678298308735
 20
17.74279429114979
 30
0.0
 10
-27.00698312583362
 20
17.26908344216008
 30
0.0
 10
-26.59720203277546
 20
16.85635415468031
 30
0.0
 10
-26.15485349505424
 20
16.50882303241657
 30
0.0
 10
-25.68531007516071
 20
16.21986081810087
 30
0.0
 10
-25.18158046135821
 20
16.00129377769828
 30
0.0
 10
-24.65073745667689
 20
15.84141579291611
 30
0.0
 10
-24.08870946720332
 20
15.74657460053289
 30
0.0
 10
-23.70419833760776
 20
15.7342308628253
 30
0.0
 10
-23.50767779683033
 20
15.72792207792209
 30
0.0
  0
SPLINE
  5
125
330
1F
100
AcDbEntity
  8
0
  6
Continuous
 62
     7
370
    25
100
AcDbSpline
210
0.0
220
0.0
230
1.0
 70
     8
 71
     3
 72
    23
 73
    19
 74
     0
 42
0.000000001
 43
0.00000001
 40
0.0
 40
0.0
 40
0.0
 40
0.0
 40
0.0580027889602356
 40
0.114300831955206
 40
0.1698733477565376
 40
0.2248417965327936
 40
0.2798102453090498
 40
0.3348414912673712
 40
0.3909705706309751
 40
0.4491616164904024
 40
0.5083603637883541
 40
0.569529433159649
 40
0.6332248439067159
 40
0.6994458354121539
 40
0.7686943926037706
 40
0.8418163801535845
 40
0.918984948355308
 40
1.0
 40
1.0
 40
1.0
 40
1.0
 10
-23.50767779683034
 20
15.72792207792209
 30
0.0
 10
-23.36137539364378
 20
15.73194584770438
 30
0.0
 10
-23.07307052587728
 20
15.73987512562286
 30
0.0
 10
-22.64803017277018
 20
15.79910520494424
 30
0.0
 10
-22.23690282749691
 20
15.89069206331812
 30
0.0
 10
-21.84073023855805
 20
16.02510902531987
 30
0.0
 10
-21.4637792029893
 20
16.20227985899153
 30
0.0
 10
-21.09844328070322
 20
16.40855268824848
 30
0.0
 10
-20.75227029773156
 20
16.65991003331052
 30
0.0
 10
-20.42041984440612
 20
16.94587526219832
 30
0.0
 10
-20.10971778119024
 20
17.27294465530711
 30
0.0
 10
-19.82568071192007
 20
17.64077529871563
 30
0.0
 10
-19.56402371972724
 20
18.04636961665789
 30
0.0
 10
-19.33955586523347
 20
18.49643093839204
 30
0.0
 10
-19.13544038396622
 20
18.98152807930894
 30
0.0
 10
-18.95725889330816
 20
19.50613241691865
 30
0.0
 10
-18.8068372884087
 20
20.07024097415306
 30
0.0
 10
-18.73245937379696
 20
20.46222774183819
 30
0.0
 10
-18.69436610851864
 20
20.66298701298702
 30
0.0
  0
LINE
  5
126
330
1F
100
AcDbEntity
  8
0
  6
Continuous
 62
     7
370
    25
100
AcDbLine
 10
-18.6943661085
 20
20.662987013
 30
0.0
 11
-16.6164440306
 21
20.1435064935
 31
0.0
  0
SPLINE
  5
127
330
1F
100
AcDbEntity
  8
0
  6
Continuous
 62
     7
370
    25
100
AcDbSpline
210
0.0
220
0.0
230
1.0
 70
     8
 71
     3
 72
    23
 73
    19
 74
     0
 42
0.000000001
 43
0.00000001
 40
0.0
 40
0.0
 40
0.0
 40
0.0
 40
0.0805763722812895
 40
0.1570903112519548
 40
0.2295632209210654
 40
0.2985522327183208
 40
0.3644018832544312
 40
0.4275081493205298
 40
0.4880168431779042
 40
0.54702491251228
 40
0.6042577312994206
 40
0.6603011019403529
 40
0.7154953932828867
 40
0.7708354729703738
 40
0.8261701599391106
 40
0.882396935588974
 40
0.940468299309824
 40
1.0
 40
1.0
 40
1.0
 40
1.0
 10
-16.61644403059656
 20
20.1435064935065
 30
0.0
 10
-16.67837685492553
 20
19.86814367661875
 30
0.0
 10
-16.79912002535004
 20
19.33130105901981
 30
0.0
 10
-17.02559435141086
 20
18.55914599449546
 30
0.0
 10
-17.2902346063164
 20
17.84252612744972
 30
0.0
 10
-17.58579381394021
 20
17.17872661845341
 30
0.0
 10
-17.9146420070154
 20
16.5676456508931
 30
0.0
 10
-18.27516043942463
 20
16.00970354668227
 30
0.0
 10
-18.67038386840241
 20
15.50535634916772
 30
0.0
 10
-19.10228093126967
 20
15.0608147019509
 30
0.0
 10
-19.55643417632056
 20
14.66194310039661
 30
0.0
 10
-20.04342171921262
 20
14.32712912262737
 30
0.0
 10
-20.54859228238584
 20
14.03369531999211
 30
0.0
 10
-21.08159797721946
 20
13.79998797847915
 30
0.0
 10
-21.63705887630227
 20
13.61488080629945
 30
0.0
 10
-22.21796536365228
 20
13.48718521236216
 30
0.0
 10
-22.82195717704246
 20
13.40161349823187
 30
0.0
 10
-23.23410825055464
 20
13.39407552718852
 30
0.0
 10
-23.44274273189527
 20
13.39025974025975
 30
0.0
  0
SPLINE
  5
128
330
1F
100
AcDbEntity
  8
0
  6
Continuous
 62
     7
370
    25
100
AcDbSpline
210
0.0
220
0.0
230
1.0
 70
     8
 71
     3
 72
    31
 73
    27
 74
     0
 42
0.000000001
 43
0.00000001
 40
0.0
 40
0.0
 40
0.0
 40
0.0
 40
0.0383789691351706
 40
0.075231784705121
 40
0.111263653822825
 40
0.1464282888919267
 40
0.1808600921997574
 40
0.2146021275730038
 40
0.2482875210339653
 40
0.2820154048469469
 40
0.3160345579150113
 40
0.3509676350894773
 40
0.3868900299698195
 40
0.424247841697201
 40
0.4633711261296735
 40
0.5042030745714942
 40
0.5467180687115842
 40
0.5915406977081844
 40
0.6377960545429588
 40
0.6853499733400348
 40
0.73399321542788
 40
0.7837810849027893
 40
0.8354441932961221
 40
0.8884640382335408
 40
0.9432914331678554
 40
0.9999999999999999
 40
0.9999999999999999
 40
0.9999999999999999
 40
0.9999999999999999
 10
-23.44274273189527
 20
13.39025974025975
 30
0.0
 10
-23.62688011670903
 20
13.39280056661633
 30
0.0
 10
-23.98783259674262
 20
13.397781182452
 30
0.0
 10
-24.51902393966301
 20
13.4540841031111
 30
0.0
 10
-25.03107096616364
 20
13.53632499086741
 30
0.0
 10
-25.52278820615611
 20
13.66014041851479
 30
0.0
 10
-25.99525885770016
 20
13.81171552174659
 30
0.0
 10
-26.44392122037083
 20
14.00638203769283
 30
0.0
 10
-26.87606566271117
 20
14.22792585846622
 30
0.0
 10
-27.28674599638104
 20
14.48974537420658
 30
0.0
 10
-27.68084141819013
 20
14.7863530487208
 30
0.0
 10
-28.0477755645428
 20
15.131220979311
 30
0.0
 10
-28.40529746043667
 20
15.50820086671068
 30
0.0
 10
-28.73508581951573
 20
15.93530607144028
 30
0.0
 10
-29.05952687347967
 20
16.39550852107104
 30
0.0
 10
-29.35120384353784
 20
16.90601511549254
 30
0.0
 10
-29.63416530259698
 20
17.45189025309298
 30
0.0
 10
-29.89474954244233
 20
18.03752320685751
 30
0.0
 10
-30.13746636431104
 20
18.65702494430703
 30
0.0
 10
-30.33567590935666
 20
19.31131524969547
 30
0.0
 10
-30.51245642184258
 20
19.98900684877874
 30
0.0
 10
-30.65275831904127
 20
20.69535224284613
 30
0.0
 10
-30.76851934802861
 20
21.42741683655922
 30
0.0
 10
-30.84182603885214
 20
22.18917381628455
 30
0.0
 10
-30.89363778591733
 20
22.97693539007709
 30
0.0
 10
-30.89928638299277
 20
23.51192313304111
 30
0.0
 10
-30.90215831631085
 20
23.78392857142858
 30
0.0
  0
SPLINE
  5
129
330
1F
100
AcDbEntity
  8
0
  6
Continuous
 62
     7
370
    25
100
AcDbSpline
210
0.0
220
0.0
230
1.0
 70
     8
 71
     3
 72
    31
 73
    27
 74
     0
 42
0.000000001
 43
0.00000001
 40
0.0
 40
0.0
 40
0.0
 40
0.0
 40
0.0564587184199451
 40
0.110733149767267
 40
0.1629009318030823
 40
0.2134256937306346
 40
0.2620695682892665
 40
0.3090267602167119
 40
0.3543734995347784
 40
0.3987381834766563
 40
0.4415781187909387
 40
0.4830580139500737
 40
0.5233118362855045
 40
0.5624259215471881
 40
0.6006158594634028
 40
0.6379099736494714
 40
0.6749240881792664
 40
0.7116461105255052
 40
0.748121636300496
 40
0.7838258507670389
 40
0.8194628502714185
 40
0.8549833476227484
 40
0.890592969146515
 40
0.9264958098783482
 40
0.9629211668006857
 40
0.9999999999999999
 40
0.9999999999999999
 40
0.9999999999999999
 40
0.9999999999999999
 10
-30.90215831631085
 20
23.78392857142858
 30
0.0
 10
-30.8993098344988
 20
24.05187824470505
 30
0.0
 10
-30.89372307355326
 20
24.57741109651933
 30
0.0
 10
-30.84199616216949
 20
25.34895820915745
 30
0.0
 10
-30.76887600286046
 20
26.09051709699522
 30
0.0
 10
-30.6527070988794
 20
26.79954255151032
 30
0.0
 10
-30.51336495723466
 20
27.47911982454604
 30
0.0
 10
-30.33724433078944
 20
28.12472623727947
 30
0.0
 10
-30.13606879132867
 20
28.74167319871768
 30
0.0
 10
-29.89684691143642
 20
29.32406069413654
 30
0.0
 10
-29.62727471038185
 20
29.87235280656875
 30
0.0
 10
-29.33921422886676
 20
30.38883099976437
 30
0.0
 10
-29.03199774496667
 20
30.87354212563119
 30
0.0
 10
-28.69859343622654
 20
31.32152080986542
 30
0.0
 10
-28.34078126356932
 20
31.73165472413768
 30
0.0
 10
-27.96146532721986
 20
32.10805107557492
 30
0.0
 10
-27.55867593183887
 20
32.44836881479213
 30
0.0
 10
-27.13707368904822
 20
32.75876603543882
 30
0.0
 10
-26.69527305421982
 20
33.02778495911029
 30
0.0
 10
-26.24238568324412
 20
33.26668881136725
 30
0.0
 10
-25.77500459223097
 20
33.46491461951896
 30
0.0
 10
-25.29483549492415
 20
33.62780509652519
 30
0.0
 10
-24.80234250577585
 20
33.75442456407903
 30
0.0
 10
-24.29734006805149
 20
33.84148158098236
 30
0.0
 10
-23.78109993082573
 20
33.90288503975914
 30
0.0
 10
-23.43210382024711
 20
33.90744168306374
 30
0.0
 10
-23.25605442020695
 20
33.90974025974027
 30
0.0
  0
SPLINE
  5
12A
330
1F
100
AcDbEntity
  8
0
  6
Continuous
 62
     7
370
    25
100
AcDbSpline
210
0.0
220
0.0
230
1.0
 70
     8
 71
     3
 72
    23
 73
    19
 74
     0
 42
0.000000001
 43
0.00000001
 40
0.0
 40
0.0
 40
0.0
 40
0.0
 40
0.0605768964872431
 40
0.1189935850227895
 40
0.1766890232444865
 40
0.2330336300836393
 40
0.2897269740035316
 40
0.3461939642426538
 40
0.4035309196255454
 40
0.4622500261710462
 40
0.5222256669537207
 40
0.5833459184222216
 40
0.646127344909933
 40
0.7108927820618696
 40
0.7783820139161896
 40
0.8489811922295983
 40
0.9225725627578711
 40
1.0
 40
1.0
 40
1.0
 40
1.0
 10
-23.25605442020696
 20
33.90974025974027
 30
0.0
 10
-23.06378312064286
 20
33.90476239391261
 30
0.0
 10
-22.68609702975935
 20
33.89498417589646
 30
0.0
 10
-22.12823723827361
 20
33.8265095825511
 30
0.0
 10
-21.59458178339914
 20
33.701970316541
 30
0.0
 10
-21.07615383040777
 20
33.54152198598247
 30
0.0
 10
-20.58268222534871
 20
33.32462365137569
 30
0.0
 10
-20.10779107776311
 20
33.06367887432368
 30
0.0
 10
-19.65562234880658
 20
32.75318763931378
 30
0.0
 10
-19.22588078823124
 20
32.39506239926548
 30
0.0
 10
-18.81903296747555
 20
31.99373614697567
 30
0.0
 10
-18.4442946317833
 20
31.5450047148022
 30
0.0
 10
-18.10508670151944
 20
31.0508575479856
 30
0.0
 10
-17.78822627388108
 20
30.51821348562177
 30
0.0
 10
-17.51531770831043
 20
29.93409007055112
 30
0.0
 10
-17.26925392936128
 20
29.30875966266224
 30
0.0
 10
-17.04521878728404
 20
28.64115447390019
 30
0.0
 10
-16.93347526442755
 20
28.17480959628
 30
0.0
 10
-16.87618429033683
 20
27.93571428571429
 30
0.0
  0
LINE
  5
12B
330
1F
100
AcDbEntity
  8
0
  6
Continuous
 62
     7
370
    25
100
AcDbLine
 10
-16.8761842903
 20
27.9357142857
 30
0.0
 11
-18.9541063683
 21
27.4162337662
 31
0.0
  0
SPLINE
  5
12C
330
1F
100
AcDbEntity
  8
0
  6
Continuous
 62
     7
370
    25
100
AcDbSpline
210
0.0
220
0.0
230
1.0
 70
     8
 71
     3
 72
    23
 73
    19
 74
     0
 42
0.000000001
 43
0.00000001
 40
0.0
 40
0.0
 40
0.0
 40
0.0
 40
0.0796767186657807
 40
0.1553935432869486
 40
0.2273561760297184
 40
0.2958041740940894
 40
0.361321677942722
 40
0.4239630969883295
 40
0.484098580662536
 40
0.5425743248742896
 40
0.5989986925860474
 40
0.6548089777059193
 40
0.7106090277274161
 40
0.7658707955056003
 40
0.8222681626809576
 40
0.8791596191532982
 40
0.9388597817217373
 40
1.0
 40
1.0
 40
1.0
 40
1.0
 10
-18.95410636825891
 20
27.41623376623378
 30
0.0
 10
-19.00107163925121
 20
27.58450939116389
 30
0.0
 10
-19.09266803018116
 20
27.91269742456425
 30
0.0
 10
-19.25566640255798
 20
28.38407547599028
 30
0.0
 10
-19.43394177595583
 20
28.82326914617746
 30
0.0
 10
-19.6276927922656
 20
29.23146418498737
 30
0.0
 10
-19.84345025926438
 20
29.60511848713158
 30
0.0
 10
-20.07490816068823
 20
29.94727700730606
 30
0.0
 10
-20.32246266021704
 20
30.25889227248883
 30
0.0
 10
-20.59131346699106
 20
30.5333936019755
 30
0.0
 10
-20.87251284156887
 20
30.78107048544855
 30
0.0
 10
-21.17467762518512
 20
30.99324430193696
 30
0.0
 10
-21.49529897036123
 20
31.17049589681386
 30
0.0
 10
-21.8314796066893
 20
31.31949743902524
 30
0.0
 10
-22.18428190137393
 20
31.43157317627798
 30
0.0
 10
-22.55486595114372
 20
31.51412519447594
 30
0.0
 10
-22.94224675072165
 20
31.56281859582724
 30
0.0
 10
-23.20721749276761
 20
31.56896705624499
 30
0.0
 10
-23.34128169293423
 20
31.57207792207793
 30
0.0
  0
SPLINE
  5
12D
330
1F
100
AcDbEntity
  8
0
  6
Continuous
 62
     7
370
    25
100
AcDbSpline
210
0.0
220
0.0
230
1.0
 70
     8
 71
     3
 72
    27
 73
    23
 74
     0
 42
0.000000001
 43
0.00000001
 40
0.0
 40
0.0
 40
0.0
 40
0.0
 40
0.0738594885703666
 40
0.1441255888055392
 40
0.2122889120412622
 40
0.2798376077822549
 40
0.3138511007648972
 40
0.3489088606013788
 40
0.384200104551894
 40
0.4207361562042968
 40
0.4590040185358193
 40
0.4984771149254493
 40
0.539384187920644
 40
0.5823617298014048
 40
0.6270819322454205
 40
0.6733452844156694
 40
0.7220173250285838
 40
0.7727906139808965
 40
0.8258110552607718
 40
0.8812415964561084
 40
0.9395209397483453
 40
0.9999999999999999
 40
0.9999999999999999
 40
0.9999999999999999
 40
0.9999999999999999
 10
-23.34128169293423
 20
31.57207792207793
 30
0.0
 10
-23.60589796096766
 20
31.56227415513088
 30
0.0
 10
-24.12225647056536
 20
31.54314359098662
 30
0.0
 10
-24.86906734903505
 20
31.38401287935371
 30
0.0
 10
-25.56393270301009
 20
31.12947722418351
 30
0.0
 10
-26.09279794253269
 20
30.82404988921388
 30
0.0
 10
-26.48492008957122
 20
30.53109939726041
 30
0.0
 10
-26.76286314229016
 20
30.28064921642731
 30
0.0
 10
-27.0245708370119
 20
30.00105332396646
 30
0.0
 10
-27.27322913769549
 20
29.69497422790237
 30
0.0
 10
-27.50877156745904
 20
29.35990844083231
 30
0.0
 10
-27.72118107294313
 20
28.99177686761242
 30
0.0
 10
-27.92718051694393
 20
28.60102330766001
 30
0.0
 10
-28.11280803418165
 20
28.17930677189241
 30
0.0
 10
-28.27817720092795
 20
27.72894614844244
 30
0.0
 10
-28.42526319509665
 20
27.25091606469764
 30
0.0
 10
-28.55071161054765
 20
26.74437052823122
 30
0.0
 10
-28.65190426423635
 20
26.20776771598234
 30
0.0
 10
-28.72714425794486
 20
25.64262482085139
 30
0.0
 10
-28.78515386804506
 20
25.04847694543774
 30
0.0
 10
-28.81630263986182
 20
24.42549701734409
 30
0.0
 10
-28.82155925014556
 20
24.00040929970057
 30
0.0
 10
-28.82423623838878
 20
23.78392857142859
 30
0.0
  0
SPLINE
  5
12E
330
1F
100
AcDbEntity
  8
0
  6
Continuous
 62
     7
370
    25
100
AcDbSpline
210
0.0
220
0.0
230
1.0
 70
     8
 71
     3
 72
    19
 73
    15
 74
     0
 42
0.000000001
 43
0.00000001
 40
0.0
 40
0.0
 40
0.0
 40
0.0
 40
0.0842734715608936
 40
0.1665166244253442
 40
0.2473877598069604
 40
0.3288365457123065
 40
0.4090983268496178
 40
0.4877267016055337
 40
0.5657077880693253
 40
0.6449848608508592
 40
0.726558445944418
 40
0.8120697979385852
 40
0.902728775627601
 40
0.9999999999999999
 40
0.9999999999999999
 40
0.9999999999999999
 40
0.9999999999999999
 10
-33.23982065397319
 20
19.21412337662338
 30
0.0
 10
-33.24864752238169
 20
18.94285375936337
 30
0.0
 10
-33.26608860205249
 20
18.40684995960707
 30
0.0
 10
-33.42088793781372
 20
17.62282826285427
 30
0.0
 10
-33.67381418415008
 20
16.87567963682146
 30
0.0
 10
-34.02758940931649
 20
16.17753267610604
 30
0.0
 10
-34.4605334724096
 20
15.53476569712376
 30
0.0
 10
-34.97001457242379
 20
14.96458392628822
 30
0.0
 10
-35.55830596501461
 20
14.48093259760814
 30
0.0
 10
-36.21714960301649
 20
14.08156720609413
 30
0.0
 10
-36.94659240700092
 20
13.76469084785676
 30
0.0
 10
-37.74977084934487
 20
13.55116470584077
 30
0.0
 10
-38.62060231952405
 20
13.41292521739525
 30
0.0
 10
-39.22545491192205
 20
13.39799006173647
 30
0.0
 10
-39.53852195267449
 20
13.39025974025975
 30
0.0
  0
SPLINE
  5
12F
330
1F
100
AcDbEntity
  8
0
  6
Continuous
 62
     7
370
    25
100
AcDbSpline
210
0.0
220
0.0
230
1.0
 70
     8
 71
     3
 72
    23
 73
    19
 74
     0
 42
0.000000001
 43
0.00000001
 40
0.0
 40
0.0
 40
0.0
 40
0.0
 40
0.0690622114285185
 40
0.134765879283647
 40
0.1976107057024329
 40
0.258528210842582
 40
0.3181274252810149
 40
0.3770582660618973
 40
0.4356857915191242
 40
0.4947336263914083
 40
0.5540911070636515
 40
0.6133334186580055
 40
0.6729241889746487
 40
0.7340655047106263
 40
0.7962987887860591
 40
0.8612408916846034
 40
0.9289703310657814
 40
0.9999999999999999
 40
0.9999999999999999
 40
0.9999999999999999
 40
0.9999999999999999
 10
-39.53852195267449
 20
13.39025974025975
 30
0.0
 10
-39.78499160080755
 20
13.39542795600765
 30
0.0
 10
-40.26594490595567
 20
13.40551305356225
 30
0.0
 10
-40.9668654832281
 20
13.49235354217513
 30
0.0
 10
-41.6287673020279
 20
13.63364789541605
 30
0.0
 10
-42.2531246246686
 20
13.83276936737638
 30
0.0
 10
-42.84087780821115
 20
14.08943920742228
 30
0.0
 10
-43.39138304920034
 20
14.4024926382322
 30
0.0
 10
-43.90190793885799
 20
14.77410549153998
 30
0.0
 10
-44.36843262197556
 20
15.2016738707017
 30
0.0
 10
-44.7903289369094
 20
15.67606722717911
 30
0.0
 10
-45.16208645005537
 20
16.19332437596455
 30
0.0
 10
-45.47654992281379
 20
16.75468920306496
 30
0.0
 10
-45.73407008184857
 20
17.35558409612029
 30
0.0
 10
-45.94352056730694
 20
17.99493200709103
 30
0.0
 10
-46.09668028262468
 20
18.67417435823277
 30
0.0
 10
-46.19458404110375
 20
19.39543502877768
 30
0.0
 10
-46.21591466603937
 20
19.89022665091701
 30
0.0
 10
-46.22683364098618
 20
20.1435064935065
 30
0.0
  0
LINE
  5
130
330
1F
100
AcDbEntity
  8
0
  6
Continuous
 62
     7
370
    25
100
AcDbLine
 10
-46.226833641
 20
20.1435064935
 30
0.0
 11
-44.1489115631
 21
20.4032467532
 31
0.0
  0
SPLINE
  5
131
330
1F
100
AcDbEntity
  8
0
  6
Continuous
 62
     7
370
    25
100
AcDbSpline
210
0.0
220
0.0
230
1.0
 70
     8
 71
     3
 72
    19
 73
    15
 74
     0
 42
0.000000001
 43
0.00000001
 40
0.0
 40
0.0
 40
0.0
 40
0.0
 40
0.1067133849812
 40
0.202382753081325
 40
0.2879881362754657
 40
0.3651321209974016
 40
0.438155321852681
 40
0.5114419818683965
 40
0.5870934926508687
 40
0.6659855935524696
 40
0.746839407374443
 40
0.8288800136248055
 40
0.9125295864996452
 40
0.9999999999999999
 40
0.9999999999999999
 40
0.9999999999999999
 40
0.9999999999999999
 10
-44.1489115630641
 20
20.40324675324676
 30
0.0
 10
-44.11865580500181
 20
20.13871046712645
 30
0.0
 10
-44.06127552778271
 20
19.63701537157336
 30
0.0
 10
-43.90412057363439
 20
18.93443463962445
 30
0.0
 10
-43.69392532764784
 20
18.32403639457107
 30
0.0
 10
-43.43424283086806
 20
17.79352367831926
 30
0.0
 10
-43.10146263901316
 20
17.34382846566307
 30
0.0
 10
-42.7213418791835
 20
16.9394027715062
 30
0.0
 10
-42.27361416959386
 20
16.58657592455103
 30
0.0
 10
-41.77242566803341
 20
16.27855593462461
 30
0.0
 10
-41.2207868992123
 20
16.02995874193626
 30
0.0
 10
-40.62894245063832
 20
15.85818511634979
 30
0.0
 10
-40.00524686583012
 20
15.74824460129012
 30
0.0
 10
-39.57822752846322
 20
15.73479634519276
 30
0.0
 10
-39.35995052410306
 20
15.72792207792209
 30
0.0
  0
SPLINE
  5
132
330
1F
100
AcDbEntity
  8
0
  6
Continuous
 62
     7
370
    25
100
AcDbSpline
210
0.0
220
0.0
230
1.0
 70
     8
 71
     3
 72
    23
 73
    19
 74
     0
 42
0.000000001
 43
0.00000001
 40
0.0
 40
0.0
 40
0.0
 40
0.0
 40
0.0781252968918926
 40
0.1518301493922362
 40
0.2221520613979012
 40
0.2890233266244045
 40
0.3525976224640647
 40
0.4148420026739736
 40
0.4749348900295491
 40
0.534843395808014
 40
0.5934135167521016
 40
0.6507869454438941
 40
0.7072859995271776
 40
0.7634577572775828
 40
0.8197238077213155
 40
0.8778515259498435
 40
0.9374785251711037
 40
1.0
 40
1.0
 40
1.0
 40
1.0
 10
-39.35995052410306
 20
15.72792207792209
 30
0.0
 10
-39.20424832618401
 20
15.73108622211246
 30
0.0
 10
-38.90165379008307
 20
15.73723547855353
 30
0.0
 10
-38.46104113091002
 20
15.7834866565615
 30
0.0
 10
-38.04602942688682
 20
15.85315862912372
 30
0.0
 10
-37.66052130844783
 20
15.96154787901138
 30
0.0
 10
-37.29735013499753
 20
16.08829782302578
 30
0.0
 10
-36.96673965608982
 20
16.25728012282359
 30
0.0
 10
-36.65735918130611
 20
16.44825455463373
 30
0.0
 10
-36.37819398303289
 20
16.67059950177662
 30
0.0
 10
-36.13203153886155
 20
16.9205079423659
 30
0.0
 10
-35.90890230717692
 20
17.18278628523237
 30
0.0
 10
-35.72748132450091
 20
17.46991654416073
 30
0.0
 10
-35.57450178970841
 20
17.77057742562122
 30
0.0
 10
-35.46231607884529
 20
18.09217066845825
 30
0.0
 10
-35.37530173670631
 20
18.42829251994737
 30
0.0
 10
-35.32679149843381
 20
18.78522388632832
 30
0.0
 10
-35.32080626352457
 20
19.02864969481811
 30
0.0
 10
-35.31774273189527
 20
19.15324675324676
 30
0.0
  0
SPLINE
  5
133
330
1F
100
AcDbEntity
  8
0
  6
Continuous
 62
     7
370
    25
100
AcDbSpline
210
0.0
220
0.0
230
1.0
 70
     8
 71
     3
 72
    23
 73
    19
 74
     0
 42
0.000000001
 43
0.00000001
 40
0.0
 40
0.0
 40
0.0
 40
0.0
 40
0.0628274913813593
 40
0.1223726895779752
 40
0.180383765861959
 40
0.2364891989894685
 40
0.2926289502320333
 40
0.3503980605968389
 40
0.4101926792197949
 40
0.4734229773823769
 40
0.5102124852509643
 40
0.5552799601987789
 40
0.6084730122619774
 40
0.6698570376582474
 40
0.7400379641843832
 40
0.8179174674906484
 40
0.9048122599055257
 40
1.0
 40
1.0
 40
1.0
 40
1.0
 10
-35.31774273189527
 20
19.15324675324676
 30
0.0
 10
-35.32220976638652
 20
19.29695063256522
 30
0.0
 10
-35.33091046433123
 20
19.57685087732027
 30
0.0
 10
-35.40496777488879
 20
19.98431141561386
 30
0.0
 10
-35.53123912195203
 20
20.36190830365427
 30
0.0
 10
-35.70313971151135
 20
20.71253206749124
 30
0.0
 10
-35.92515318322339
 20
21.03336699000043
 30
0.0
 10
-36.19933280197949
 20
21.32284314433278
 30
0.0
 10
-36.52513000122067
 20
21.57872536156687
 30
0.0
 10
-36.83600310652216
 20
21.77278235473462
 30
0.0
 10
-37.13631162771119
 20
21.91412561645684
 30
0.0
 10
-37.42003695920116
 20
22.03596175359952
 30
0.0
 10
-37.76173248503802
 20
22.16447866352235
 30
0.0
 10
-38.16084457695109
 20
22.30280355507791
 30
0.0
 10
-38.61749960951622
 20
22.44690827369113
 30
0.0
 10
-39.13194923103099
 20
22.60131172261698
 30
0.0
 10
-39.70239527091103
 20
22.76803814373029
 30
0.0
 10
-40.10382688385298
 20
22.8781505488112
 30
0.0
 10
-40.31368429033683
 20
22.9357142857143
 30
0.0
  0
SPLINE
  5
134
330
1F
100
AcDbEntity
  8
0
  6
Continuous
 62
     7
370
    25
100
AcDbSpline
210
0.0
220
0.0
230
1.0
 70
     8
 71
     3
 72
    23
 73
    19
 74
     0
 42
0.000000001
 43
0.00000001
 40
0.0
 40
0.0
 40
0.0
 40
0.0
 40
0.0696134502891506
 40
0.1341558467413849
 40
0.1941216639751316
 40
0.2492702399547629
 40
0.3003975238168694
 40
0.3464602541181235
 40
0.3882517207597301
 40
0.425902819190637
 40
0.4961060560373058
 40
0.5655345875935793
 40
0.634846250070749
 40
0.7047585289073899
 40
0.7756659742820924
 40
0.8477253815784792
 40
0.9224175839219317
 40
1.0
 40
1.0
 40
1.0
 40
1.0
 10
-40.31368429033682
 20
22.93571428571429
 30
0.0
 10
-40.5020171662015
 20
22.9888524386309
 30
0.0
 10
-40.86496364171623
 20
23.0912578483497
 30
0.0
 10
-41.3854386021993
 20
23.255146349567
 30
0.0
 10
-41.86486975242408
 20
23.41423006077414
 30
0.0
 10
-42.3003019014082
 20
23.58395482180844
 30
0.0
 10
-42.69720358007313
 20
23.745143849516
 30
0.0
 10
-43.04776119607646
 20
23.91812384685684
 30
0.0
 10
-43.35734324881175
 20
24.0874996660014
 30
0.0
 10
-43.71337679970285
 20
24.31219764594349
 30
0.0
 10
-44.10225184239515
 20
24.6264589335434
 30
0.0
 10
-44.51440548754159
 20
25.04638579443998
 30
0.0
 10
-44.8744483258313
 20
25.51137040650639
 30
0.0
 10
-45.17483950986072
 20
26.02137214279049
 30
0.0
 10
-45.41847078399634
 20
26.57012884085315
 30
0.0
 10
-45.57979595980623
 20
27.16164887602101
 30
0.0
 10
-45.69231410416988
 20
27.7839869987525
 30
0.0
 10
-45.70227708238034
 20
28.21251391759927
 30
0.0
 10
-45.70735312150566
 20
28.43084415584417
 30
0.0
  0
SPLINE
  5
135
330
1F
100
AcDbEntity
  8
0
  6
Continuous
 62
     7
370
    25
100
AcDbSpline
210
0.0
220
0.0
230
1.0
 70
     8
 71
     3
 72
    23
 73
    19
 74
     0
 42
0.000000001
 43
0.00000001
 40
0.0
 40
0.0
 40
0.0
 40
0.0
 40
0.0655342124430471
 40
0.1288270559297159
 40
0.1899548512024733
 40
0.2496480368191135
 40
0.3082483091336513
 40
0.3667963607881972
 40
0.4255009350642035
 40
0.4858920521208363
 40
0.5466819835686085
 40
0.6066869295489976
 40
0.6675221296550218
 40
0.7294256136805838
 40
0.7931375186351564
 40
0.8590270504025681
 40
0.9276974320877981
 40
1.0
 40
1.0
 40
1.0
 40
1.0
 10
-45.70735312150566
 20
28.43084415584417
 30
0.0
 10
-45.70287400573514
 20
28.62724758954338
 30
0.0
 10
-45.69406896671243
 20
29.01333716313742
 30
0.0
 10
-45.61890214922485
 20
29.57842902844358
 30
0.0
 10
-45.49975734677427
 20
30.11797754784095
 30
0.0
 10
-45.32196965626453
 20
30.62622000275119
 30
0.0
 10
-45.1044545339854
 20
31.11039478863603
 30
0.0
 10
-44.82899310872718
 20
31.56078377348723
 30
0.0
 10
-44.51046757773606
 20
31.98818015528631
 30
0.0
 10
-44.14168842231388
 20
32.38242533792118
 30
0.0
 10
-43.73550797215015
 20
32.7439894965967
 30
0.0
 10
-43.28727967453467
 20
33.05475566117336
 30
0.0
 10
-42.80646541506155
 20
33.3180992496637
 30
0.0
 10
-42.29296468849972
 20
33.54060081578727
 30
0.0
 10
-41.74205655740928
 20
33.70512788272179
 30
0.0
 10
-41.15897780583135
 20
33.82093764152729
 30
0.0
 10
-40.54294987374733
 20
33.8970399870901
 30
0.0
 10
-40.12046620196828
 20
33.90543473824152
 30
0.0
 10
-39.90378169293423
 20
33.90974025974027
 30
0.0
  0
SPLINE
  5
136
330
1F
100
AcDbEntity
  8
0
  6
Continuous
 62
     7
370
    25
100
AcDbSpline
210
0.0
220
0.0
230
1.0
 70
     8
 71
     3
 72
    19
 73
    15
 74
     0
 42
0.000000001
 43
0.00000001
 40
0.0
 40
0.0
 40
0.0
 40
0.0
 40
0.0919148450095062
 40
0.1793500136985499
 40
0.2627602509497603
 40
0.3438245629315456
 40
0.4230536694981514
 40
0.500153763856671
 40
0.5774020559630041
 40
0.6564709802344418
 40
0.7376500484536382
 40
0.8208783262149127
 40
0.9079232481193407
 40
1.0
 40
1.0
 40
1.0
 40
1.0
 10
-39.90378169293423
 20
33.90974025974027
 30
0.0
 10
-39.60836871243662
 20
33.90149302611818
 30
0.0
 10
-39.0319403662484
 20
33.88540050631963
 30
0.0
 10
-38.19579258915148
 20
33.75081231864691
 30
0.0
 10
-37.41712113323647
 20
33.52280328339587
 30
0.0
 10
-36.69888617302974
 20
33.20552470687698
 30
0.0
 10
-36.04669534439308
 20
32.8049823430629
 30
0.0
 10
-35.47173489304717
 20
32.31874711420669
 30
0.0
 10
-34.97013482930493
 20
31.75769359938028
 30
0.0
 10
-34.55285155672833
 20
31.11578508338681
 30
0.0
 10
-34.21511798118984
 20
30.40769790140189
 30
0.0
 10
-33.96781044690223
 20
29.6365654225749
 30
0.0
 10
-33.80658100301014
 20
28.80652809181472
 30
0.0
 10
-33.77535352746108
 20
28.23137126293209
 30
0.0
 10
-33.75930117345371
 20
27.9357142857143
 30
0.0
  0
LINE
  5
137
330
1F
100
AcDbEntity
  8
0
  6
Continuous
 62
     7
370
    25
100
AcDbLine
 10
-33.7593011735
 20
27.9357142857
 30
0.0
 11
-35.8372232514
 21
27.675974026
 31
0.0
  0
SPLINE
  5
138
330
1F
100
AcDbEntity
  8
0
  6
Continuous
 62
     7
370
    25
100
AcDbSpline
210
0.0
220
0.0
230
1.0
 70
     8
 71
     3
 72
    23
 73
    19
 74
     0
 42
0.000000001
 43
0.00000001
 40
0.0
 40
0.0
 40
0.0
 40
0.0
 40
0.0765728135290761
 40
0.1493228985313986
 40
0.2172186749416073
 40
0.2820872493082847
 40
0.3432655771108288
 40
0.4022310899227248
 40
0.4584773865507857
 40
0.5141512058041747
 40
0.569072641564331
 40
0.6243527363272771
 40
0.6811913672928028
 40
0.7394041584491242
 40
0.7998297883091675
 40
0.862830733645073
 40
0.9296455439554839
 40
0.9999999999999999
 40
0.9999999999999999
 40
0.9999999999999999
 40
0.9999999999999999
 10
-35.83722325137578
 20
27.67597402597404
 30
0.0
 10
-35.85246643011485
 20
27.83590938824888
 30
0.0
 10
-35.88219180557445
 20
28.14779569321638
 30
0.0
 10
-35.96432343084451
 20
28.5964599555971
 30
0.0
 10
-36.06929800667751
 20
29.0147812615266
 30
0.0
 10
-36.20090929875609
 20
29.40047240925309
 30
0.0
 10
-36.36628693129776
 20
29.75210500107376
 30
0.0
 10
-36.55041442566755
 20
30.07367866856063
 30
0.0
 10
-36.76488251083338
 20
30.36187057707867
 30
0.0
 10
-37.00416351579415
 20
30.61826275336706
 30
0.0
 10
-37.27088394361597
 20
30.84278861850688
 30
0.0
 10
-37.56147360809334
 20
31.03957881856231
 30
0.0
 10
-37.87840316633414
 20
31.20626560212592
 30
0.0
 10
-38.22223612783741
 20
31.33912056117481
 30
0.0
 10
-38.588497564962
 20
31.44601965878647
 30
0.0
 10
-38.98164479310449
 20
31.51711502175177
 30
0.0
 10
-39.39947053575236
 20
31.56253574388098
 30
0.0
 10
-39.6872072922343
 20
31.56884294369203
 30
0.0
 10
-39.83478818644072
 20
31.57207792207793
 30
0.0
  0
SPLINE
  5
139
330
1F
100
AcDbEntity
  8
0
  6
Continuous
 62
     7
370
    25
100
AcDbSpline
210
0.0
220
0.0
230
1.0
 70
     8
 71
     3
 72
    23
 73
    19
 74
     0
 42
0.000000001
 43
0.00000001
 40
0.0
 40
0.0
 40
0.0
 40
0.0
 40
0.0804235931284727
 40
0.155447866020915
 40
0.2274865779056516
 40
0.2949489652405904
 40
0.3597986509905197
 40
0.4210200219417493
 40
0.4819019994984986
 40
0.5406082872412762
 40
0.5984821386513653
 40
0.6551515363375454
 40
0.7102010032718241
 40
0.7655971895723558
 40
0.8217224591483818
 40
0.8791641554936604
 40
0.9383687171181124
 40
1.0
 40
1.0
 40
1.0
 40
1.0
 10
-39.83478818644072
 20
31.57207792207793
 30
0.0
 10
-39.98510991031206
 20
31.5707903940172
 30
0.0
 10
-40.27566135527245
 20
31.56830177740985
 30
0.0
 10
-40.69824789468949
 20
31.51921155055438
 30
0.0
 10
-41.0939587285248
 20
31.45437936675915
 30
0.0
 10
-41.4633309359666
 20
31.35565250165024
 30
0.0
 10
-41.80318144689152
 20
31.23105676089816
 30
0.0
 10
-42.11823835925453
 20
31.07892630993944
 30
0.0
 10
-42.40422286143601
 20
30.89786331658152
 30
0.0
 10
-42.66268359838543
 20
30.68909238807287
 30
0.0
 10
-42.88903295766502
 20
30.45694883448729
 30
0.0
 10
-43.08815762167756
 20
30.21006195823538
 30
0.0
 10
-43.25844590773051
 20
29.94747731645173
 30
0.0
 10
-43.39116870586181
 20
29.66523309020999
 30
0.0
 10
-43.49716393814402
 20
29.36752613361358
 30
0.0
 10
-43.57506383758548
 20
29.05375651278276
 30
0.0
 10
-43.61943022704526
 20
28.72296715894701
 30
0.0
 10
-43.62605310278983
 20
28.49726188848938
 30
0.0
 10
-43.62943104358358
 20
28.38214285714287
 30
0.0
  0
SPLINE
  5
13A
330
1F
100
AcDbEntity
  8
0
  6
Continuous
 62
     7
370
    25
100
AcDbSpline
210
0.0
220
0.0
230
1.0
 70
     8
 71
     3
 72
    11
 73
     7
 74
     0
 42
0.000000001
 43
0.00000001
 40
0.0
 40
0.0
 40
0.0
 40
0.0
 40
0.2837744943495258
 40
0.5395840214497862
 40
0.7756449623277235
 40
1.0
 40
1.0
 40
1.0
 40
1.0
 10
-43.62943104358358
 20
28.38214285714287
 30
0.0
 10
-43.62254586965246
 20
28.17579108496163
 30
0.0
 10
-43.60945403119582
 20
27.78342277391216
 30
0.0
 10
-43.48705882863392
 20
27.23068797647608
 30
0.0
 10
-43.28333194233026
 20
26.74621094576777
 30
0.0
 10
-43.07670749962803
 20
26.48177732540082
 30
0.0
 10
-42.97602195267449
 20
26.35292207792209
 30
0.0
  0
SPLINE
  5
13B
330
1F
100
AcDbEntity
  8
0
  6
Continuous
 62
     7
370
    25
100
AcDbSpline
210
0.0
220
0.0
230
1.0
 70
     8
 71
     3
 72
    15
 73
    11
 74
     0
 42
0.000000001
 43
0.00000001
 40
0.0
 40
0.0
 40
0.0
 40
0.0
 40
0.0750156946076061
 40
0.162930184277748
 40
0.2646744147797541
 40
0.3809699752964721
 40
0.5123091530377096
 40
0.6582210125869702
 40
0.8208323791787911
 40
0.9999999999999999
 40
0.9999999999999999
 40
0.9999999999999999
 40
0.9999999999999999
 10
-42.97602195267449
 20
26.35292207792209
 30
0.0
 10
-42.91420064448749
 20
26.29127495823255
 30
0.0
 10
-42.77992798077506
 20
26.15738062287046
 30
0.0
 10
-42.52132342391499
 20
25.98868788225651
 30
0.0
 10
-42.2134951828703
 20
25.81121755180295
 30
0.0
 10
-41.84044873554997
 20
25.65025809496208
 30
0.0
 10
-41.41577978161947
 20
25.48148758452935
 30
0.0
 10
-40.92876611123784
 20
25.32675727260549
 30
0.0
 10
-40.38558453242339
 20
25.16666257525624
 30
0.0
 10
-40.00025823478606
 20
25.07159148202017
 30
0.0
 10
-39.79826221241476
 20
25.02175324675326
 30
0.0
  0
SPLINE
  5
13C
330
1F
100
AcDbEntity
  8
0
  6
Continuous
 62
     7
370
    25
100
AcDbSpline
210
0.0
220
0.0
230
1.0
 70
     8
 71
     3
 72
    15
 73
    11
 74
     0
 42
0.000000001
 43
0.00000001
 40
0.0
 40
0.0
 40
0.0
 40
0.0
 40
0.1693237986142566
 40
0.3253554330119012
 40
0.4689155231524409
 40
0.6003115468851109
 40
0.7188463901177624
 40
0.8249851745593391
 40
0.9187577878191786
 40
0.9999999999999999
 40
0.9999999999999999
 40
0.9999999999999999
 40
0.9999999999999999
 10
-39.79826221241475
 20
25.02175324675326
 30
0.0
 10
-39.59922700119339
 20
24.97373619918736
 30
0.0
 10
-39.21678113202729
 20
24.88147151205767
 30
0.0
 10
-38.66832354032875
 20
24.73757259133846
 30
0.0
 10
-38.16446735625419
 20
24.604562456219
 30
0.0
 10
-37.70596096048856
 20
24.4771761148752
 30
0.0
 10
-37.29598808716879
 20
24.34537203547212
 30
0.0
 10
-36.93092793604568
 20
24.22317465469553
 30
0.0
 10
-36.60870455511208
 20
24.11405241625005
 30
0.0
 10
-36.41442238726673
 20
24.02994972081281
 30
0.0
 10
-36.32423623838878
 20
23.9909090909091
 30
0.0
  0
SPLINE
  5
13D
330
1F
100
AcDbEntity
  8
0
  6
Continuous
 62
     7
370
    25
100
AcDbSpline
210
0.0
220
0.0
230
1.0
 70
     8
 71
     3
 72
    15
 73
    11
 74
     0
 42
0.000000001
 43
0.00000001
 40
0.0
 40
0.0
 40
0.0
 40
0.0
 40
0.1337850715093825
 40
0.2593853989987139
 40
0.3808217004101788
 40
0.4995309368699207
 40
0.618357574144121
 40
0.7398956903217191
 40
0.8662956414442512
 40
1.0
 40
1.0
 40
1.0
 40
1.0
 10
-36.32423623838878
 20
23.9909090909091
 30
0.0
 10
-36.08093846849615
 20
23.87323013366445
 30
0.0
 10
-35.60922747408471
 20
23.645071618411
 30
0.0
 10
-34.98041436977924
 20
23.19784337787192
 30
0.0
 10
-34.44185468493666
 20
22.68966823544038
 30
0.0
 10
-34.00361833874869
 20
22.10927721330092
 30
0.0
 10
-33.65774049491952
 20
21.46945601445761
 30
0.0
 10
-33.41546476965492
 20
20.76767432456246
 30
0.0
 10
-33.26553065712117
 20
20.00916119004246
 30
0.0
 10
-33.24854961236505
 20
19.48405146466534
 30
0.0
 10
-33.2398206539732
 20
19.21412337662339
 30
0.0
  0
LINE
  5
13E
330
1F
100
AcDbEntity
  8
0
  6
Continuous
 62
     7
370
    25
100
AcDbLine
 10
-26.9805194805
 20
-28.2467532468
 30
0.0
 11
-26.9805194805
 21
-30.0
 31
0.0
  0
LINE
  5
13F
330
1F
100
AcDbEntity
  8
0
  6
Continuous
 62
     7
370
    25
100
AcDbLine
 10
-26.9805194805
 20
-30.0
 30
0.0
 11
-36.1363636364
 21
-30.0
 31
0.0
  0
LINE
  5
140
330
1F
100
AcDbEntity
  8
0
  6
Continuous
 62
     7
370
    25
100
AcDbLine
 10
-36.1363636364
 20
-30.0
 30
0.0
 11
-36.1363636364
 21
-15.0
 31
0.0
  0
LINE
  5
141
330
1F
100
AcDbEntity
  8
0
  6
Continuous
 62
     7
370
    25
100
AcDbLine
 10
-36.1363636364
 20
-15.0
 30
0.0
 11
-27.1753246753
 21
-15.0
 31
0.0
  0
LINE
  5
142
330
1F
100
AcDbEntity
  8
0
  6
Continuous
 62
     7
370
    25
100
AcDbLine
 10
-27.1753246753
 20
-15.0
 30
0.0
 11
-27.1753246753
 21
-16.7532467532
 31
0.0
  0
LINE
  5
143
330
1F
100
AcDbEntity
  8
0
  6
Continuous
 62
     7
370
    25
100
AcDbLine
 10
-27.1753246753
 20
-16.7532467532
 30
0.0
 11
-34.5779220779
 21
-16.7532467532
 31
0.0
  0
LINE
  5
144
330
1F
100
AcDbEntity
  8
0
  6
Continuous
 62
     7
370
    25
100
AcDbLine
 10
-34.5779220779
 20
-16.7532467532
 30
0.0
 11
-34.5779220779
 21
-21.4285714286
 31
0.0
  0
LINE
  5
145
330
1F
100
AcDbEntity
  8
0
  6
Continuous
 62
     7
370
    25
100
AcDbLine
 10
-34.5779220779
 20
-21.4285714286
 30
0.0
 11
-27.5649350649
 21
-21.4285714286
 31
0.0
  0
LINE
  5
146
330
1F
100
AcDbEntity
  8
0
  6
Continuous
 62
     7
370
    25
100
AcDbLine
 10
-27.5649350649
 20
-21.4285714286
 30
0.0
 11
-27.5649350649
 21
-23.1818181818
 31
0.0
  0
LINE
  5
147
330
1F
100
AcDbEntity
  8
0
  6
Continuous
 62
     7
370
    25
100
AcDbLine
 10
-27.5649350649
 20
-23.1818181818
 30
0.0
 11
-34.5779220779
 21
-23.1818181818
 31
0.0
  0
LINE
  5
148
330
1F
100
AcDbEntity
  8
0
  6
Continuous
 62
     7
370
    25
100
AcDbLine
 10
-34.5779220779
 20
-23.1818181818
 30
0.0
 11
-34.5779220779
 21
-28.2467532468
 31
0.0
  0
LINE
  5
149
330
1F
100
AcDbEntity
  8
0
  6
Continuous
 62
     7
370
    25
100
AcDbLine
 10
-34.5779220779
 20
-28.2467532468
 30
0.0
 11
-26.9805194805
 21
-28.2467532468
 31
0.0
  0
SPLINE
  5
14A
330
1F
100
AcDbEntity
  8
0
  6
Continuous
 62
     7
370
    25
100
AcDbSpline
210
0.0
220
0.0
230
1.0
 70
     8
 71
     3
 72
    23
 73
    19
 74
     0
 42
0.000000001
 43
0.00000001
 40
0.0
 40
0.0
 40
0.0
 40
0.0
 40
0.0876154494843236
 40
0.170302171550698
 40
0.2482334163501868
 40
0.321396202199788
 40
0.3904730161376171
 40
0.4560937724985567
 40
0.5188127139647994
 40
0.5787792272589203
 40
0.636425691838848
 40
0.6914923998091861
 40
0.7441558611970781
 40
0.7953714893740017
 40
0.8457411026680022
 40
0.8962952206577741
 40
0.9472550056595802
 40
0.9999999999999999
 40
0.9999999999999999
 40
0.9999999999999999
 40
0.9999999999999999
 10
8.668831168831174
 20
-24.93506493506494
 30
0.0
 10
8.678145313908557
 20
-25.08337710051279
 30
0.0
 10
8.696249645303904
 20
-25.37165826544219
 30
0.0
 10
8.753146070536378
 20
-25.78890044692353
 30
0.0
 10
8.822471184838943
 20
-26.17951847430389
 30
0.0
 10
8.922099006619021
 20
-26.53969237798492
 30
0.0
 10
9.036089940168415
 20
-26.87351424293016
 30
0.0
 10
9.1735394205959
 20
-27.17922026603328
 30
0.0
 10
9.330659208022636
 20
-27.45790199250299
 30
0.0
 10
9.512161559259106
 20
-27.70467851497388
 30
0.0
 10
9.70608735576146
 20
-27.92459279686913
 30
0.0
 10
9.913579524231817
 20
-28.11405352562857
 30
0.0
 10
10.13136106914208
 20
-28.27366054251456
 30
0.0
 10
10.35780287191653
 20
-28.40538073108373
 30
0.0
 10
10.59385403454658
 20
-28.51105649630405
 30
0.0
 10
10.84164340127367
 20
-28.58363007781959
 30
0.0
 10
11.10032399684046
 20
-28.62728228671923
 30
0.0
 10
11.27620913966982
 20
-28.63330197814373
 30
0.0
 10
11.36566558441558
 20
-28.63636363636364
 30
0.0
  0
SPLINE
  5
14B
330
1F
100
AcDbEntity
  8
0
  6
Continuous
 62
     7
370
    25
100
AcDbSpline
210
0.0
220
0.0
230
1.0
 70
     8
 71
     3
 72
    15
 73
    11
 74
     0
 42
0.000000001
 43
0.00000001
 40
0.0
 40
0.0
 40
0.0
 40
0.0
 40
0.1186653269132554
 40
0.2319161921032994
 40
0.342835391913455
 40
0.4563370366306618
 40
0.5756178245652287
 40
0.7041314206046428
 40
0.8450426418140555
 40
1.0
 40
1.0
 40
1.0
 40
1.0
 10
11.36566558441558
 20
-28.63636363636364
 30
0.0
 10
11.50227311688723
 20
-28.63028536759863
 30
0.0
 10
11.76925505312386
 20
-28.61840616932539
 30
0.0
 10
12.15292116540245
 20
-28.51475342829839
 30
0.0
 10
12.50391677263424
 20
-28.34412110996419
 30
0.0
 10
12.82164816112303
 20
-28.10522839841353
 30
0.0
 10
13.10430401828624
 20
-27.7979888458399
 30
0.0
 10
13.35013768250121
 20
-27.42323305780899
 30
0.0
 10
13.56818653625798
 20
-26.98514785380492
 30
0.0
 10
13.67685337592855
 20
-26.66249288052655
 30
0.0
 10
13.73376623376624
 20
-26.49350649350649
 30
0.0
  0
LINE
  5
14C
330
1F
100
AcDbEntity
  8
0
  6
Continuous
 62
     7
370
    25
100
AcDbLine
 10
13.7337662338
 20
-26.4935064935
 30
0.0
 11
15.2922077922
 21
-26.6883116883
 31
0.0
  0
SPLINE
  5
14D
330
1F
100
AcDbEntity
  8
0
  6
Continuous
 62
     7
370
    25
100
AcDbSpline
210
0.0
220
0.0
230
1.0
 70
     8
 71
     3
 72
    23
 73
    19
 74
     0
 42
0.000000001
 43
0.00000001
 40
0.0
 40
0.0
 40
0.0
 40
0.0
 40
0.0751740795014804
 40
0.1473104555179358
 40
0.2160446336608813
 40
0.2819289914358573
 40
0.345137428642605
 40
0.4065198356943838
 40
0.4664264772446094
 40
0.5254375047609818
 40
0.5833275903162017
 40
0.6405930228173815
 40
0.6982151922607711
 40
0.7555754854835248
 40
0.8140406522312593
 40
0.8738960775861309
 40
0.9360548224002079
 40
0.9999999999999999
 40
0.9999999999999999
 40
0.9999999999999999
 40
0.9999999999999999
 10
15.2922077922078
 20
-26.6883116883117
 30
0.0
 10
15.25863442004132
 20
-26.82886135669472
 30
0.0
 10
15.19284433947213
 20
-27.10428123293
 30
0.0
 10
15.06361434235724
 20
-27.49919791907174
 30
0.0
 10
14.91897148457957
 20
-27.8695298569147
 30
0.0
 10
14.75098668889221
 20
-28.21106130908198
 30
0.0
 10
14.56434128284223
 20
-28.52624891839699
 30
0.0
 10
14.36107196572408
 20
-28.81724873898587
 30
0.0
 10
14.13492615026978
 20
-29.08057855230059
 30
0.0
 10
13.88774279178975
 20
-29.31439216700438
 30
0.0
 10
13.62518139209021
 20
-29.52261003017884
 30
0.0
 10
13.34633749785337
 20
-29.70374464749406
 30
0.0
 10
13.05170914863901
 20
-29.85590165876716
 30
0.0
 10
12.74087142181527
 20
-29.97739989266105
 30
0.0
 10
12.41753264032772
 20
-30.07559813530277
 30
0.0
 10
12.07748932137975
 20
-30.14641066780625
 30
0.0
 10
11.72165473138323
 20
-30.18459973242186
 30
0.0
 10
11.47938499732638
 20
-30.19137139740997
 30
0.0
 10
11.35653409090909
 20
-30.1948051948052
 30
0.0
  0
SPLINE
  5
14E
330
1F
100
AcDbEntity
  8
0
  6
Continuous
 62
     7
370
    25
100
AcDbSpline
210
0.0
220
0.0
230
1.0
 70
     8
 71
     3
 72
    23
 73
    19
 74
     0
 42
0.000000001
 43
0.00000001
 40
0.0
 40
0.0
 40
0.0
 40
0.0
 40
0.0587341898284642
 40
0.1153447505345627
 40
0.170494147048887
 40
0.2241814656365732
 40
0.2780627018990018
 40
0.3321371604279575
 40
0.3879138319075616
 40
0.4452968628180989
 40
0.5044393244857402
 40
0.5652915907029163
 40
0.6287049475079524
 40
0.6949857736129998
 40
0.7648293845084247
 40
0.8386967221529091
 40
0.9169776819866122
 40
1.0
 40
1.0
 40
1.0
 40
1.0
 10
11.35653409090909
 20
-30.1948051948052
 30
0.0
 10
11.20205140350898
 20
-30.19112864023162
 30
0.0
 10
10.898671598797
 20
-30.18390846282978
 30
0.0
 10
10.45471698191032
 20
-30.11464953547933
 30
0.0
 10
10.03315871980676
 20
-30.00404198926187
 30
0.0
 10
9.636222044746237
 20
-29.84196797900625
 30
0.0
 10
9.260718324813885
 20
-29.64158428074638
 30
0.0
 10
8.90626652458479
 20
-29.39548279699501
 30
0.0
 10
8.57834878001179
 20
-29.10134800316476
 30
0.0
 10
8.272764575339252
 20
-28.76603989917208
 30
0.0
 10
7.998223586289967
 20
-28.38784181767676
 30
0.0
 10
7.761222562480874
 20
-27.96710144064373
 30
0.0
 10
7.55572281101992
 20
-27.50944680407051
 30
0.0
 10
7.392969087508646
 20
-27.00996370914825
 30
0.0
 10
7.265428813728358
 20
-26.4723618265391
 30
0.0
 10
7.175620014647018
 20
-25.89532815443724
 30
0.0
 10
7.120061184585021
 20
-25.27909662130853
 30
0.0
 10
7.11367603032328
 20
-24.85503350628973
 30
0.0
 10
7.11038961038961
 20
-24.63676948051948
 30
0.0
  0
SPLINE
  5
14F
330
1F
100
AcDbEntity
  8
0
  6
Continuous
 62
     7
370
    25
100
AcDbSpline
210
0.0
220
0.0
230
1.0
 70
     8
 71
     3
 72
    23
 73
    19
 74
     0
 42
0.000000001
 43
0.00000001
 40
0.0
 40
0.0
 40
0.0
 40
0.0
 40
0.0845140589072088
 40
0.1643974640191763
 40
0.2395750313759969
 40
0.3104239783222227
 40
0.3775135443480236
 40
0.4416377043835411
 40
0.5030546053672192
 40
0.5629955254894575
 40
0.6209211377338391
 40
0.676452027811072
 40
0.73018194590219
 40
0.7834275167491856
 40
0.8359129017490201
 40
0.8894099145871511
 40
0.9438483896733306
 40
1.0
 40
1.0
 40
1.0
 40
1.0
 10
7.110389610389609
 20
-24.63676948051948
 30
0.0
 10
7.113412516713749
 20
-24.4103761844087
 30
0.0
 10
7.119292699728056
 20
-23.96999402512301
 30
0.0
 10
7.178560433807728
 20
-23.33046503225283
 30
0.0
 10
7.271560276634066
 20
-22.73228573707109
 30
0.0
 10
7.400602256999067
 20
-22.17555719463297
 30
0.0
 10
7.572094690225719
 20
-21.66150741464558
 30
0.0
 10
7.778103145444255
 20
-21.18771210075415
 30
0.0
 10
8.022707705039576
 20
-20.75421732914375
 30
0.0
 10
8.30537666372544
 20
-20.3647244637388
 30
0.0
 10
8.61967961315196
 20
-20.02174027454562
 30
0.0
 10
8.952352683969174
 20
-19.72110478527872
 30
0.0
 10
9.305093861208833
 20
-19.46435205865665
 30
0.0
 10
9.680380891264447
 20
-19.25850739449491
 30
0.0
 10
10.07472064374019
 20
-19.09382637194
 30
0.0
 10
10.48970269042476
 20
-18.97859369862679
 30
0.0
 10
10.92515261707335
 20
-18.91115611159132
 30
0.0
 10
11.22135688417453
 20
-18.90117285102159
 30
0.0
 10
11.37175324675325
 20
-18.8961038961039
 30
0.0
  0
SPLINE
  5
150
330
1F
100
AcDbEntity
  8
0
  6
Continuous
 62
     7
370
    25
100
AcDbSpline
210
0.0
220
0.0
230
1.0
 70
     8
 71
     3
 72
    23
 73
    19
 74
     0
 42
0.000000001
 43
0.00000001
 40
0.0
 40
0.0
 40
0.0
 40
0.0
 40
0.0557100424195541
 40
0.1096941846574611
 40
0.162657539786812
 40
0.2151959237789862
 40
0.2681752214677423
 40
0.3220198143719792
 40
0.3777959651469585
 40
0.4360484208090912
 40
0.4963179690392424
 40
0.558287034542155
 40
0.6225023714251415
 40
0.6899116898299
 40
0.7608135188621112
 40
0.8358624660883696
 40
0.9157197899396027
 40
1.0
 40
1.0
 40
1.0
 40
1.0
 10
11.37175324675325
 20
-18.8961038961039
 30
0.0
 10
11.51609115391791
 20
-18.89984275336435
 30
0.0
 10
11.80029537193579
 20
-18.90720463788145
 30
0.0
 10
12.21718122220089
 20
-18.97612967020821
 30
0.0
 10
12.61505704294554
 20
-19.0894370221644
 30
0.0
 10
12.99563869039145
 20
-19.24529097129599
 30
0.0
 10
13.35696329936741
 20
-19.44693842362166
 30
0.0
 10
13.69618530596327
 20
-19.69774321493783
 30
0.0
 10
14.02072170871316
 20
-19.98785629746945
 30
0.0
 10
14.32458837827346
 20
-20.3226928238037
 30
0.0
 10
14.60184377328335
 20
-20.69995624428762
 30
0.0
 10
14.84366864926475
 20
-21.11912282246938
 30
0.0
 10
15.04280693429476
 20
-21.57996153847713
 30
0.0
 10
15.21209195349503
 20
-22.07704185337742
 30
0.0
 10
15.3366609791898
 20
-22.61597341252851
 30
0.0
 10
15.43240139566768
 20
-23.19313950599918
 30
0.0
 10
15.48598852675524
 20
-23.81087452506694
 30
0.0
 10
15.49269888962518
 20
-24.23590030248567
 30
0.0
 10
15.49614448051948
 20
-24.45413961038961
 30
0.0
  0
LINE
  5
151
330
1F
100
AcDbEntity
  8
0
  6
Continuous
 62
     7
370
    25
100
AcDbLine
 10
15.4961444805
 20
-24.4541396104
 30
0.0
 11
15.487012987
 21
-24.9350649351
 31
0.0
  0
LINE
  5
152
330
1F
100
AcDbEntity
  8
0
  6
Continuous
 62
     7
370
    25
100
AcDbLine
 10
15.487012987
 20
-24.9350649351
 30
0.0
 11
8.6688311688
 21
-24.9350649351
 31
0.0
  0
LINE
  5
153
330
1F
100
AcDbEntity
  8
0
  6
Continuous
 62
     7
370
    25
100
AcDbLine
 10
-17.6298701299
 20
-19.0909090909
 30
0.0
 11
-17.6298701299
 21
-34.0909090909
 31
0.0
  0
LINE
  5
154
330
1F
100
AcDbEntity
  8
0
  6
Continuous
 62
     7
370
    25
100
AcDbLine
 10
-17.6298701299
 20
-34.0909090909
 30
0.0
 11
-19.1883116883
 21
-34.0909090909
 31
0.0
  0
LINE
  5
155
330
1F
100
AcDbEntity
  8
0
  6
Continuous
 62
     7
370
    25
100
AcDbLine
 10
-19.1883116883
 20
-34.0909090909
 30
0.0
 11
-19.1883116883
 21
-28.7520292208
 31
0.0
  0
SPLINE
  5
156
330
1F
100
AcDbEntity
  8
0
  6
Continuous
 62
     7
370
    25
100
AcDbSpline
210
0.0
220
0.0
230
1.0
 70
     8
 71
     3
 72
    15
 73
    11
 74
     0
 42
0.000000001
 43
0.00000001
 40
0.0
 40
0.0
 40
0.0
 40
0.0
 40
0.1293665014379887
 40
0.2562429503855008
 40
0.3850657699751007
 40
0.5171610272424098
 40
0.6467918027499497
 40
0.7682014772889466
 40
0.8855045861692501
 40
1.0
 40
1.0
 40
1.0
 40
1.0
 10
-19.18831168831169
 20
-28.75202922077922
 30
0.0
 10
-19.25147884631131
 20
-28.8564531212002
 30
0.0
 10
-19.37659731788914
 20
-29.06329096590654
 30
0.0
 10
-19.61383302391237
 20
-29.3396543239822
 30
0.0
 10
-19.88267438347244
 20
-29.588061302352
 30
0.0
 10
-20.18377874763524
 20
-29.80130569689995
 30
0.0
 10
-20.50246139878398
 20
-29.97264246514901
 30
0.0
 10
-20.82578189457584
 20
-30.10018088240803
 30
0.0
 10
-21.15065490722539
 20
-30.18104260854741
 30
0.0
 10
-21.36928284202014
 20
-30.19025486099138
 30
0.0
 10
-21.47727272727273
 20
-30.1948051948052
 30
0.0
  0
SPLINE
  5
157
330
1F
100
AcDbEntity
  8
0
  6
Continuous
 62
     7
370
    25
100
AcDbSpline
210
0.0
220
0.0
230
1.0
 70
     8
 71
     3
 72
    23
 73
    19
 74
     0
 42
0.000000001
 43
0.00000001
 40
0.0
 40
0.0
 40
0.0
 40
0.0
 40
0.0511068339855102
 40
0.1009786158175333
 40
0.1504894241655132
 40
0.2006965908557629
 40
0.2523145283785782
 40
0.3062431511114752
 40
0.3628476416472378
 40
0.4224336780077071
 40
0.4844755438312344
 40
0.5483913136902304
 40
0.6144954587321175
 40
0.6837381835765035
 40
0.7566472755447076
 40
0.8332874394638873
 40
0.9144271948472037
 40
1.0
 40
1.0
 40
1.0
 40
1.0
 10
-21.47727272727273
 20
-30.1948051948052
 30
0.0
 10
-21.60946884165122
 20
-30.18997013904271
 30
0.0
 10
-21.87066640771805
 20
-30.1804168718919
 30
0.0
 10
-22.2547519505038
 20
-30.10889803844385
 30
0.0
 10
-22.62325047737275
 20
-29.98831466279936
 30
0.0
 10
-22.97865505784781
 20
-29.82237446063919
 30
0.0
 10
-23.32211135505461
 20
-29.61037223039088
 30
0.0
 10
-23.65197002675863
 20
-29.35001985490254
 30
0.0
 10
-23.96512878884747
 20
-29.04004495345402
 30
0.0
 10
-24.26291606707469
 20
-28.68759504039374
 30
0.0
 10
-24.53753984485643
 20
-28.2930852032373
 30
0.0
 10
-24.7742050563296
 20
-27.85543607180448
 30
0.0
 10
-24.97599648525868
 20
-27.38057797542174
 30
0.0
 10
-25.13971162597128
 20
-26.86681761556923
 30
0.0
 10
-25.26656544765239
 20
-26.31488920616064
 30
0.0
 10
-25.35689111258865
 20
-25.72484097068335
 30
0.0
 10
-25.41227802758156
 20
-25.09745127547273
 30
0.0
 10
-25.4187538907376
 20
-24.66631065312341
 30
0.0
 10
-25.42207792207792
 20
-24.44500811688312
 30
0.0
  0
SPLINE
  5
158
330
1F
100
AcDbEntity
  8
0
  6
Continuous
 62
     7
370
    25
100
AcDbSpline
210
0.0
220
0.0
230
1.0
 70
     8
 71
     3
 72
    23
 73
    19
 74
     0
 42
0.000000001
 43
0.00000001
 40
0.0
 40
0.0
 40
0.0
 40
0.0
 40
0.0776367226318459
 40
0.1518572257173251
 40
0.2233723435943843
 40
0.2924278956242715
 40
0.3592234864233584
 40
0.4243231319134821
 40
0.4877909605391944
 40
0.5500619723443104
 40
0.610397948828038
 40
0.6679352107417952
 40
0.722959756015272
 40
0.7766618360394555
 40
0.8303623947367069
 40
0.8850772420906735
 40
0.9412988315553676
 40
1.0
 40
1.0
 40
1.0
 40
1.0
 10
-25.42207792207792
 20
-24.44500811688312
 30
0.0
 10
-25.41922854499732
 20
-24.2501175026947
 30
0.0
 10
-25.41365517090561
 20
-23.86891197281496
 30
0.0
 10
-25.36791460614665
 20
-23.30962496854123
 30
0.0
 10
-25.28893131464244
 20
-22.77591679386995
 30
0.0
 10
-25.17867968609131
 20
-22.26690254926756
 30
0.0
 10
-25.04324763352033
 20
-21.78065501463291
 30
0.0
 10
-24.87350318528544
 20
-21.31982969176836
 30
0.0
 10
-24.66699839966125
 20
-20.88712054687409
 30
0.0
 10
-24.43902767342738
 20
-20.47893535556824
 30
0.0
 10
-24.17920329516164
 20
-20.10771435544936
 30
0.0
 10
-23.88981885007431
 20
-19.78278531354436
 30
0.0
 10
-23.57333536410309
 20
-19.5089879678243
 30
0.0
 10
-23.23220763933104
 20
-19.28345546271557
 30
0.0
 10
-22.86317988084809
 20
-19.10875826934988
 30
0.0
 10
-22.46815975554006
 20
-18.9836622584496
 30
0.0
 10
-22.04722858275575
 20
-18.90945232552659
 30
0.0
 10
-21.75861940855071
 20
-18.90061691697877
 30
0.0
 10
-21.6112012987013
 20
-18.8961038961039
 30
0.0
  0
SPLINE
  5
159
330
1F
100
AcDbEntity
  8
0
  6
Continuous
 62
     7
370
    25
100
AcDbSpline
210
0.0
220
0.0
230
1.0
 70
     8
 71
     3
 72
    15
 73
    11
 74
     0
 42
0.000000001
 43
0.00000001
 40
0.0
 40
0.0
 40
0.0
 40
0.0
 40
0.1218878960161244
 40
0.2390307839099391
 40
0.353973276236307
 40
0.4707146871586504
 40
0.5914756017120184
 40
0.7179403526780408
 40
0.8535327226161592
 40
0.9999999999999999
 40
0.9999999999999999
 40
0.9999999999999999
 40
0.9999999999999999
 10
-21.6112012987013
 20
-18.8961038961039
 30
0.0
 10
-21.47474812924491
 20
-18.9008161728256
 30
0.0
 10
-21.2071538140732
 20
-18.9100572807256
 30
0.0
 10
-20.81934539397243
 20
-18.99924610766545
 30
0.0
 10
-20.45411046849058
 20
-19.13979322278333
 30
0.0
 10
-20.11375950673586
 20
-19.34158526560841
 30
0.0
 10
-19.79479968811437
 20
-19.59632115861772
 30
0.0
 10
-19.50092764104082
 20
-19.90902897554516
 30
0.0
 10
-19.2279343037547
 20
-20.27675887632117
 30
0.0
 10
-19.07363215453394
 20
-20.55205367458051
 30
0.0
 10
-18.99350649350649
 20
-20.69500811688312
 30
0.0
  0
LINE
  5
15A
330
1F
100
AcDbEntity
  8
0
  6
Continuous
 62
     7
370
    25
100
AcDbLine
 10
-18.9935064935
 20
-20.6950081169
 30
0.0
 11
-18.9935064935
 21
-19.0909090909
 31
0.0
  0
LINE
  5
15B
330
1F
100
AcDbEntity
  8
0
  6
Continuous
 62
     7
370
    25
100
AcDbLine
 10
-18.9935064935
 20
-19.0909090909
 30
0.0
 11
-17.6298701299
 21
-19.0909090909
 31
0.0
  0
LINE
  5
15C
330
1F
100
AcDbEntity
  8
0
  6
Continuous
 62
     7
370
    25
100
AcDbLine
 10
-29.512987013
 20
-11.1038961039
 30
0.0
 11
-31.2540584416
 21
-14.025974026
 31
0.0
  0
LINE
  5
15D
330
1F
100
AcDbEntity
  8
0
  6
Continuous
 62
     7
370
    25
100
AcDbLine
 10
-31.2540584416
 20
-14.025974026
 30
0.0
 11
-32.4350649351
 21
-14.025974026
 31
0.0
  0
LINE
  5
15E
330
1F
100
AcDbEntity
  8
0
  6
Continuous
 62
     7
370
    25
100
AcDbLine
 10
-32.4350649351
 20
-14.025974026
 30
0.0
 11
-31.461038961
 21
-11.1038961039
 31
0.0
  0
LINE
  5
15F
330
1F
100
AcDbEntity
  8
0
  6
Continuous
 62
     7
370
    25
100
AcDbLine
 10
-31.461038961
 20
-11.1038961039
 30
0.0
 11
-29.512987013
 21
-11.1038961039
 31
0.0
  0
LINE
  5
160
330
1F
100
AcDbEntity
  8
0
  6
Continuous
 62
     7
370
    25
100
AcDbLine
 10
35.9050324675
 20
-14.8051948052
 30
0.0
 11
36.9155844156
 21
-14.8051948052
 31
0.0
  0
LINE
  5
161
330
1F
100
AcDbEntity
  8
0
  6
Continuous
 62
     7
370
    25
100
AcDbLine
 10
36.9155844156
 20
-14.8051948052
 30
0.0
 11
36.9155844156
 21
-30.0
 31
0.0
  0
LINE
  5
162
330
1F
100
AcDbEntity
  8
0
  6
Continuous
 62
     7
370
    25
100
AcDbLine
 10
36.9155844156
 20
-30.0
 30
0.0
 11
35.3571428571
 21
-30.0
 31
0.0
  0
LINE
  5
163
330
1F
100
AcDbEntity
  8
0
  6
Continuous
 62
     7
370
    25
100
AcDbLine
 10
35.3571428571
 20
-30.0
 30
0.0
 11
35.3571428571
 21
-18.1168831169
 31
0.0
  0
SPLINE
  5
164
330
1F
100
AcDbEntity
  8
0
  6
Continuous
 62
     7
370
    25
100
AcDbSpline
210
0.0
220
0.0
230
1.0
 70
     8
 71
     3
 72
    15
 73
    11
 74
     0
 42
0.000000001
 43
0.00000001
 40
0.0
 40
0.0
 40
0.0
 40
0.0
 40
0.1115694784847073
 40
0.2312276298721087
 40
0.3616269854306239
 40
0.5010346984701859
 40
0.6401569435219204
 40
0.7693287052360824
 40
0.8892759623006167
 40
1.0
 40
1.0
 40
1.0
 40
1.0
 10
35.35714285714286
 20
-18.11688311688312
 30
0.0
 10
35.26143327149605
 20
-18.22705305867182
 30
0.0
 10
35.06307525328424
 20
-18.45538015017508
 30
0.0
 10
34.71873590595315
 20
-18.78009308903797
 30
0.0
 10
34.33500774723973
 20
-19.11493838243316
 30
0.0
 10
33.91016972740058
 20
-19.43985660276304
 30
0.0
 10
33.4772936019768
 20
-19.75107568504982
 30
0.0
 10
33.04974798418285
 20
-20.02479827725478
 30
0.0
 10
32.6435570893453
 20
-20.26295756895504
 30
0.0
 10
32.37106033018583
 20
-20.39240815432581
 30
0.0
 10
32.24025974025975
 20
-20.45454545454545
 30
0.0
  0
LINE
  5
165
330
1F
100
AcDbEntity
  8
0
  6
Continuous
 62
     7
370
    25
100
AcDbLine
 10
32.2402597403
 20
-20.4545454545
 30
0.0
 11
32.2402597403
 21
-18.7012987013
 31
0.0
  0
SPLINE
  5
166
330
1F
100
AcDbEntity
  8
0
  6
Continuous
 62
     7
370
    25
100
AcDbSpline
210
0.0
220
0.0
230
1.0
 70
     8
 71
     3
 72
    15
 73
    11
 74
     0
 42
0.000000001
 43
0.00000001
 40
0.0
 40
0.0
 40
0.0
 40
0.0
 40
0.1352840289639615
 40
0.2694096554749932
 40
0.4028008870521622
 40
0.5361909441160791
 40
0.6652106699871664
 40
0.7853428009871231
 40
0.89631776652847
 40
1.0
 40
1.0
 40
1.0
 40
1.0
 10
32.24025974025975
 20
-18.7012987012987
 30
0.0
 10
32.45046683952576
 20
-18.57478806868084
 30
0.0
 10
32.86908108856429
 20
-18.32285008155465
 30
0.0
 10
33.4556144364464
 20
-17.88641213096898
 30
0.0
 10
34.0097049106703
 20
-17.41534911576627
 30
0.0
 10
34.51479088669624
 20
-16.90472534996731
 30
0.0
 10
34.96703990231373
 20
-16.37834868998032
 30
0.0
 10
35.35521562974964
 20
-15.85302413620963
 30
0.0
 10
35.67349513969106
 20
-15.33433318551302
 30
0.0
 10
35.82962142877024
 20
-14.97753364697366
 30
0.0
 10
35.90503246753246
 20
-14.80519480519481
 30
0.0
  0
MTEXT
  5
168
330
1F
100
AcDbEntity
  8
0
  6
Continuous
 62
     7
100
AcDbMText
 10
-192.7
 20
-87.3695663917
 30
0.0
 40
4.83362
 41
0.0
 71
     1
 72
     1
  1
SOLIDWORKS Educational Product.
  7
SLDTEXTSTYLE0
 73
     1
 44
1.0
  0
MTEXT
  5
169
330
1F
100
AcDbEntity
  8
0
  6
Continuous
 62
     7
100
AcDbMText
 10
-192.7
 20
-94.6199963917
 30
0.0
 40
4.83362
 41
0.0
 71
     1
 72
     1
  1
For Instructional Use Only.
  7
SLDTEXTSTYLE0
 73
     1
 44
1.0
  0
ENDSEC
  0
SECTION
  2
OBJECTS
  0
DICTIONARY
  5
C
330
0
100
AcDbDictionary
281
     1
  3
ACAD_GROUP
350
D
  3
ACAD_LAYOUT
350
1A
  3
ACAD_MLINESTYLE
350
17
  3
ACAD_PLOTSETTINGS
350
19
  3
ACAD_PLOTSTYLENAME
350
E
  3
ACAD_SCALELIST
350
47
  0
DICTIONARY
  5
D
102
{ACAD_REACTORS
330
C
102
}
330
C
100
AcDbDictionary
281
     1
  0
DICTIONARY
  5
1A
102
{ACAD_REACTORS
330
C
102
}
330
C
100
AcDbDictionary
281
     1
  3
Layout1
350
1E
  3
Layout2
350
26
  3
Model
350
22
  0
DICTIONARY
  5
17
102
{ACAD_REACTORS
330
C
102
}
330
C
100
AcDbDictionary
281
     1
  3
Standard
350
18
  0
DICTIONARY
  5
19
102
{ACAD_REACTORS
330
C
102
}
330
C
100
AcDbDictionary
281
     1
  0
ACDBDICTIONARYWDFLT
  5
E
102
{ACAD_REACTORS
330
C
102
}
330
C
100
AcDbDictionary
281
     1
  3
Normal
350
F
100
AcDbDictionaryWithDefault
340
F
  0
DICTIONARY
  5
47
102
{ACAD_REACTORS
330
C
102
}
330
C
100
AcDbDictionary
281
     1
  3
A0
350
48
  3
A1
350
49
  3
A2
350
4A
  3
A3
350
4B
  3
A4
350
4C
  3
A5
350
4D
  3
A6
350
4E
  3
A7
350
4F
  3
A8
350
50
  3
A9
350
51
  3
B0
350
52
  3
B1
350
53
  3
B2
350
54
  3
B3
350
55
  3
B4
350
56
  3
B5
350
57
  3
B6
350
58
  3
B7
350
59
  3
B8
350
5A
  3
B9
350
5B
  3
C0
350
5C
  3
C1
350
5D
  3
C2
350
5E
  3
C3
350
5F
  3
C4
350
60
  3
C5
350
61
  3
C6
350
62
  3
C7
350
63
  3
C8
350
64
  3
C9
350
65
  3
D0
350
66
  3
D1
350
67
  3
D2
350
68
  0
LAYOUT
  5
1E
102
{ACAD_REACTORS
330
1A
102
}
330
1A
100
AcDbPlotSettings
  1

  2
none_device
  4

  6

 40
0.0
 41
0.0
 42
0.0
 43
0.0
 44
0.0
 45
0.0
 46
0.0
 47
0.0
 48
0.0
 49
0.0
140
0.0
141
0.0
142
1.0
143
1.0
 70
   688
 72
     1
 73
     0
 74
     5
  7

 75
    16
147
1.0
148
0.0
149
0.0
100
AcDbLayout
  1
Layout1
 70
     1
 71
     1
 10
0.0
 20
0.0
 11
420.0
 21
297.0
 12
0.0
 22
0.0
 32
0.0
 14
1.0000000000E+20
 24
1.0000000000E+20
 34
1.0000000000E+20
 15
-1.0000000000E+20
 25
-1.0000000000E+20
 35
-1.0000000000E+20
146
0.0
 13
0.0
 23
0.0
 33
0.0
 16
1.0
 26
0.0
 36
0.0
 17
0.0
 27
1.0
 37
0.0
 76
     0
330
1B
  0
LAYOUT
  5
26
102
{ACAD_REACTORS
330
1A
102
}
330
1A
100
AcDbPlotSettings
  1

  2
none_device
  4

  6

 40
0.0
 41
0.0
 42
0.0
 43
0.0
 44
0.0
 45
0.0
 46
0.0
 47
0.0
 48
0.0
 49
0.0
140
0.0
141
0.0
142
1.0
143
1.0
 70
   688
 72
     1
 73
     0
 74
     5
  7

 75
    16
147
1.0
148
0.0
149
0.0
100
AcDbLayout
  1
Layout2
 70
     1
 71
     2
 10
0.0
 20
0.0
 11
0.0
 21
0.0
 12
0.0
 22
0.0
 32
0.0
 14
0.0
 24
0.0
 34
0.0
 15
0.0
 25
0.0
 35
0.0
146
0.0
 13
0.0
 23
0.0
 33
0.0
 16
1.0
 26
0.0
 36
0.0
 17
0.0
 27
1.0
 37
0.0
 76
     0
330
23
  0
LAYOUT
  5
22
102
{ACAD_REACTORS
330
1A
102
}
330
1A
100
AcDbPlotSettings
  1

  2
none_device
  4
ANSI_A_(11.00_x_8.50_Inches)
  6

 40
6.35
 41
19.05
 42
6.35000508
 43
19.05000254
 44
279.4
 45
215.9
 46
133.34999746
 47
91.1787326428
 48
0.0
 49
0.0
140
0.0
141
0.0
142
0.028256357
143
1.0
 70
  1696
 72
     0
 73
     0
 74
     0
  7

 75
     0
147
0.0179189148
148
-1300.4909072572
149
0.0
100
AcDbLayout
  1
Model
 70
     1
 71
     0
 10
0.0
 20
0.0
 11
420.0
 21
297.0
 12
0.0
 22
0.0
 32
0.0
 14
-192.7
 24
-86.35
 34
0.0
 15
192.7
 25
80.0
 35
0.0
146
0.0
 13
0.0
 23
0.0
 33
0.0
 16
1.0
 26
0.0
 36
0.0
 17
0.0
 27
1.0
 37
0.0
 76
     0
330
1F
331
29
  0
MLINESTYLE
  5
18
102
{ACAD_REACTORS
330
17
102
}
330
17
100
AcDbMlineStyle
  2
Standard
 70
     0
  3

 62
   256
 51
90.0
 52
90.0
 71
     2
 49
0.5
 62
   256
  6
BYLAYER
 49
-0.5
 62
   256
  6
BYLAYER
  0
ACDBPLACEHOLDER
  5
F
102
{ACAD_REACTORS
330
E
102
}
330
E
  0
SCALE
  5
48
102
{ACAD_REACTORS
330
47
102
}
330
47
100
AcDbScale
 70
     0
300
1:1
140
1.0
141
1.0
290
     1
  0
SCALE
  5
49
102
{ACAD_REACTORS
330
47
102
}
330
47
100
AcDbScale
 70
     0
300
1:2
140
1.0
141
2.0
290
     0
  0
SCALE
  5
4A
102
{ACAD_REACTORS
330
47
102
}
330
47
100
AcDbScale
 70
     0
300
1:4
140
1.0
141
4.0
290
     0
  0
SCALE
  5
4B
102
{ACAD_REACTORS
330
47
102
}
330
47
100
AcDbScale
 70
     0
300
1:5
140
1.0
141
5.0
290
     0
  0
SCALE
  5
4C
102
{ACAD_REACTORS
330
47
102
}
330
47
100
AcDbScale
 70
     0
300
1:8
140
1.0
141
8.0
290
     0
  0
SCALE
  5
4D
102
{ACAD_REACTORS
330
47
102
}
330
47
100
AcDbScale
 70
     0
300
1:10
140
1.0
141
10.0
290
     0
  0
SCALE
  5
4E
102
{ACAD_REACTORS
330
47
102
}
330
47
100
AcDbScale
 70
     0
300
1:16
140
1.0
141
16.0
290
     0
  0
SCALE
  5
4F
102
{ACAD_REACTORS
330
47
102
}
330
47
100
AcDbScale
 70
     0
300
1:20
140
1.0
141
20.0
290
     0
  0
SCALE
  5
50
102
{ACAD_REACTORS
330
47
102
}
330
47
100
AcDbScale
 70
     0
300
1:30
140
1.0
141
30.0
290
     0
  0
SCALE
  5
51
102
{ACAD_REACTORS
330
47
102
}
330
47
100
AcDbScale
 70
     0
300
1:40
140
1.0
141
40.0
290
     0
  0
SCALE
  5
52
102
{ACAD_REACTORS
330
47
102
}
330
47
100
AcDbScale
 70
     0
300
1:50
140
1.0
141
50.0
290
     0
  0
SCALE
  5
53
102
{ACAD_REACTORS
330
47
102
}
330
47
100
AcDbScale
 70
     0
300
1:100
140
1.0
141
100.0
290
     0
  0
SCALE
  5
54
102
{ACAD_REACTORS
330
47
102
}
330
47
100
AcDbScale
 70
     0
300
2:1
140
2.0
141
1.0
290
     0
  0
SCALE
  5
55
102
{ACAD_REACTORS
330
47
102
}
330
47
100
AcDbScale
 70
     0
300
4:1
140
4.0
141
1.0
290
     0
  0
SCALE
  5
56
102
{ACAD_REACTORS
330
47
102
}
330
47
100
AcDbScale
 70
     0
300
8:1
140
8.0
141
1.0
290
     0
  0
SCALE
  5
57
102
{ACAD_REACTORS
330
47
102
}
330
47
100
AcDbScale
 70
     0
300
10:1
140
10.0
141
1.0
290
     0
  0
SCALE
  5
58
102
{ACAD_REACTORS
330
47
102
}
330
47
100
AcDbScale
 70
     0
300
100:1
140
100.0
141
1.0
290
     0
  0
SCALE
  5
59
102
{ACAD_REACTORS
330
47
102
}
330
47
100
AcDbScale
 70
     0
300
1/128" = 1'-0"
140
0.0078125
141
12.0
290
     0
  0
SCALE
  5
5A
102
{ACAD_REACTORS
330
47
102
}
330
47
100
AcDbScale
 70
     0
300
1/64" = 1'-0"
140
0.015625
141
12.0
290
     0
  0
SCALE
  5
5B
102
{ACAD_REACTORS
330
47
102
}
330
47
100
AcDbScale
 70
     0
300
1/32" = 1'-0"
140
0.03125
141
12.0
290
     0
  0
SCALE
  5
5C
102
{ACAD_REACTORS
330
47
102
}
330
47
100
AcDbScale
 70
     0
300
1/16" = 1'-0"
140
0.0625
141
12.0
290
     0
  0
SCALE
  5
5D
102
{ACAD_REACTORS
330
47
102
}
330
47
100
AcDbScale
 70
     0
300
3/32" = 1'-0"
140
0.09375
141
12.0
290
     0
  0
SCALE
  5
5E
102
{ACAD_REACTORS
330
47
102
}
330
47
100
AcDbScale
 70
     0
300
1/8" = 1'-0"
140
0.125
141
12.0
290
     0
  0
SCALE
  5
5F
102
{ACAD_REACTORS
330
47
102
}
330
47
100
AcDbScale
 70
     0
300
3/16" = 1'-0"
140
0.1875
141
12.0
290
     0
  0
SCALE
  5
60
102
{ACAD_REACTORS
330
47
102
}
330
47
100
AcDbScale
 70
     0
300
1/4" = 1'-0"
140
0.25
141
12.0
290
     0
  0
SCALE
  5
61
102
{ACAD_REACTORS
330
47
102
}
330
47
100
AcDbScale
 70
     0
300
3/8" = 1'-0"
140
0.375
141
12.0
290
     0
  0
SCALE
  5
62
102
{ACAD_REACTORS
330
47
102
}
330
47
100
AcDbScale
 70
     0
300
1/2" = 1'-0"
140
0.5
141
12.0
290
     0
  0
SCALE
  5
63
102
{ACAD_REACTORS
330
47
102
}
330
47
100
AcDbScale
 70
     0
300
3/4" = 1'-0"
140
0.75
141
12.0
290
     0
  0
SCALE
  5
64
102
{ACAD_REACTORS
330
47
102
}
330
47
100
AcDbScale
 70
     0
300
1" = 1'-0"
140
1.0
141
12.0
290
     0
  0
SCALE
  5
65
102
{ACAD_REACTORS
330
47
102
}
330
47
100
AcDbScale
 70
     0
300
1-1/2" = 1'-0"
140
1.5
141
12.0
290
     0
  0
SCALE
  5
66
102
{ACAD_REACTORS
330
47
102
}
330
47
100
AcDbScale
 70
     0
300
3" = 1'-0"
140
3.0
141
12.0
290
     0
  0
SCALE
  5
67
102
{ACAD_REACTORS
330
47
102
}
330
47
100
AcDbScale
 70
     0
300
6" = 1'-0"
140
6.0
141
12.0
290
     0
  0
SCALE
  5
68
102
{ACAD_REACTORS
330
47
102
}
330
47
100
AcDbScale
 70
     0
300
1'-0" = 1'-0"
140
12.0
141
12.0
290
     0
  0
ENDSEC
  0
EOF
